<svg width="80" height="80" viewBox="0 0 80 80" fill="none" xmlns="http://www.w3.org/2000/svg">
<path d="M38.6409 28.8797C38.4014 27.842 38.3216 27.2233 38.122 26.6346C36.5754 22.0747 33.7018 18.732 29.1518 16.9559C28.8225 16.8262 28.4833 16.7264 28.1739 16.5768C27.4356 16.2176 27.1262 15.6588 27.2959 15.1C27.5453 14.3018 28.2837 13.8128 29.072 14.0024C29.6806 14.1421 30.2793 14.3716 30.858 14.6211C33.6718 15.8583 35.9967 17.7342 37.8227 20.2088C38.4813 21.1068 39.0799 22.0547 39.6786 22.9427C40.3671 23.1124 40.6265 22.6833 40.8061 22.2243C40.9059 21.9749 40.876 21.6755 40.896 21.3962C41.1654 17.9637 43.0412 15.7286 46.1145 14.3916C47.8207 13.6432 49.6168 13.4037 51.4627 13.5335C52.4405 13.6033 52.8796 14.0324 52.8896 15.0002C52.9195 18.2531 51.8818 21.0968 49.3074 23.1723C47.4116 24.7089 45.2164 25.2178 42.672 24.2698C42.8716 23.8508 42.9514 23.4317 43.2009 23.1623C44.1987 22.0846 45.2464 21.0469 46.2641 19.9893C46.6433 19.5901 47.0025 19.1711 47.4914 18.6223C47.0923 18.4227 46.793 18.1333 46.5734 18.1832C46.1843 18.273 45.7952 18.5125 45.4858 18.7819C44.1089 19.9693 42.7618 21.1766 41.3949 22.384C41.6643 23.272 41.7042 24.0104 41.1254 24.669C40.6665 25.1978 40.6565 25.8264 40.876 26.455C41.1454 27.2233 41.0356 28.1313 41.6942 28.9296C42.4425 28.6103 43.131 28.271 43.8395 28.0216C45.0967 27.5825 46.344 27.0836 47.6311 26.8142C54.0271 25.4971 59.7544 28.73 62.0394 34.8565C63.0871 37.6703 63.3765 40.5839 63.147 43.5474C62.688 49.5442 60.8421 55.0621 57.3597 59.9912C56.2222 61.6077 54.8852 63.0345 53.2987 64.212C52.0414 65.1399 50.6545 65.7885 49.1578 66.1976C47.0923 66.7563 45.0468 66.5468 43.2408 65.5191C41.1254 64.3117 39.2396 64.3516 37.1043 65.4891C34.1408 67.0756 31.1474 66.6665 28.2737 65.0501C26.0985 63.8228 24.3623 62.0966 22.8956 60.111C19.5729 55.6109 17.7469 50.5221 16.9985 45.0042C16.6293 42.2702 16.6992 39.5462 17.4176 36.8721C17.7369 35.6647 18.1759 34.4574 18.7347 33.3399C21.2492 28.3608 26.5974 25.7166 32.0654 26.8042C33.7018 27.1335 35.2683 27.7921 36.8648 28.3109C37.3138 28.4506 37.7529 28.6003 38.611 28.8797H38.6409Z" fill="#003A7B"/>
</svg>
