<svg width="80" height="80" viewBox="0 0 80 80" fill="none" xmlns="http://www.w3.org/2000/svg">
<path d="M25.1937 63.4947C22.2413 63.5529 19.2282 63.1455 16.3769 61.6904C12.5449 59.7347 10.3609 56.3822 9.9666 51.5396C9.81494 49.712 10.1587 47.9659 10.5935 46.2314C11.7259 41.7264 14.0009 38.0014 16.7612 34.6372C21.7256 28.5956 27.7012 24.2653 34.3239 21.099C40.3298 18.2237 46.5784 16.4543 53.1505 16.5009C55.7187 16.5242 58.2464 16.9549 60.6933 17.8745C63.0188 18.7476 65.1219 20.0513 66.8509 22.0885C69.6415 25.3944 70.5919 29.329 69.8033 33.8107C69.1663 37.431 67.4878 40.4459 65.4454 43.2281C62.4728 47.2674 58.8936 50.457 54.9503 53.0995C48.0243 57.7325 40.6938 61.1432 32.7567 62.6915C30.3099 63.1687 27.8428 63.5179 25.224 63.483L25.1937 63.4947ZM33.4948 26.7215C32.3422 26.6866 31.5636 26.7215 30.8862 27.2802C30.5323 27.5712 30.1582 27.9205 30.2997 28.4443C30.3907 28.7819 30.6941 29.0846 30.9671 29.2941C31.2502 29.5153 31.6142 29.5967 31.9478 29.7248C35.5676 31.0984 38.4087 33.6594 40.6129 37.1982C40.896 37.6522 41.1893 38.1411 41.5533 38.4903C42.261 39.1655 43.3429 38.6882 43.535 37.6289C43.6058 37.2447 43.626 36.8024 43.535 36.4299C43.3631 35.7314 43.171 35.0214 42.8575 34.3928C41.1387 30.9471 38.6716 28.5025 35.3957 27.2104C34.6677 26.9194 33.8891 26.8146 33.4847 26.7215H33.4948ZM21.7256 36.0341C20.846 36.0457 20.0068 36.1272 19.3293 36.8606C19.0159 37.2098 18.662 37.594 18.8339 38.1062C18.9451 38.4321 19.2889 38.7115 19.5821 38.8745C19.9562 39.0723 20.4011 39.1422 20.8055 39.2586C23.8591 40.12 26.3767 41.9942 28.4595 44.6715C28.8337 45.1604 29.1875 45.6726 29.5818 46.1266C29.9458 46.5457 30.3806 46.8134 30.9266 46.5341C31.5333 46.2314 31.9579 45.5097 31.8467 44.788C31.7456 44.1594 31.5939 43.4958 31.3209 42.9487C29.228 38.5951 25.9419 36.4415 21.7054 36.0457L21.7256 36.0341ZM46.5177 20.6683C46.275 20.7032 45.8504 20.7381 45.4359 20.8429C44.5461 21.0641 44.0203 21.553 44.0709 22.1118C44.1417 22.9383 44.7888 23.0197 45.2741 23.3108C45.3347 23.3457 45.4055 23.3806 45.4662 23.4039C48.8028 24.9521 51.3508 27.5712 53.2415 31.0635C53.5044 31.5407 53.7875 32.018 54.1515 32.3905C54.7278 32.9959 55.5367 32.7863 55.9917 32.0413C56.3456 31.4477 56.3355 30.819 56.2344 30.1671C55.5569 25.6971 50.6531 20.808 46.5076 20.6567L46.5177 20.6683Z" fill="#003A7B"/>
<path d="M33.4847 26.7215C33.879 26.8263 34.6677 26.931 35.3957 27.2104C38.6716 28.5025 41.1387 30.9471 42.8575 34.3928C43.171 35.0214 43.3631 35.7314 43.535 36.4299C43.626 36.8024 43.6058 37.2447 43.535 37.6289C43.3429 38.6766 42.261 39.1538 41.5533 38.4903C41.1791 38.1411 40.896 37.6522 40.6129 37.1982C38.4087 33.6594 35.5676 31.0984 31.9478 29.7248C31.6142 29.5967 31.2502 29.5153 30.9671 29.2941C30.6941 29.0846 30.3907 28.7819 30.2997 28.4443C30.1582 27.9088 30.5424 27.5596 30.8862 27.2802C31.5636 26.7331 32.3321 26.6982 33.4948 26.7215H33.4847Z" fill="white"/>
<path d="M21.7256 36.0341C25.952 36.4299 29.2482 38.5834 31.3412 42.9371C31.6041 43.4958 31.7557 44.1477 31.8669 44.7763C31.9883 45.498 31.5535 46.2197 30.9468 46.5224C30.411 46.7901 29.9661 46.5224 29.6021 46.115C29.1977 45.661 28.8539 45.1372 28.4798 44.6599C26.3969 41.9825 23.8793 40.1083 20.8258 39.2469C20.4112 39.1305 19.9764 39.0723 19.6023 38.8628C19.3091 38.6998 18.9654 38.4204 18.8541 38.0945C18.6721 37.5823 19.026 37.1982 19.3496 36.8489C20.027 36.1156 20.8662 36.0341 21.7459 36.0224L21.7256 36.0341Z" fill="white"/>
<path d="M46.5177 20.6683C50.6531 20.8196 55.567 25.7087 56.2445 30.1788C56.3456 30.8307 56.3557 31.4709 56.0018 32.0529C55.5468 32.7979 54.7481 33.0075 54.1616 32.4022C53.7976 32.0297 53.5145 31.5524 53.2516 31.0751C51.3609 27.5712 48.8129 24.9637 45.4763 23.4155C45.4156 23.3806 45.3449 23.3573 45.2842 23.3224C44.7989 23.043 44.1518 22.9499 44.081 22.1234C44.0304 21.5646 44.5663 21.0757 45.4459 20.8545C45.8605 20.7498 46.2852 20.7265 46.5278 20.6799L46.5177 20.6683Z" fill="white"/>
</svg>
