<svg width="80" height="80" viewBox="0 0 80 80" fill="none" xmlns="http://www.w3.org/2000/svg">
<path d="M46.9573 39.2874C46.5527 39.2681 46.1482 39.2007 45.7436 39.22C44.7708 39.2681 43.8846 39.5764 43.2103 40.3181C42.7095 40.8671 42.2278 41.4354 41.7559 42.0037C36.0343 49.0257 30.3319 56.0476 24.5911 63.06C23.8686 63.9461 23.0884 64.8227 22.2022 65.5355C20.5744 66.8455 18.5323 66.7973 16.9719 65.5355C15.633 64.4567 15.1803 63.0503 15.5463 61.3743C15.7967 60.2088 16.4325 59.2648 17.2609 58.4365C18.3204 57.3962 19.38 56.3559 20.4684 55.3445C26.662 49.6036 32.8556 43.8627 39.0588 38.1315C39.2611 37.9485 39.4441 37.7462 39.6464 37.5728C40.7348 36.6385 41.0045 35.5212 40.6481 34.1148C39.6945 30.3968 40.3592 26.8617 42.17 23.5385C44.2603 19.6952 47.2174 16.7285 51.2341 14.8695C52.7271 14.1759 54.2779 13.7617 55.8961 13.5595C59.2096 13.1453 63.6212 14.8502 64.44 20.0902C64.6615 21.5061 64.6134 22.9221 64.2859 24.3188C62.8217 30.4738 59.2674 35.001 53.6229 37.8618C51.5423 38.9214 49.2883 39.3452 46.9477 39.2778L46.9573 39.2874Z" fill="#003A7B"/>
</svg>
