<svg width="80" height="80" viewBox="0 0 80 80" fill="none" xmlns="http://www.w3.org/2000/svg">
<path d="M13.8399 42.5588C14.1579 42.6295 14.4053 42.6383 14.6084 42.7355C17.0909 43.9547 19.7677 44.5289 22.4534 44.953C29.7682 46.0926 37.1361 46.4018 44.5217 45.9954C48.4795 45.7746 52.4372 45.4035 56.289 44.3787C57.8439 43.9723 59.3369 43.3716 60.8653 42.8592C61.201 42.7444 61.5367 42.6383 61.9342 42.5147C62.2346 43.4158 62.1286 44.2109 62.0314 44.9971C61.0066 53.0364 56.5982 58.3635 49.036 61.1464C46.9864 61.8973 44.8485 62.2772 42.6841 62.4715C38.3376 62.8602 34.0088 62.7542 29.7241 61.8796C27.5243 61.4291 25.4041 60.7577 23.4428 59.6445C17.2411 56.1461 14.2197 50.7041 13.7339 43.725C13.7073 43.3716 13.7957 43.0094 13.8487 42.5677L13.8399 42.5588Z" fill="#003A7B"/>
<path d="M46.9776 43.1684C49.2657 38.1416 50.5025 34.3164 50.2905 33C49.7693 33.0884 49.6898 33.5743 49.4601 33.9188C47.5872 36.7723 45.7408 39.6346 43.8591 42.4793C43.5941 42.8857 43.276 43.3716 42.8696 43.5394C42.207 43.8133 41.4561 43.8222 40.6257 43.4688C41.0321 42.656 41.6328 42.1171 42.1099 41.4987C42.5958 40.8538 43.1082 40.2354 43.6029 39.5905C44.0888 38.9456 44.5658 38.3007 45.034 37.6381C45.5023 36.9843 45.9528 36.3129 46.3945 35.6415C46.8363 34.9701 47.2515 34.2722 47.6844 33.5919C48.1172 32.9205 48.559 32.258 48.9654 31.6219C48.6915 31.2508 48.4706 31.3745 48.2851 31.5335C44.0269 35.138 39.8129 38.8042 36.0495 42.9387C35.219 43.8487 34.3356 43.7338 33.1871 43.5394C33.4168 43.1596 33.5582 42.8327 33.7791 42.5853C36.5707 39.5021 39.6009 36.6575 42.7901 33.9807C43.7884 33.1414 44.7955 32.3198 45.785 31.4805C45.9617 31.3303 46.0942 31.136 46.2267 30.9858C46.0147 30.5883 45.785 30.7208 45.5641 30.8003C42.3837 32.0724 39.3624 33.6449 36.5354 35.562C33.8851 37.3642 31.703 39.6258 30.1216 42.444C29.9714 42.709 29.7947 42.9652 29.6269 43.2302H27.8777C27.5508 42.7974 27.7982 42.5412 27.9219 42.285C29.1145 39.8555 30.8284 37.8324 32.8426 36.0479C35.7491 33.4683 39.0885 31.5777 42.6399 30.0582C44.4068 29.2984 46.209 28.627 48.0024 27.9468C48.718 27.6729 49.2657 27.2489 49.7604 26.6481C52.826 22.9818 55.9092 19.3421 59.0189 15.72C59.5401 15.1193 60.1231 14.5274 60.7857 14.0945C62.3848 13.0697 64.346 13.4054 65.468 14.8277C66.3602 15.9585 66.5546 17.2218 65.8213 18.4763C65.3885 19.2096 64.7966 19.881 64.1693 20.4641C61.148 23.3176 58.0912 26.1269 55.0434 28.9539C54.9992 28.9981 54.9551 29.0422 54.9021 29.0776C53.303 30.1995 52.4726 31.6837 52.1369 33.6626C51.6598 36.4719 50.7057 39.1753 49.6191 41.8256C49.1332 43.0094 48.9212 43.5394 46.9511 43.1596L46.9776 43.1684ZM62.641 16.1087C62.3406 16.2324 62.0844 16.2942 61.8989 16.4356C61.5985 16.6564 61.307 16.895 61.0773 17.1777C59.4341 19.1124 57.8086 21.0648 56.183 23.0172C56.0682 23.1497 55.9887 23.3352 55.9445 23.5119C55.918 23.6091 55.971 23.7858 56.0417 23.8388C56.1742 23.936 56.3862 24.042 56.5187 23.9978C56.7484 23.9271 56.9605 23.7769 57.1372 23.6091C59.0277 21.9129 60.9094 20.2079 62.7823 18.494C63.0562 18.2466 63.3212 17.9551 63.4714 17.6282C63.5774 17.3809 63.5951 16.9833 63.4714 16.7713C63.2947 16.4886 62.9325 16.3296 62.6498 16.1175L62.641 16.1087Z" fill="#003A7B"/>
<path d="M31.5175 34.4312C31.0316 34.9171 30.5192 35.4207 30.0245 35.9419C29.5562 36.4366 29.088 36.9313 28.6551 37.4614C28.1869 38.0356 27.7452 38.6364 27.3123 39.2371C26.9148 39.7937 26.5437 40.3591 26.1815 40.9333C25.7928 41.5517 25.4306 42.1966 25.0065 42.9034C24.2909 42.8062 23.6195 42.7267 22.957 42.6295C20.8102 42.3115 18.6811 41.8874 16.6492 41.1188C15.8453 40.8185 15.0679 40.4032 14.3699 39.9085C13.6544 39.3961 13.566 38.6187 14.1314 37.9561C14.5643 37.4526 15.112 36.9667 15.7039 36.7105C16.8877 36.1981 18.1245 35.7475 19.379 35.4472C23.01 34.5991 26.7027 34.2369 30.422 34.0955C30.7665 34.0867 31.1641 33.9276 31.5175 34.4224V34.4312Z" fill="#003A7B"/>
<path d="M51.6333 42.6295C52.4019 40.147 53.1882 37.6292 53.9479 35.1645C54.1335 35.0938 54.2483 35.0054 54.3632 35.0231C56.5276 35.2616 58.6036 35.8535 60.5119 36.9137C60.9359 37.1434 61.3158 37.4967 61.625 37.8678C62.1462 38.5038 62.0932 39.3166 61.4748 39.8643C61.0243 40.2619 60.4854 40.6241 59.9288 40.8538C57.3403 41.9139 54.6459 42.5588 51.863 42.7797C51.81 42.7797 51.757 42.7178 51.6333 42.6295Z" fill="#003A7B"/>
<path d="M38.4259 66.5C35.5989 66.447 33.1695 66.4117 30.8019 65.8904C29.5916 65.6254 28.4078 65.2544 27.2328 64.8568C26.579 64.6359 26.0048 64.2207 25.8193 63.4963C25.7663 63.2931 25.8193 62.9751 25.943 62.8249C26.0755 62.6747 26.4024 62.5775 26.5967 62.6305C27.3741 62.8426 28.1162 63.1606 28.8937 63.3726C33.3904 64.5741 37.9577 64.6713 42.5516 64.2207C44.716 64.0087 46.8539 63.6642 48.8682 62.7631C49.036 62.6924 49.2216 62.6217 49.3982 62.6217C49.5661 62.6217 49.8134 62.6747 49.8841 62.7896C49.999 62.9751 50.0962 63.302 50.0078 63.4521C49.7605 63.8674 49.4689 64.2914 49.089 64.5653C48.7003 64.8568 48.2056 64.9982 47.7374 65.166C46.156 65.7314 44.5128 66.076 42.8431 66.2173C41.2353 66.3498 39.6274 66.4205 38.4259 66.4912V66.5Z" fill="#003A7B"/>
<path d="M62.6409 16.1175C62.9237 16.3296 63.2859 16.4974 63.4625 16.7713C63.5951 16.9833 63.5774 17.3809 63.4625 17.6282C63.3124 17.9551 63.0473 18.2466 62.7735 18.494C60.9006 20.2079 59.0189 21.9129 57.1283 23.6091C56.9516 23.7681 56.7308 23.9271 56.5099 23.9978C56.3774 24.042 56.1654 23.936 56.0329 23.8388C55.9533 23.7858 55.9092 23.6091 55.9357 23.5119C55.9798 23.3352 56.0593 23.1585 56.1742 23.0172C57.7997 21.0648 59.4252 19.1212 61.0684 17.1777C61.307 16.895 61.5985 16.6564 61.89 16.4356C62.0844 16.2942 62.3318 16.2412 62.6321 16.1087L62.6409 16.1175Z" fill="white"/>
</svg>
