<svg width="80" height="80" viewBox="0 0 80 80" fill="none" xmlns="http://www.w3.org/2000/svg">
<path d="M27.1045 37.6038C25.9275 39.3557 24.5861 40.7061 23.1354 42.1113C22.8069 41.8649 22.5058 41.6733 22.2412 41.4361C21.3105 40.5601 20.398 39.6659 19.4582 38.7991C19.0841 38.4523 18.9563 38.498 18.3815 39.1093C19.4217 40.5601 20.9455 41.5547 22.086 42.8503C22.1682 43.5529 21.5477 43.7172 21.2648 44.1095C21.1189 44.3194 20.9181 44.4927 20.8086 44.7208C20.7356 44.8668 20.7174 45.1862 20.8086 45.241C20.9911 45.3596 21.3105 45.4782 21.4747 45.3961C21.8032 45.2227 22.0678 44.9216 22.3507 44.6661C22.5879 44.4562 22.8069 44.2373 23.1171 43.9453C24.5953 44.9216 25.7724 46.126 26.9494 47.4308C26.4567 48.0057 26.0461 48.4893 25.6537 48.9455C25.6902 49.3835 25.9366 49.5933 26.2833 49.42C26.849 49.1371 27.3691 48.7721 27.9987 48.3798C29.5864 49.3561 30.5992 50.9255 31.9861 52.0752C31.2835 53.1427 28.8655 55.506 27.36 56.6009C26.0734 55.3509 24.4767 54.3928 23.6646 52.6318C23.4274 52.1117 23.0532 51.6555 22.7521 51.1719C21.201 48.6718 19.6042 46.199 18.1352 43.6533C17.4052 42.385 16.8851 40.9981 16.3559 39.6294C15.8814 38.4158 15.8358 37.1202 16.073 35.8427C16.7117 32.4211 20.2338 30.9155 23.1445 32.8317C24.9055 33.9905 26.0004 35.715 27.1045 37.6038Z" fill="#003A7B"/>
<path d="M31.393 42.7956C31.5299 42.1295 31.3291 41.5364 30.9824 40.9707C30.6448 40.4232 30.2707 39.9031 29.9878 39.3283C29.705 38.7626 29.3674 38.1604 29.3309 37.5582C29.194 35.2679 29.1666 32.9685 29.1028 30.6783C29.9331 30.6692 30.3254 30.9338 30.3254 31.5177C30.3254 31.828 30.1703 32.1382 30.1521 32.4484C30.1247 32.8773 30.3254 33.1784 30.9185 33.2514C32.5427 31.5725 34.2307 29.848 35.6906 27.9227C36.9316 28.8443 44.1216 37.3209 45.317 39.2644C45.3078 39.3283 45.317 39.3922 45.2896 39.4469C45.2348 39.5655 45.1892 39.6842 45.1071 39.7754C44.9429 39.967 44.7695 40.1586 44.5779 40.332C43.2001 41.5729 41.8223 42.7956 40.3076 44.1551C40.3167 44.1551 40.0157 44.0365 39.8332 43.8175C38.72 42.4215 37.6433 40.9981 36.5118 39.529C37.1323 38.5527 37.9991 37.8866 38.7017 37.0745C39.2492 36.445 39.8149 35.8427 40.3441 35.1949C40.4901 35.0124 40.5449 34.7387 40.5905 34.4923C40.6087 34.392 40.5266 34.2368 40.4354 34.173C40.3533 34.1091 40.1707 34.0544 40.0978 34.1C39.7328 34.3463 39.3404 34.5744 39.0393 34.8938C38.1634 35.8245 37.3239 36.7917 36.4662 37.7406C36.2564 37.9688 36.0191 38.1786 35.718 38.4706C35.3804 38.0874 35.0793 37.768 34.8056 37.4304C34.1212 36.5818 33.4734 35.715 32.7617 34.8938C32.6704 34.7934 32.2963 34.8573 32.1047 34.9485C31.9952 35.0033 31.904 35.3135 31.9587 35.4413C32.123 35.7789 32.342 36.0982 32.5792 36.3993C33.3365 37.3483 34.1121 38.279 34.9516 39.3009C33.8019 40.551 32.6613 41.7189 31.3656 42.7317L31.4021 42.7865L31.393 42.7956Z" fill="#003A7B"/>
<path d="M39.9883 62.4589C44.4045 62.4589 48.8299 62.4589 53.2461 62.4589C53.3739 62.4589 53.5016 62.4497 53.6294 62.4589C55.0528 62.4862 55.5911 63.1797 55.2627 64.5575C55.0711 65.3696 54.5783 65.9718 53.7845 66.1817C53.0545 66.3733 52.2789 66.4736 51.5125 66.4736C45.6819 66.501 39.8514 66.4919 34.0209 66.4919C32.0956 66.4919 30.1795 66.5101 28.2542 66.4919C27.7432 66.4919 27.2231 66.4919 26.7304 66.3824C25.3526 66.0813 24.4584 64.9134 24.577 63.6086C24.6409 62.9151 24.9785 62.3676 25.9457 62.3767C30.6174 62.4224 35.2983 62.395 39.9792 62.395C39.9792 62.4132 39.9792 62.4406 39.9792 62.4589H39.9883Z" fill="#003A7B"/>
<path d="M56.7773 29.4556C56.9598 29.629 57.0237 29.6655 57.0328 29.7202C57.0693 29.9027 57.1241 30.0943 57.1149 30.2768C57.0419 31.4265 56.9963 32.5762 56.8686 33.7259C56.2937 38.79 56.2755 43.8997 55.7645 48.9455C55.5273 48.9546 55.3448 49.0185 55.2991 48.9638C54.3228 47.7228 53.1823 46.6005 52.3154 45.1862C52.8447 44.6114 53.3374 44.1186 53.7845 43.5803C54.113 43.1971 54.4232 42.7774 54.6604 42.3394C54.7426 42.1934 54.5692 41.9105 54.4688 41.5456C53.1184 42.2208 52.5344 43.5529 51.3665 44.3194C50.3902 43.708 49.9157 42.6861 49.2222 41.8832C48.5653 41.1167 47.7532 40.4689 47.3061 39.6294C47.3791 39.3831 47.3882 39.2279 47.4612 39.1458C48.9576 37.5764 50.4632 36.0161 52.0235 34.4011C52.7899 34.7022 53.1184 35.4413 53.6659 35.9431C54.1586 36.3993 54.4962 37.0745 55.4451 37.1932C55.3904 36.8647 55.4178 36.6001 55.2991 36.4358C54.6331 35.496 53.9305 34.5927 53.2097 33.6255C53.3556 32.5853 54.2772 32.1017 54.8703 31.3809C55.4269 30.6965 55.8831 29.8936 56.7773 29.4374V29.4556Z" fill="#003A7B"/>
<path d="M47.8901 60.707C48.547 59.5025 48.8938 59.1649 50.3811 58.0974C51.3118 58.1977 51.6037 59.4022 52.7352 59.4569C52.7352 59.1923 52.8173 58.9186 52.7169 58.7543C52.3702 58.1612 51.6767 57.7963 51.5581 56.9477C51.841 56.2634 52.5344 55.871 53.0363 55.3053C53.456 54.8399 53.8301 54.3198 54.1586 53.7815C54.2407 53.6446 54.0947 53.3617 54.0217 52.9876C53.1914 53.4347 52.7078 54.0278 52.1512 54.5297C51.5855 55.0406 51.0472 55.5699 50.4449 56.1356C49.4869 55.506 49.0397 54.5662 48.3645 53.8271C47.6802 53.0789 46.9229 52.3854 46.4301 51.4091C47.0324 50.3507 48.0087 49.7028 48.7934 48.8816C49.5872 48.0513 50.4449 47.294 51.3756 46.418C51.549 46.5366 51.8227 46.6735 52.0326 46.8834C53.0272 47.8779 53.9852 48.909 55.0072 49.8762C55.5182 50.3598 55.7189 50.8982 55.6915 51.5825C55.5729 54.0096 55.4725 56.4367 55.3539 58.8638C55.3356 59.1832 55.2809 59.5025 55.1988 59.8036C55.071 60.2781 54.7517 60.561 54.259 60.6522C54.1312 60.6705 54.0035 60.6978 53.8757 60.6978C51.9596 60.6978 50.0434 60.6978 47.8901 60.6978V60.707Z" fill="#003A7B"/>
<path d="M49.8062 20.0574C50.2168 20.687 50.6183 21.3166 51.0928 22.0556C49.8518 23.3969 48.6109 24.7474 47.3791 26.0795C46.1382 25.1854 43.6107 22.1652 42.8716 20.7052C43.4282 19.5099 44.5505 18.7161 45.4265 17.7307C46.3115 16.7361 47.224 15.7506 48.0908 14.8017C50.5635 15.632 52.8173 17.466 53.8849 19.519C53.3191 20.0483 52.7169 20.6049 52.06 21.2071C51.3391 20.687 50.7095 20.2216 50.0708 19.7563L49.8062 20.0574Z" fill="#003A7B"/>
<path d="M35.8914 26.043C34.2125 24.1452 32.7069 22.4389 31.2196 20.7509C32.1686 18.196 34.4132 15.9423 36.7399 15.2214C38.1451 16.9003 39.5594 18.6066 41.0285 20.3676C40.5722 21.645 39.3404 22.2473 38.5466 23.2053C37.7801 24.136 36.9042 24.9664 35.8822 26.043H35.8914Z" fill="#003A7B"/>
<path d="M44.3771 51.2358C43.6837 52.2942 40.1799 55.7341 38.7291 56.7834C37.5794 56.5553 37.1506 55.433 36.3841 54.7122C35.5994 53.9822 34.8603 53.1975 34.0665 52.3946C34.5501 51.4091 35.3987 50.9164 36.0739 50.2777C36.7673 49.6207 37.4973 48.9911 38.209 48.3615C38.9207 47.732 39.4955 46.9473 40.4445 46.3907C41.8405 47.9692 43.1453 49.5842 44.3771 51.2358Z" fill="#003A7B"/>
<path d="M35.6998 40.4324C36.959 42.0474 38.1725 43.5894 39.4317 45.1954C38.6835 46.5367 37.3239 47.3214 36.2655 48.3889C35.2527 49.4109 34.249 50.4784 33.0263 51.3544C31.5025 50.1591 30.3437 48.8269 29.0754 47.4673C29.2488 47.1754 29.3674 46.8742 29.5681 46.6552C31.3109 44.7939 33.0628 42.9416 34.8238 41.1076C35.0793 40.843 35.4078 40.6514 35.6998 40.4232V40.4324Z" fill="#003A7B"/>
<path d="M25.3252 60.2964C25.8362 59.5573 26.5023 58.9459 27.214 58.4806C28.1994 58.5262 28.5644 59.8036 29.6137 59.5299C29.6502 58.5627 28.6921 58.2434 28.5188 57.4495C28.6009 57.3127 28.6648 57.1119 28.7925 56.9933C30.1521 55.7432 31.5208 54.5023 32.9807 53.1793C34.6869 54.5844 36.1651 56.1447 37.771 57.6959C37.1871 58.3802 36.6578 58.9824 35.9553 59.8036C36.448 59.8036 36.7034 59.8766 36.8768 59.7854C37.4334 59.4843 37.9626 59.1193 38.5375 58.7635C39.3404 58.9824 39.7328 59.6212 40.0704 60.2416C39.9244 60.7252 39.5777 60.707 39.2674 60.6887C38.2455 60.6431 37.2327 60.5701 36.2107 60.5153C35.9644 60.5062 35.7089 60.5336 35.4625 60.5518C32.1412 60.853 28.8199 60.6431 25.4986 60.5518C25.4621 60.5518 25.4256 60.4515 25.3252 60.2872V60.2964Z" fill="#003A7B"/>
<path d="M36.7582 26.9829C38.3459 25.1123 40.0339 23.4061 41.6307 21.6359C42.7712 22.448 45.5451 25.7511 46.3389 27.1836C44.7239 28.8534 43.0997 30.5323 41.3934 32.2933C39.7875 30.514 38.1451 28.9446 36.7582 26.9738V26.9829Z" fill="#003A7B"/>
<path d="M46.5761 38.4067C46.3572 38.3155 46.202 38.2972 46.129 38.206C44.8699 36.6822 43.6198 35.1493 42.3059 33.5525C42.5066 33.2149 42.6526 32.8682 42.8898 32.5944C44.1581 31.1619 45.4538 29.7476 46.7495 28.3333C46.8225 28.2512 46.9685 28.2329 47.0871 28.1873C47.9448 28.9264 50.3081 31.9649 51.2023 33.5069C49.6693 35.1311 48.1091 36.7826 46.5761 38.4067Z" fill="#003A7B"/>
<path d="M50.5179 45.3687C48.8025 47.1206 47.2422 48.6991 45.7276 50.2503C45.5268 50.232 45.3626 50.2685 45.2896 50.1955C44.9611 49.8944 44.6418 49.5934 44.3589 49.2466C43.3643 48.0148 42.3789 46.7739 41.4117 45.5695C42.1416 44.4745 45.3078 41.2353 46.4667 40.405C47.7715 42.0018 49.0854 43.6077 50.5179 45.3687Z" fill="#003A7B"/>
<path d="M39.6963 57.9423C40.5357 56.6922 43.6746 53.6902 45.4447 52.4128C46.7678 53.8362 48.1091 55.2688 49.5142 56.7834C49.3317 57.0937 49.1949 57.4495 48.9485 57.7141C48.0361 58.6905 47.078 59.6303 46.056 60.6705H41.8862C41.1745 59.7854 40.4262 58.8547 39.6963 57.9514V57.9423Z" fill="#003A7B"/>
<path d="M52.2151 32.4119C51.184 31.5269 49.0033 28.7621 48.0726 27.1836C48.547 26.3168 49.4047 25.7328 50.0708 24.9755C50.7004 24.2638 51.3665 23.5886 52.1238 22.7947C52.4432 23.1141 52.6987 23.3605 52.9542 23.6251C53.7936 24.501 54.6331 25.377 55.7827 25.8879C56.1203 26.0431 56.4397 26.2894 56.7043 26.5631C57.124 26.992 57.1423 27.7402 56.7408 28.1234C55.2718 29.5377 53.7936 30.9246 52.2333 32.4028L52.2151 32.4119Z" fill="#003A7B"/>
<path d="M57.0419 62.4041C57.708 62.833 58.2098 63.2162 58.7756 63.4991C59.5055 63.864 60.2629 63.8458 60.9746 63.3987C61.8779 62.833 62.252 61.811 61.9053 60.9168C61.5221 59.9496 60.418 59.3474 59.396 59.6485C58.8577 59.8036 58.3741 60.1504 57.8631 60.415C57.5438 60.5883 57.2335 60.7891 56.9142 60.9715C56.0747 59.6576 56.1751 59.028 57.2427 58.3893C58.3193 57.7506 59.4599 57.4039 60.7282 57.6137C62.4619 57.9057 63.7211 59.1558 64.013 60.9168C64.2959 62.6048 63.4564 64.2929 61.9053 65.0685C60.1169 65.9535 58.4197 65.6342 56.8138 64.5849C56.1751 64.1651 56.2755 63.2709 57.0328 62.4132L57.0419 62.4041Z" fill="#003A7B"/>
<path d="M30.5536 22.1104C30.8455 22.2381 31.0371 22.2838 31.174 22.3933C31.4204 22.594 31.6576 22.813 31.8583 23.0593C32.9898 24.4189 34.103 25.7784 35.2162 27.138C33.8475 28.4975 32.5518 29.775 31.2288 31.0889C30.6083 30.368 30.0061 29.7202 29.4677 29.0268C29.2853 28.7987 29.2031 28.4519 29.1757 28.1508C29.048 26.6726 29.705 23.7528 30.5536 22.1104Z" fill="#003A7B"/>
<path d="M46.6126 14.2542C45.9922 15.4222 43.4465 18.2781 41.8314 19.6194C40.7274 18.3329 39.605 17.0463 38.5192 15.7415C38.2911 15.4678 38.1816 15.0846 37.9809 14.6922C39.085 13.8071 40.3624 13.6794 41.6033 13.579C43.3005 13.433 45.0159 13.4057 46.6126 14.2542Z" fill="#003A7B"/>
<path d="M31.3656 42.7409C30.6083 43.6807 29.8601 44.6296 29.0845 45.5512C28.8017 45.8888 28.4549 46.1717 28.1264 46.4819C27.1319 46.2447 26.703 45.3687 26.0095 44.8304C25.3617 44.3285 24.7139 43.7993 24.2485 42.9963C25.2522 41.4817 26.6757 40.3685 27.7706 38.7899C28.0717 39.0911 28.3181 39.2736 28.4732 39.5108C29.2579 40.7791 30.2707 41.8284 31.4021 42.7773L31.3747 42.7317L31.3656 42.7409Z" fill="#003A7B"/>
<path d="M52.8812 21.9735C53.4469 21.4534 53.9943 20.9425 54.5327 20.4406C55.4178 20.8969 55.5911 21.6724 55.8558 22.375C56.4488 23.9171 56.4945 24.2547 56.3393 25.3678C55.5729 25.0394 55.1349 24.4007 54.6239 23.8623C54.0947 23.3057 53.5929 22.74 52.872 21.9644L52.8812 21.9735Z" fill="#003A7B"/>
<path d="M24.4766 55.7615C25.4895 56.1173 26.0095 56.6192 26.4658 57.2944C26.2285 58.1795 25.5259 58.5536 24.7869 59.2379C24.3489 57.9879 24.4766 57.0024 24.4766 55.7615Z" fill="#003A7B"/>
</svg>
