<svg width="80" height="80" viewBox="0 0 80 80" fill="none" xmlns="http://www.w3.org/2000/svg">
<path d="M17.9137 40.8868C18.2383 39.5597 18.076 38.3471 18.1142 37.1537C18.1715 34.9195 18.3243 34.7381 20.5202 34.7381C33.5813 34.7477 46.6519 34.7668 59.713 34.7954C61.6034 34.7954 61.7848 34.9864 61.8134 36.8386C61.8325 37.7743 61.8039 38.7195 61.823 39.6551C61.8325 40.037 61.928 40.4285 61.9948 40.8963C63.2551 41.2018 64.439 41.135 65.6229 40.9822C65.9189 40.9441 66.2244 40.6958 66.4535 40.4762C67.0359 39.8938 66.8164 38.9104 66.0335 38.7004C65.4606 38.5476 64.8495 38.5858 64.2481 38.519C63.4461 38.433 63.0928 37.9939 63.1119 37.1632C63.131 36.3517 63.5129 35.8743 64.2863 35.8075C64.9546 35.7502 65.6229 35.7502 66.2912 35.7884C68.0957 35.8934 69.4706 37.0677 69.8525 38.7863C70.2821 40.734 69.4801 42.5099 67.7902 43.35C66.9882 43.7415 66.1385 43.8751 65.2505 43.8656C64.2481 43.8656 63.2551 43.8656 62.4436 43.8656C61.7466 44.4003 61.8421 44.9636 61.8421 45.4887C61.8421 48.5057 61.8421 51.5228 61.8421 54.5302C61.8421 55.1986 61.8421 55.8764 61.7848 56.5352C61.4984 59.6191 59.417 62.0728 56.4191 62.8366C55.6457 63.0371 54.8342 63.1421 54.0417 63.1421C44.666 63.1612 35.2808 63.1421 25.905 63.1421C24.5397 63.1421 23.2317 62.8748 22.0383 62.216C19.4604 60.7934 18.1524 58.5784 18.1142 55.6568C18.0665 52.5061 18.1142 49.3555 18.1047 46.2143C18.1047 45.5555 18.2097 44.8777 17.971 44.2953C17.4936 43.7892 16.9303 43.9038 16.4052 43.8847C15.4696 43.8561 14.5243 43.9229 13.5982 43.7988C11.2018 43.4837 9.79831 41.6506 10.0656 39.2732C10.247 37.6597 11.135 36.5426 12.6626 35.9984C13.7605 35.607 14.9158 35.7024 16.0424 35.8457C16.5866 35.9125 16.9208 36.4376 16.9303 37.02C16.9399 37.717 16.5962 38.3089 16.0233 38.4235C15.4982 38.519 14.954 38.4808 14.4289 38.5476C13.7128 38.6335 13.2545 39.1205 13.2545 39.6933C13.2545 40.2662 13.7033 40.8295 14.3716 40.9345C15.4886 41.1159 16.6248 41.1445 17.9137 40.8677V40.8868Z" fill="#003A7B"/>
<path d="M39.8731 32.1794C33.4381 32.1794 27.003 32.1794 20.5775 32.1794C19.976 32.1794 19.3745 32.1698 18.773 32.103C18.267 32.0457 17.9901 31.5015 18.2002 31.0432C18.3338 30.7377 18.5152 30.4513 18.7062 30.1744C20.0047 28.2362 21.7232 26.785 23.8237 25.7634C25.7045 24.8469 27.6618 24.1499 29.7241 23.8253C31.8341 23.4911 33.9727 23.1856 36.1018 23.071C39.8445 22.8705 43.6062 22.8419 47.3393 23.3193C49.7453 23.6248 52.094 24.1212 54.3568 24.9901C57.1065 26.0403 59.4743 27.6157 61.2024 30.0503C61.3551 30.2699 61.5366 30.4704 61.6702 30.6995C62.0999 31.4347 61.8134 32.0457 60.9733 32.1221C60.5054 32.1698 60.0376 32.1507 59.5698 32.1507C53.001 32.1507 46.4323 32.1507 39.8731 32.1507V32.1794Z" fill="#003A7B"/>
<path d="M40.1882 21.2188C38.9948 21.2188 37.7918 21.2379 36.5983 21.2092C36.035 21.1901 35.7581 20.8178 35.8345 20.2736C35.8345 20.2068 35.8441 20.1399 35.8632 20.0731C36.2546 18.2304 37.849 16.9701 39.9209 16.8556C41.9736 16.7505 43.7304 17.8485 44.3128 19.6053C44.37 19.7962 44.4082 19.9872 44.4369 20.1877C44.5323 20.8369 44.2364 21.2188 43.5776 21.2379C42.451 21.257 41.3148 21.2379 40.1882 21.2379C40.1882 21.2283 40.1882 21.2092 40.1882 21.1997V21.2188Z" fill="#003A7B"/>
</svg>
