<svg width="80" height="80" viewBox="0 0 80 80" fill="none" xmlns="http://www.w3.org/2000/svg">
<g clip-path="url(#clip0_1193_16015)">
<path d="M17.5675 35.9642C17.9156 35.4579 18.2742 34.92 18.6539 34.3821C19.0863 33.7809 19.5082 33.1692 19.9617 32.5891C20.8793 31.3973 22.0501 30.8383 23.6005 30.8805C26.8596 30.9543 30.1187 30.8805 33.3672 30.8805C39.8854 30.8805 46.393 30.8805 52.9111 30.891C53.5756 30.891 54.2401 30.9121 54.9045 30.891C55.8538 30.8699 56.6237 31.2074 57.2882 31.8719C57.6995 32.2832 58.1636 32.6418 58.5539 32.9794C59.482 32.8106 59.8512 32.1039 60.368 31.6188C62.045 30.0789 63.9224 29.0031 66.2006 28.6023C70.7464 27.8112 75.0391 30.2687 76.6106 34.6247C77.9185 38.274 77.4122 41.7757 75.7141 45.1508C74.3219 47.9142 72.2652 50.1291 69.7023 51.8588C67.6667 53.23 65.4412 54.2425 63.1208 55.023C62.488 55.2339 61.8657 55.466 61.2118 55.6136C59.9988 55.8984 59.1551 56.5629 58.4062 57.5859C56.5077 60.2122 53.9553 62.1107 51.0126 63.4502C49.7153 64.0408 48.3442 64.3889 46.9309 64.3994C41.4569 64.4311 35.9724 64.4416 30.4984 64.4311C27.7139 64.4311 25.3302 63.2498 23.1153 61.6993C21.4067 60.497 19.8879 59.0942 18.7488 57.3223C18.2531 56.5523 17.6308 55.9828 16.8187 55.5503C12.8951 53.4515 10.3954 50.1607 9.08758 45.9524C8.60241 44.402 8.28599 42.7988 7.89574 41.2167C7.4844 39.5608 7.13635 37.8944 6.66172 36.2701C6.12382 34.4665 5.21676 32.8633 3.72961 31.6504C3.49757 31.4606 3.27608 31.2707 3.07569 31.0492C2.2741 30.1422 2.64326 28.8871 3.85618 28.6867C4.79488 28.5285 5.77577 28.5601 6.73556 28.5601C10.7013 28.5812 10.0685 28.3281 12.6525 31.1125C13.7072 32.2516 14.6987 33.454 15.7323 34.6036C16.1226 35.0361 16.5761 35.4263 17.0296 35.806C17.1245 35.8904 17.3038 35.8693 17.5675 35.9115V35.9642ZM62.277 50.3611C62.6356 50.4771 62.7095 50.5193 62.7728 50.5193C62.9204 50.5193 63.0681 50.4982 63.2052 50.456C66.401 49.4119 68.9851 47.5134 71.0207 44.8555C71.9277 43.6637 72.5289 42.3136 72.8559 40.8476C73.2356 39.1495 73.2039 37.4619 72.5078 35.8377C71.2421 32.8844 68.2256 31.7664 65.3463 33.1903C64.1228 33.7915 63.1419 34.6564 62.4247 35.8271C61.6969 37.0084 61.4122 38.1475 61.8868 39.5924C62.8782 42.5878 62.9942 45.6887 62.4458 48.8001C62.3614 49.2958 62.3403 49.8021 62.2876 50.3611H62.277Z" fill="#003A7B"/>
<path d="M23.9064 27.8534C24.149 26.746 24.7712 26.2924 25.3197 25.8284C28.178 23.4025 31.5109 22.1052 35.234 21.9259C37.5228 21.8204 39.8221 21.7888 42.1003 21.9048C46.0555 22.1158 49.5677 23.5502 52.5525 26.187C52.9744 26.5561 53.2697 27.0624 53.5967 27.4632C53.1959 28.1909 52.6158 27.98 52.1412 27.98C45.0535 28.0116 37.9658 28.0327 30.8781 28.0433C29.1061 28.0433 27.3342 28.0433 25.5623 28.0116C25.0771 28.0116 24.5814 27.9167 23.9169 27.8534H23.9064Z" fill="#003A7B"/>
<path d="M38.7779 19.9641C37.7443 19.9641 36.7212 19.9958 35.6876 19.9536C35.1286 19.9325 34.7911 19.4157 34.886 18.8567C35.1919 16.9371 36.9427 15.5343 38.9888 15.566C40.919 15.5976 42.6171 17.0215 42.8807 18.825C42.9651 19.384 42.6276 19.9114 42.0792 19.9325C40.9823 19.9747 39.8748 19.943 38.7779 19.943C38.7779 19.943 38.7779 19.9536 38.7779 19.9641Z" fill="#003A7B"/>
<path d="M62.277 50.3717C62.3298 49.8127 62.3509 49.3064 62.4352 48.8107C62.9837 45.6887 62.8571 42.5878 61.8762 39.603C61.4016 38.158 61.6864 37.0189 62.4142 35.8376C63.1314 34.6669 64.1228 33.802 65.3357 33.2009C68.2151 31.777 71.2421 32.895 72.4973 35.8482C73.1934 37.4725 73.225 39.16 72.8453 40.8581C72.5183 42.3242 71.9172 43.6742 71.0101 44.866C68.9745 47.5239 66.3904 49.4224 63.1946 50.4666C63.0575 50.5088 62.9099 50.5299 62.7622 50.5299C62.6884 50.5299 62.6251 50.4877 62.2665 50.3717H62.277Z" fill="white"/>
</g>
<defs>
<clipPath id="clip0_1193_16015">
<rect width="80" height="80" fill="white"/>
</clipPath>
</defs>
</svg>
