<svg width="80" height="80" viewBox="0 0 80 80" fill="none" xmlns="http://www.w3.org/2000/svg">
<path d="M51.4841 24.1722C53.3156 23.9658 55.1298 23.7595 56.8839 24.3613C57.7351 24.6537 58.5863 25.0148 59.343 25.4877C60.0996 25.9606 60.8133 26.5539 61.4237 27.216C62.0256 27.878 62.5759 28.6261 62.9628 29.4343C63.3756 30.2941 63.6937 31.24 63.8485 32.1772C64.3128 35.006 63.9602 37.6973 62.318 40.1478C60.6671 42.6155 58.2338 43.8106 55.362 44.4297C55.233 45.066 55.0782 45.6421 55.0094 46.2267C54.6999 48.8664 54.4162 51.5061 54.1066 54.1458C54.0292 54.782 54.1066 55.4871 53.4789 56.0202C44.5883 52.7442 35.6633 52.9076 26.6265 56.0202C26.489 55.5817 26.317 55.2119 26.2654 54.8164C25.8699 51.8242 25.5088 48.832 25.1133 45.8398C25.0531 45.3755 24.9155 44.9112 24.7951 44.3695C21.545 43.7161 18.8451 42.2973 17.2458 39.2793C16.0077 36.9406 15.6724 34.4643 16.214 31.902C16.7901 29.185 18.2518 27.0354 20.6422 25.5479C23.0153 24.069 25.6034 23.7767 28.243 24.1894C28.9481 23.7853 29.1286 23.106 29.4812 22.5643C31.3986 19.5549 34.0812 17.6547 37.5807 16.9582C42.6623 15.9436 47.5117 18.033 50.4094 22.4611C50.7705 23.0114 51.1058 23.5789 51.4927 24.198L51.4841 24.1722ZM40.7965 43.8622H40.7879C40.7879 43.0196 40.8223 42.177 40.7793 41.3343C40.7449 40.5691 40.2806 40.036 39.7561 40.079C39.266 40.122 38.8791 40.5605 38.8705 41.2655C38.8447 42.8304 38.8619 44.3953 38.8705 45.9602C38.8705 46.1923 38.9393 46.4331 39.0167 46.6567C39.1628 47.0694 39.6271 47.3617 39.9969 47.2757C40.3838 47.1897 40.6331 46.9318 40.7191 46.5535C40.7793 46.2611 40.7879 45.9602 40.7879 45.6593C40.7965 45.0574 40.7879 44.4555 40.7879 43.8536L40.7965 43.8622ZM46.8841 47.0092C46.9013 47.2413 46.8927 47.4219 46.9357 47.5939C47.0302 47.9722 47.271 48.2301 47.6493 48.3161C48.0534 48.4021 48.3372 48.1872 48.5435 47.8604C48.6381 47.7142 48.7069 47.5337 48.7413 47.3703C49.0594 45.9688 49.3862 44.5673 49.6699 43.1658C49.7989 42.5295 49.4722 42.0222 48.9563 41.9018C48.5435 41.8072 48.0878 42.0996 47.9245 42.6928C47.5375 44.1374 47.2108 45.5991 46.8755 47.0006L46.8841 47.0092ZM32.8861 47.2499C32.5508 45.8226 32.2326 44.3609 31.8543 42.9078C31.6737 42.2113 31.2094 41.8674 30.7451 41.9448C30.1948 42.0394 29.9283 42.5639 30.1003 43.3979C30.3926 44.7478 30.7107 46.0892 31.0547 47.4305C31.1234 47.7057 31.2954 47.9808 31.476 48.2043C31.7855 48.5827 32.482 48.4623 32.6711 47.998C32.7657 47.783 32.8001 47.5423 32.8775 47.2585L32.8861 47.2499Z" fill="#003A7B"/>
<path d="M40.4784 63.2943C37.1852 63.2513 34.8293 63.1653 32.5164 62.6838C31.3384 62.4431 30.1776 62.0906 29.0513 61.6864C28.501 61.4887 27.9679 61.1447 27.5294 60.7406C26.7383 60.0184 26.8157 59.0382 27.6755 58.4277C28.0625 58.1525 28.5096 57.9376 28.9653 57.7828C29.9971 57.4475 31.0289 57.0949 32.0865 56.88C37.469 55.7794 42.8601 55.6676 48.234 56.8972C49.3432 57.1551 50.4266 57.5421 51.5099 57.9032C51.8453 58.015 52.1806 58.1955 52.473 58.3933C53.2726 58.9436 53.4188 59.8808 52.7309 60.5601C52.3182 60.9728 51.8023 61.3597 51.252 61.5575C50.0052 62.0046 48.7413 62.4087 47.443 62.6666C44.8291 63.1739 42.1808 63.3115 40.4612 63.2771L40.4784 63.2943Z" fill="#003A7B"/>
<path d="M40.7965 43.8622C40.7965 44.4641 40.7965 45.066 40.7965 45.6679C40.7965 45.9688 40.7879 46.2697 40.7277 46.5621C40.6503 46.9404 40.3924 47.1897 40.0055 47.2843C39.6357 47.3703 39.1628 47.078 39.0253 46.6653C38.9479 46.4417 38.8877 46.2009 38.8791 45.9688C38.8619 44.4039 38.8447 42.839 38.8791 41.2741C38.8877 40.5691 39.2746 40.1306 39.7647 40.0876C40.2806 40.0446 40.7449 40.5691 40.7879 41.3429C40.8309 42.1856 40.7965 43.0282 40.7965 43.8708H40.8051L40.7965 43.8622Z" fill="white"/>
<path d="M46.8841 47.0092C47.2194 45.5991 47.5461 44.146 47.9331 42.7015C48.0878 42.1082 48.5521 41.8158 48.9649 41.9104C49.4808 42.0308 49.8075 42.5295 49.6785 43.1744C49.3948 44.5845 49.068 45.9774 48.7499 47.3789C48.7069 47.5509 48.6467 47.7228 48.5521 47.869C48.3458 48.1871 48.062 48.4107 47.6579 48.3247C47.2796 48.2387 47.0388 47.9808 46.9443 47.6025C46.9013 47.4305 46.9099 47.2499 46.8927 47.0178L46.8841 47.0092Z" fill="white"/>
<path d="M32.8861 47.2499C32.8087 47.5337 32.7657 47.7744 32.6797 47.9894C32.482 48.4451 31.7941 48.5741 31.4846 48.1957C31.304 47.9722 31.132 47.697 31.0633 47.4219C30.7193 46.0806 30.3926 44.7392 30.1088 43.3893C29.9283 42.5639 30.1948 42.0394 30.7537 41.9362C31.218 41.8588 31.6823 42.2027 31.8629 42.8992C32.2412 44.3523 32.5594 45.814 32.8947 47.2413L32.8861 47.2499Z" fill="white"/>
</svg>
