<svg width="80" height="80" viewBox="0 0 80 80" fill="none" xmlns="http://www.w3.org/2000/svg">
<path d="M58.527 58.8986C55.6769 63.0767 46.5545 67.1731 41.7635 66.407C41.7431 65.886 41.692 65.3344 41.7022 64.7827C41.7635 62.423 41.9269 60.0632 41.9065 57.7034C41.8861 54.8329 41.4672 52.0134 40.4968 49.2757C39.6693 46.9568 38.5456 44.832 36.9827 42.9319C36.7579 42.6561 36.5638 42.3701 36.3085 42.0228C37.2176 40.5926 38.4537 39.5506 39.7613 38.4065C40.1597 38.764 40.5683 39.0603 40.8747 39.4178C42.6829 41.5426 44.4501 43.6981 46.2787 45.8025C48.9041 48.8262 51.5601 51.8296 54.257 54.792C55.2172 55.8442 56.3511 56.733 57.3931 57.7136C57.7915 58.0916 58.1695 58.5105 58.527 58.8884V58.8986Z" fill="#003A7B"/>
<path d="M60.8765 56.4571C59.5894 55.6808 58.4861 54.7716 57.485 53.7603C55.5645 51.8296 53.6338 49.9193 51.8257 47.8864C48.7815 44.4642 45.8292 40.9604 42.8463 37.4769C42.5705 37.1602 42.3458 36.8027 42.0189 36.3328C43.1119 35.3419 44.1539 34.3918 45.298 33.3601C45.8701 33.8198 46.3706 34.208 46.8508 34.6064C50.8552 38.0183 55.4726 39.949 60.7233 40.1942C62.5723 40.2861 64.4315 40.041 66.444 39.9388C66.5155 40.1942 66.7198 40.5824 66.7198 40.9604C66.638 46.5788 64.9014 51.6355 61.4282 56.0792C61.3465 56.1813 61.1932 56.2426 60.8868 56.4469L60.8765 56.4571Z" fill="#003A7B"/>
<path d="M38.1574 66.3968C33.8261 66.8156 26.4608 64.0676 23.6413 61.0847C24.2032 56.9168 29.8012 48.1724 34.1939 44.3417C34.4901 44.5868 34.8681 44.7911 35.103 45.0976C36.5843 47.059 37.708 49.2246 38.2902 51.615C39.4752 56.5184 39.1177 61.4116 38.1574 66.3865V66.3968Z" fill="#003A7B"/>
<path d="M20.638 21.9188C23.815 17.2401 32.968 13.0314 38.8725 13.5422C38.9338 13.9916 39.0462 14.4615 39.0768 14.9417C39.179 16.5864 39.1892 18.231 39.3526 19.8655C39.7408 23.7065 41.0075 27.241 43.1732 30.4487C43.3367 30.6836 43.4797 30.9288 43.684 31.2455C42.928 32.5837 41.6613 33.3805 40.5172 34.3305C39.6489 34.1058 39.2199 33.3907 38.6886 32.8493C36.3391 30.4283 33.8057 28.2319 31.0066 26.3421C28.3098 24.5237 25.4086 23.1855 22.2316 22.45C21.7004 22.3274 21.1896 22.1129 20.6278 21.9392L20.638 21.9188Z" fill="#003A7B"/>
<path d="M31.926 42.2986C30.6798 44.0965 28.9023 45.4858 27.6356 47.2837C26.3995 49.0408 25.1123 50.7672 24.0091 52.5957C22.865 54.4856 21.9251 56.4878 20.8832 58.4492C16.7766 55.8238 12.8232 46.8036 13.3237 41.3588C15.4383 39.806 20.4337 38.7947 24.2543 39.142C27.3189 39.4178 30.3324 40.6335 31.926 42.2986Z" fill="#003A7B"/>
<path d="M38.0757 36.4962C36.8294 37.8651 35.6751 38.999 34.2858 40.1023C31.2723 37.8242 27.9012 36.5269 24.193 36.1489C20.5665 35.7811 17.0932 36.6392 13.4974 37.6506C13.4157 37.0887 13.2727 36.6801 13.3237 36.3021C13.7732 32.6144 15.0604 29.2228 16.9911 26.0561C17.4508 25.3001 18.0535 24.9017 18.932 24.9834C19.9229 25.0754 20.9342 25.1264 21.9047 25.3614C24.6527 26.0254 27.1452 27.2717 29.4948 28.8346C32.3653 30.7654 35.0111 32.9515 37.3198 35.5257C37.5547 35.7913 37.759 36.0774 38.0757 36.4962Z" fill="#003A7B"/>
<path d="M48.046 31.6439C50.4262 28.8244 57.7302 23.9721 60.6416 23.2468C63.5938 26.005 66.3418 32.3181 66.3112 36.3838C65.4837 37.0989 64.4009 37.15 63.3487 37.2317C60.6825 37.4462 58.0775 37.0478 55.5135 36.2817C53.0107 35.5257 50.7633 34.3203 48.8223 32.5633C48.5261 32.2875 48.2911 31.9401 48.046 31.6439Z" fill="#003A7B"/>
<path d="M45.9722 29.233C42.8668 25.7292 41.2834 18.0165 42.6931 13.7158C46.9631 13.2561 54.7166 16.6987 57.9856 20.5295C57.8221 20.7236 57.6791 20.9892 57.4646 21.122C53.6134 23.3694 50.0584 26.0254 46.6465 28.8857C46.4932 29.0185 46.2787 29.0798 45.9722 29.233Z" fill="#003A7B"/>
</svg>
