<svg width="80" height="80" viewBox="0 0 80 80" fill="none" xmlns="http://www.w3.org/2000/svg">
<path d="M29.4121 66.0543C29.3283 65.1794 29.6075 64.4813 30.4173 64.1369C31.0037 63.8856 31.6645 63.6902 32.2974 63.6716C35.2014 63.5599 37.9565 62.9083 40.6464 61.7821C42.7499 60.8979 44.9372 60.2184 47.078 59.4273C47.6085 59.2318 48.2414 59.176 48.6044 58.5337C48.2414 57.8264 47.6923 57.4913 46.8825 57.7519C45.3281 58.2638 43.7831 58.7757 42.2473 59.3435C39.7249 60.2836 40.5161 60.2929 38.003 59.3156C36.5417 58.7478 35.0711 58.2173 33.5819 57.724C32.7256 57.4447 32.5022 57.6216 32.0089 58.7199C33.768 59.6693 35.825 59.9485 37.7238 61.084C37.2212 61.3074 36.8954 61.5401 36.5417 61.596C35.1921 61.838 33.8332 62.0241 32.4836 62.2382C31.8414 62.3406 31.1805 62.4057 30.5569 62.5826C28.6488 63.1131 28.109 64.0252 28.4441 65.9985C28.3231 66.045 28.2021 66.1474 28.0904 66.1288C26.1358 65.9519 24.1998 65.6355 22.3476 64.9653C21.6216 64.6954 20.8956 64.351 20.2533 63.9135C18.6431 62.7966 17.9357 60.8979 18.3639 59.1201C18.8572 57.0911 20.2347 56.0393 22.208 55.7042C24.1626 55.3784 26.1172 55.6391 28.0531 55.9834C29.0118 56.151 29.9612 56.3557 30.8641 56.5419C31.8972 55.6484 32.3998 54.5966 32.6325 53.4332C33.433 49.4029 32.7256 45.652 30.4917 42.1895C29.8216 41.1471 29.1142 40.1232 28.4906 39.0529C27.5971 37.5171 26.9828 35.8696 26.657 34.1198C26.0706 31.011 26.8245 28.256 28.9932 25.9756C30.2032 24.7005 31.5808 23.5836 32.9211 22.448C33.768 21.7313 34.6895 21.1077 35.583 20.4376C36.7372 19.5813 37.4446 18.4737 37.7424 17.0589C37.9192 16.2305 38.1799 15.4208 38.4777 14.6296C38.7569 13.8943 39.3247 13.4568 40.1438 13.5034C40.9442 13.5499 41.4655 14.0339 41.7261 14.7692C41.8936 15.2625 42.0332 15.7744 42.0984 16.2864C42.3776 18.362 43.448 19.8605 45.1606 21.0705C46.808 22.2339 48.3438 23.5742 49.861 24.9052C50.587 25.5475 51.2106 26.32 51.8063 27.0925C53.2955 29.0099 53.7143 31.1972 53.3699 33.5706C53.1838 34.8737 52.8022 36.1116 52.2809 37.3216C51.4712 39.1832 50.3822 40.8865 49.3118 42.6084C47.2176 45.9777 46.6777 49.6636 47.5527 53.5262C47.7388 54.336 48.1856 55.0899 48.5486 55.8531C48.8371 56.4674 49.377 56.6536 50.0285 56.5326C50.4753 56.4488 50.9127 56.2999 51.3688 56.2347C52.7184 56.0207 54.068 55.7601 55.4362 55.6484C56.3391 55.5739 57.2791 55.6204 58.1634 55.7973C62.0074 56.5605 62.4077 60.3301 61.0487 62.4523C60.36 63.5319 59.4013 64.3324 58.1913 64.7326C56.8324 65.1794 55.4549 65.6448 54.0401 65.8589C51.9179 66.1753 49.7586 66.4173 47.6085 66.4545C42.3218 66.5383 37.0257 66.4825 31.739 66.4731C30.9758 66.4731 30.1753 66.5848 29.4214 66.0636L29.4121 66.0543ZM40.1717 20.6237C39.939 20.7633 39.7156 20.8099 39.6412 20.9495C39.0827 22.0106 38.2078 22.811 37.3515 23.6022C36.5324 24.3561 35.6761 25.0635 34.885 25.836C34.0007 26.7016 33.1258 27.5858 32.3347 28.5352C31.1619 29.9314 30.9106 31.5788 31.3295 33.3287C31.4505 33.8313 31.618 34.3339 31.8134 34.8179C32.5767 36.6515 33.8146 38.1686 35.099 39.6578C35.4806 40.1046 35.9646 40.1605 36.5231 40.0953C38.8686 39.7975 41.2049 39.7137 43.5504 40.0953C44.1182 40.1884 44.5649 40.0301 44.9372 39.5927C46.1193 38.1965 47.2921 36.7818 48.0553 35.1064C49.2467 32.491 49.1256 30.0244 47.0221 27.8744C45.9704 26.804 44.8628 25.7988 43.7738 24.7656C42.4521 23.5091 41.0094 22.3643 40.1717 20.633V20.6237Z" fill="#003A7B"/>
<path d="M40.1717 20.6237C41.0187 22.3549 42.4521 23.4998 43.7738 24.7563C44.8628 25.7895 45.9797 26.7947 47.0221 27.8651C49.1257 30.0058 49.2467 32.4817 48.0553 35.0971C47.2921 36.7725 46.1193 38.1872 44.9372 39.5834C44.5649 40.0208 44.1182 40.1791 43.5504 40.086C41.2049 39.7137 38.8686 39.7882 36.5231 40.086C35.974 40.1605 35.49 40.0953 35.099 39.6485C33.8146 38.1686 32.5767 36.6515 31.8135 34.8086C31.618 34.3246 31.4505 33.8313 31.3295 33.3193C30.9106 31.5695 31.1619 29.9221 32.3347 28.5259C33.1258 27.5765 34.0007 26.6923 34.885 25.8267C35.6761 25.0542 36.5324 24.3375 37.3515 23.5929C38.2171 22.7924 39.0827 22.0013 39.6412 20.9402C39.7156 20.8006 39.939 20.754 40.1717 20.6144L40.1717 20.6237ZM40.0228 27.7068C37.1747 27.6882 34.9408 29.9034 34.9315 32.7702C34.9222 35.7766 37.1095 38.0662 39.9949 38.0755C42.8989 38.0755 45.0861 35.8231 45.0954 32.7981C45.0954 29.9593 42.8709 27.7255 40.0228 27.7161V27.7068Z" fill="white"/>
<path d="M40.0228 27.6975C42.8709 27.7161 45.1047 29.95 45.0954 32.7795C45.0861 35.8045 42.8988 38.0662 39.9949 38.0569C37.1095 38.0569 34.9129 35.7579 34.9315 32.7516C34.9408 29.8848 37.1747 27.6789 40.0228 27.6882V27.6975Z" fill="#003A7B"/>
</svg>
