<svg width="80" height="80" viewBox="0 0 80 80" fill="none" xmlns="http://www.w3.org/2000/svg">
<path d="M39.9527 66.4989C24.8034 66.5179 13.5199 53.8062 13.5675 40.0375C13.6247 25.9832 24.87 13.5095 40.1432 13.5C55.9114 13.5 66.4807 26.6402 66.4331 40.247C66.3855 54.6156 54.8545 66.6322 39.9432 66.4989H39.9527ZM30.5927 48.6834C31.2211 49.0643 31.7925 49.3785 32.3352 49.7404C32.8684 50.0927 33.0303 50.6259 32.8303 51.121C32.6113 51.6352 32.1162 52.0066 31.583 51.959C31.2592 51.9304 30.9355 51.8161 30.6117 51.7495C30.2404 51.6638 29.869 51.5876 29.4596 51.5019C28.974 52.397 28.3265 53.0825 28.0884 54.1014C28.5836 54.5584 29.0978 54.9774 29.5358 55.4725C29.9738 55.9582 29.8119 56.7104 29.1835 56.9865C28.8502 57.1293 28.3931 57.1484 28.0503 57.0437C27.5552 56.8913 27.1172 56.5771 26.6125 56.3105C25.9555 56.8342 25.308 57.2817 25.1843 58.1387C25.3461 58.3482 25.4509 58.5291 25.6032 58.6529C26.0127 58.9956 26.4316 59.3289 26.8696 59.6336C31.1354 62.614 35.8964 63.8328 41.0668 63.6709C45.6087 63.5281 49.7127 62.1093 53.4643 59.586C54.0642 59.1861 54.7117 58.7957 54.9973 58.0815C54.4355 56.8913 54.4165 56.9008 53.4453 56.3486C52.9882 56.5866 52.5312 56.8627 52.036 57.0722C51.5028 57.3008 50.9981 57.1008 50.6553 56.5961C50.3697 56.1867 50.3792 55.7106 50.7506 55.3107C51.1886 54.8346 51.6647 54.3966 52.1693 53.8919C51.6361 53.0064 51.16 52.2256 50.6458 51.3781C50.0269 51.559 49.5318 51.74 49.0271 51.8542C48.3701 52.0066 47.8178 51.7114 47.5607 51.121C47.3512 50.6354 47.5036 50.0546 48.0083 49.7213C48.5034 49.3881 49.0366 49.131 49.6079 48.7977C49.5222 48.3597 49.5032 47.9598 49.3699 47.6075C49.0842 46.8743 49.0938 46.0268 48.551 45.3317C48.2844 45.3317 48.0273 45.3222 47.7702 45.3317C47.5036 45.3508 47.237 45.4174 46.9799 45.4079C46.3991 45.3888 45.9515 45.027 45.8087 44.4938C45.6373 43.8844 45.8944 43.2655 46.5038 42.9988C47.037 42.7608 47.6083 42.6275 48.3034 42.399C48.2082 40.9897 48.4177 39.6091 48.2273 38.1522C47.6845 37.9713 47.1798 37.8285 46.6847 37.6475C45.961 37.3714 45.6754 36.9048 45.7801 36.2859C45.923 35.4766 46.4847 35.0671 47.3703 35.1623C47.7512 35.2004 48.132 35.2956 48.5891 35.3813C49.0366 34.1911 49.4651 33.0961 49.5318 31.8773C49.2842 31.6868 49.0747 31.5154 48.8652 31.3726C48.6462 31.2203 48.3891 31.125 48.1796 30.9632C47.5607 30.5061 47.3893 29.9824 47.6655 29.4111C47.9892 28.735 48.5034 28.5446 49.3413 28.7826C49.7698 28.9064 50.1983 29.0397 50.6744 29.1826C51.3028 28.297 51.7218 27.4115 52.1122 26.4403C51.5885 25.9546 51.0743 25.5357 50.6173 25.0596C50.1412 24.5645 50.1983 23.9646 50.7029 23.4694C51.0743 23.1076 51.5028 22.9552 51.9789 23.2028C52.5502 23.4885 53.1025 23.8313 53.6928 24.1645C54.0261 23.7551 54.2927 23.4694 54.5117 23.1457C54.7593 22.7743 54.9592 22.3839 55.1592 22.0316C51.8456 18.5085 45.4278 16.0043 39.5052 16.2328C33.9063 16.4518 27.7742 18.8894 25.1652 22.0507C25.5175 22.8124 25.9555 23.5361 26.7554 24.0693C27.2981 23.7741 27.8028 23.4694 28.336 23.2219C28.8502 22.9838 29.3548 23.1743 29.7357 23.6694C30.0976 24.136 30.088 24.6882 29.6595 25.1262C29.2025 25.5833 28.7074 26.0023 28.2598 26.4117C28.774 27.713 29.3453 28.6303 29.9738 29.1635C30.4594 29.0017 30.9545 28.7922 31.4687 28.6779C32.0781 28.5446 32.6209 28.916 32.8684 29.5539C33.0779 30.0967 32.9256 30.5442 32.4114 30.9536C31.9067 31.3536 31.1354 31.4393 30.8307 32.2391C31.0497 33.2484 31.145 34.372 31.7258 35.3528C31.9829 35.3909 32.1829 35.4385 32.3733 35.4385C32.6399 35.4385 32.9065 35.3528 33.1731 35.3432C33.9539 35.3242 34.3919 35.6099 34.5348 36.2193C34.7062 36.9144 34.4015 37.4381 33.6207 37.7713C33.135 37.9713 32.6399 38.1332 32.1162 38.3331C32.0495 39.7804 31.821 41.1516 32.24 42.5037C32.7637 42.6751 33.2207 42.7798 33.6397 42.9703C34.4015 43.3131 34.6966 43.8749 34.5157 44.5604C34.3634 45.1603 33.9254 45.446 33.1446 45.465C32.6875 45.4745 32.0972 45.3127 31.802 45.5412C31.4401 45.8269 31.2783 46.4172 31.0974 46.9028C30.8974 47.4551 30.7641 48.0359 30.5832 48.693L30.5927 48.6834ZM22.9942 23.8598C22.5753 24.2407 22.2991 24.4216 22.0992 24.6692C17.481 30.3062 15.5862 36.6954 16.7859 43.932C17.4906 48.1883 19.2712 51.9494 22.1182 55.1964C22.3562 55.4725 22.7086 55.6535 23.1085 55.9486C23.4703 55.4345 23.756 55.025 24.1559 54.4347C23.6607 54.0347 23.2132 53.7396 22.8514 53.3587C22.4896 52.9873 22.5276 52.4827 22.8323 52.0732C23.1466 51.6543 23.6131 51.4829 24.0607 51.6733C24.6034 51.9018 25.1176 52.1875 25.6508 52.4541C26.4126 51.8828 26.603 51.1306 26.8792 50.3117C26.3174 49.9403 25.8127 49.6356 25.3461 49.2928C24.7748 48.8643 24.6796 48.3026 25.0224 47.7027C25.3271 47.179 25.7746 46.9885 26.3745 47.1694C26.8696 47.3218 27.3457 47.5027 27.8694 47.6931C28.536 46.7505 28.6693 45.8173 28.6502 44.7604C27.9837 44.5795 27.4029 44.4652 26.8411 44.2653C26.3745 44.0939 26.0793 43.7225 26.0793 43.1988C26.0793 42.6846 26.4983 42.1228 27.0029 42.0181C27.3172 41.9514 27.6599 41.9895 27.9932 41.98C28.3646 41.98 28.7454 41.98 29.1835 41.9705C29.3358 40.8564 29.4977 39.8947 29.0501 38.952C28.7931 38.933 28.5931 38.8949 28.3931 38.9044C28.1932 38.9044 28.0027 38.9806 27.8028 38.9901C27.5362 38.9997 27.2695 39.0187 27.0125 38.9806C26.5745 38.914 26.1841 38.4569 26.1174 38.0094C26.0507 37.5618 26.3174 37.0762 26.7078 36.8287C27.3267 36.4383 28.2027 36.6858 28.755 35.9241C28.6121 35.0195 28.555 34.0292 27.8504 33.1818C27.241 33.3436 26.6697 33.5246 26.0888 33.6293C25.6032 33.715 25.1462 33.4103 24.9843 32.9628C24.8034 32.4771 24.8796 32.0201 25.2604 31.6773C25.508 31.4583 25.8222 31.325 26.0984 31.1441C26.4221 30.9346 26.7363 30.7156 27.1267 30.449C26.822 29.8396 26.5554 29.3159 26.2793 28.7922C26.1555 28.5636 26.0031 28.3446 25.8603 28.1161C25.1938 28.4303 24.7177 28.6684 24.2321 28.8684C23.6036 29.1254 23.1942 29.0017 22.8419 28.4875C22.5086 28.0114 22.5562 27.5448 23.0323 27.0401C23.4322 26.6117 23.8702 26.2213 24.3463 25.7642C23.9083 25.1548 23.5274 24.6216 22.9847 23.8789L22.9942 23.8598ZM53.2834 30.5347C53.9214 30.9441 54.4355 31.2393 54.9212 31.5916C55.3401 31.8963 55.4734 32.3438 55.3306 32.839C55.1782 33.3436 54.626 33.6579 54.0547 33.5817C53.7976 33.5436 53.5405 33.4389 53.2834 33.3722C52.9787 33.296 52.674 33.2199 52.3217 33.1342C51.817 34.0578 51.5123 34.8957 51.6361 35.9146C51.9122 36.0288 52.1408 36.1336 52.3883 36.2097C52.6454 36.2954 52.912 36.3145 53.1596 36.4192C53.8261 36.6954 54.1404 37.2191 54.0451 37.8189C53.9404 38.4379 53.5024 38.7902 52.7502 38.8187C52.2455 38.8378 51.7313 38.8283 51.179 38.8378C50.96 39.9518 50.9029 40.9231 51.2171 41.9991C51.9122 41.9991 52.5692 41.9514 53.2072 42.0181C53.7214 42.0752 53.988 42.4942 54.1213 42.9798C54.2356 43.4083 53.988 43.913 53.5024 44.1129C52.9025 44.37 52.2836 44.5604 51.5504 44.8366C51.8075 45.8078 51.7504 46.76 52.5216 47.5694C53.0168 47.4265 53.5119 47.2551 54.0166 47.1409C54.6165 47.0076 55.1021 47.2647 55.3306 47.7884C55.5496 48.293 55.3877 48.8263 54.864 49.169C54.3689 49.4928 53.8547 49.7689 53.3215 50.0831C53.4262 51.1496 53.8357 51.9018 54.7117 52.4541C55.1402 52.178 55.521 51.9018 55.9305 51.6923C56.4732 51.4067 56.9969 51.559 57.3397 52.0351C57.6349 52.4446 57.6539 52.9397 57.3207 53.3301C57.016 53.6824 56.6541 53.9871 56.3399 54.3299C56.2637 54.4156 56.2733 54.5775 56.2161 54.806C56.5304 55.2059 56.7303 55.8058 57.5397 55.8725C58.9965 54.5203 60.0535 52.835 60.92 51.0258C65.3762 41.7324 64.3002 33.0104 58.111 24.8596C57.892 24.5645 57.5397 24.374 57.2255 24.1264C56.5589 24.6597 56.0352 25.1453 55.9019 25.9642C56.3494 26.3927 56.8065 26.7735 57.2064 27.2115C57.6159 27.6591 57.5778 28.2113 57.1874 28.6684C56.8446 29.0683 56.4256 29.1826 55.9305 28.9636C55.4639 28.7541 55.0069 28.497 54.5498 28.2589C53.8071 28.8779 53.5214 29.592 53.2834 30.5347Z" fill="#003A7B"/>
<path d="M30.5832 48.6834C30.7641 48.0264 30.8974 47.4456 31.0974 46.8933C31.2783 46.4077 31.4306 45.8173 31.802 45.5317C32.0876 45.3031 32.6875 45.465 33.1446 45.4555C33.9254 45.4365 34.3634 45.1508 34.5157 44.5509C34.6871 43.8653 34.4015 43.3035 33.6397 42.9608C33.2207 42.7703 32.7542 42.6656 32.24 42.4942C31.821 41.1516 32.0495 39.7709 32.1162 38.3236C32.6399 38.1332 33.135 37.9713 33.6207 37.7618C34.4015 37.4381 34.7062 36.9048 34.5348 36.2097C34.3824 35.6003 33.9539 35.3052 33.1731 35.3337C32.9065 35.3337 32.6399 35.4194 32.3733 35.4289C32.1828 35.4289 31.9829 35.3813 31.7258 35.3432C31.145 34.3625 31.0497 33.2389 30.8307 32.2296C31.1354 31.4202 31.9067 31.344 32.4114 30.9441C32.9256 30.5347 33.0779 30.0871 32.8684 29.5444C32.6209 28.9064 32.0781 28.5351 31.4687 28.6684C30.9545 28.7826 30.4594 28.9921 29.9738 29.154C29.3453 28.6208 28.774 27.7035 28.2598 26.4022C28.7074 26.0022 29.212 25.5833 29.6595 25.1167C30.088 24.6787 30.0976 24.1264 29.7357 23.6599C29.3548 23.1647 28.8502 22.9743 28.336 23.2123C27.8028 23.4599 27.2886 23.7741 26.7554 24.0598C25.9555 23.5266 25.527 22.8029 25.1652 22.0411C27.7742 18.8799 33.9063 16.4423 39.5052 16.2233C45.4183 15.9947 51.8361 18.499 55.1592 22.0221C54.9592 22.3744 54.7593 22.7743 54.5117 23.1362C54.2927 23.4599 54.0166 23.7551 53.6928 24.155C53.1025 23.8217 52.5502 23.479 51.9789 23.1933C51.5028 22.9552 51.0743 23.1076 50.7029 23.4599C50.1983 23.955 50.1412 24.5549 50.6173 25.0501C51.0743 25.5262 51.579 25.9451 52.1122 26.4307C51.7218 27.4115 51.3124 28.2875 50.6744 29.173C50.1983 29.0302 49.7698 28.8969 49.3413 28.7731C48.5034 28.5351 47.9987 28.735 47.6655 29.4016C47.3893 29.9634 47.5512 30.4871 48.1796 30.9536C48.3891 31.1155 48.6462 31.2107 48.8652 31.3631C49.0842 31.5059 49.2842 31.6773 49.5318 31.8677C49.4651 33.0865 49.0366 34.1816 48.5891 35.3718C48.132 35.2861 47.7512 35.1909 47.3703 35.1528C46.4847 35.0576 45.923 35.467 45.7801 36.2764C45.6659 36.8953 45.961 37.3524 46.6847 37.638C47.1703 37.8285 47.6845 37.9713 48.2273 38.1427C48.4272 39.5995 48.2082 40.9707 48.3034 42.3894C47.6083 42.618 47.037 42.7608 46.5038 42.9893C45.8944 43.2559 45.6373 43.8844 45.8087 44.4843C45.961 45.0175 46.3991 45.3793 46.9799 45.3984C47.2465 45.3984 47.5131 45.3317 47.7702 45.3222C48.0273 45.3031 48.2844 45.3222 48.551 45.3222C49.1033 46.0173 49.0937 46.8647 49.3699 47.5979C49.5032 47.9502 49.5222 48.3597 49.6079 48.7882C49.0366 49.1119 48.4939 49.3785 48.0083 49.7118C47.5036 50.0546 47.3417 50.6354 47.5607 51.1115C47.8178 51.7019 48.3796 51.997 49.0271 51.8447C49.5318 51.7209 50.0269 51.5495 50.6458 51.3686C51.16 52.216 51.6361 52.9968 52.1693 53.8824C51.6551 54.387 51.179 54.8251 50.7506 55.3011C50.3792 55.7011 50.3697 56.1772 50.6553 56.5866C50.9981 57.0913 51.5028 57.2912 52.036 57.0627C52.5216 56.8532 52.9787 56.5771 53.4453 56.339C54.4165 56.8913 54.426 56.8818 54.9973 58.072C54.7117 58.7862 54.0642 59.1766 53.4643 59.5765C49.7222 62.0998 45.6183 63.5185 41.0668 63.6614C35.8964 63.8232 31.1354 62.6044 26.8696 59.6241C26.4316 59.3194 26.0127 58.9861 25.6032 58.6433C25.4509 58.5195 25.3556 58.3386 25.1843 58.1292C25.308 57.2722 25.946 56.8151 26.6125 56.301C27.1172 56.5676 27.5552 56.8818 28.0503 57.0341C28.3931 57.1389 28.8502 57.1198 29.1835 56.977C29.8024 56.7104 29.9738 55.9582 29.5358 55.463C29.0978 54.9679 28.5741 54.5489 28.0884 54.0919C28.3265 53.073 28.974 52.397 29.4596 51.4924C29.869 51.5781 30.2404 51.6638 30.6117 51.74C30.9355 51.8161 31.2592 51.9209 31.583 51.9494C32.1067 51.997 32.6113 51.6257 32.8303 51.1115C33.0398 50.6164 32.8684 50.0831 32.3352 49.7308C31.7925 49.369 31.2211 49.0548 30.5927 48.6739L30.5832 48.6834Z" fill="white"/>
<path d="M22.9942 23.8694C23.5274 24.6121 23.9083 25.1358 24.3558 25.7547C23.8798 26.2117 23.4417 26.6117 23.0418 27.0306C22.5657 27.5353 22.5276 27.9923 22.8514 28.4779C23.2037 28.9921 23.6131 29.1159 24.2416 28.8588C24.7272 28.6589 25.1938 28.4208 25.8698 28.1066C26.0127 28.3351 26.165 28.5446 26.2888 28.7826C26.5649 29.3064 26.8315 29.8396 27.1362 30.4395C26.7458 30.7061 26.4221 30.9251 26.1079 31.1346C25.8317 31.3155 25.508 31.4488 25.27 31.6678C24.8796 32.0106 24.8129 32.4676 24.9938 32.9532C25.1557 33.4008 25.6127 33.715 26.0984 33.6198C26.6792 33.515 27.2505 33.3341 27.8599 33.1722C28.5645 34.0102 28.6217 35.01 28.7645 35.9146C28.2122 36.6763 27.3362 36.4383 26.7173 36.8191C26.3174 37.0667 26.0603 37.5523 26.1269 37.9999C26.1936 38.4474 26.584 38.8949 27.022 38.9711C27.2791 39.0092 27.5552 38.9996 27.8123 38.9806C28.0123 38.9711 28.2027 38.9044 28.4027 38.8949C28.6026 38.8949 28.7931 38.9235 29.0597 38.9425C29.5072 39.8947 29.3453 40.8564 29.193 41.961C28.755 41.961 28.3741 41.961 28.0027 41.9705C27.6695 41.9705 27.3362 41.9419 27.0125 42.0086C26.5078 42.1133 26.0888 42.6751 26.0888 43.1893C26.0888 43.713 26.384 44.0843 26.8506 44.2557C27.4029 44.4557 27.9837 44.57 28.6597 44.7509C28.6788 45.8078 28.5455 46.741 27.879 47.6836C27.3552 47.5027 26.8792 47.3123 26.384 47.1599C25.7841 46.979 25.3271 47.1694 25.0319 47.6931C24.6891 48.2835 24.7843 48.8548 25.3556 49.2833C25.8222 49.6356 26.3269 49.9403 26.8887 50.3022C26.603 51.121 26.4126 51.8733 25.6603 52.4446C25.1271 52.178 24.6129 51.8923 24.0702 51.6638C23.6131 51.4733 23.1561 51.6447 22.8419 52.0637C22.5372 52.4636 22.4991 52.9683 22.8609 53.3492C23.2227 53.73 23.6798 54.0347 24.1654 54.4251C23.756 55.0155 23.4703 55.4249 23.118 55.9391C22.7181 55.6439 22.3658 55.463 22.1277 55.1869C19.2807 51.9399 17.5001 48.1788 16.7955 43.9225C15.5957 36.6858 17.4906 30.2966 22.1087 24.6597C22.3086 24.4121 22.5848 24.2217 23.0037 23.8503L22.9942 23.8694Z" fill="white"/>
<path d="M53.2834 30.5442C53.5214 29.6015 53.8166 28.8779 54.5498 28.2685C55.0069 28.5065 55.4544 28.7636 55.9305 28.9731C56.4256 29.1921 56.8446 29.0778 57.1874 28.6779C57.5778 28.2209 57.6063 27.6686 57.2064 27.2211C56.8065 26.783 56.3494 26.3927 55.9019 25.9737C56.0352 25.1453 56.5589 24.6692 57.2255 24.136C57.5302 24.3835 57.8825 24.5835 58.111 24.8691C64.3002 33.0199 65.3762 41.742 60.92 51.0353C60.0535 52.8445 58.9965 54.5394 57.5397 55.882C56.7303 55.8153 56.5304 55.2154 56.2161 54.8155C56.2733 54.587 56.2637 54.4251 56.3399 54.3394C56.6541 53.9966 57.016 53.692 57.3207 53.3396C57.6539 52.9492 57.6349 52.4541 57.3397 52.0447C56.9874 51.5686 56.4732 51.4162 55.9305 51.7019C55.521 51.9114 55.1402 52.1875 54.7117 52.4636C53.8452 51.9114 53.4262 51.1591 53.3215 50.0927C53.8547 49.7784 54.3689 49.5023 54.864 49.1786C55.3877 48.8358 55.5496 48.3025 55.3306 47.7979C55.1021 47.2742 54.626 47.0171 54.0166 47.1504C53.5119 47.2647 53.0168 47.4361 52.5216 47.5789C51.7599 46.7695 51.8075 45.8173 51.5504 44.8461C52.2931 44.5795 52.912 44.3795 53.5024 44.1224C53.9785 43.913 54.2356 43.4178 54.1213 42.9893C53.9975 42.5132 53.7214 42.0847 53.2072 42.0276C52.5692 41.961 51.9122 42.0086 51.2171 42.0086C50.9124 40.9231 50.96 39.9614 51.179 38.8473C51.7313 38.8473 52.2455 38.8473 52.7502 38.8283C53.5024 38.7997 53.9404 38.4474 54.0451 37.8285C54.1404 37.2286 53.8261 36.7049 53.1596 36.4287C52.912 36.324 52.6454 36.305 52.3883 36.2193C52.1408 36.1431 51.9122 36.0288 51.6361 35.9241C51.5123 34.9052 51.817 34.0673 52.3217 33.1437C52.674 33.2294 52.9787 33.296 53.2834 33.3817C53.5405 33.4484 53.788 33.5531 54.0547 33.5912C54.626 33.6674 55.1878 33.3532 55.3306 32.8485C55.4829 32.3534 55.3496 31.9058 54.9212 31.6011C54.4355 31.2583 53.9214 30.9536 53.2834 30.5442Z" fill="white"/>
</svg>
