<svg width="80" height="80" viewBox="0 0 80 80" fill="none" xmlns="http://www.w3.org/2000/svg">
<g clip-path="url(#clip0_1193_16000)">
<path d="M37.1427 30.1132C36.7065 28.9864 36.2097 27.7384 35.7493 26.4662C35.3252 25.2667 34.8527 24.0672 34.5861 22.8313C34.1014 20.5897 35.0102 18.9783 37.1427 18.2028C38.0999 17.8514 39.0934 17.6091 40.087 17.4031C45.7332 16.1915 51.3916 15.0041 57.0378 13.8046C57.7042 13.6592 58.3706 13.5138 59.0491 13.5016C60.7454 13.4532 62.0782 14.4831 62.4417 16.0097C62.7567 17.4031 62.0661 18.845 60.6606 19.6204C60.1396 19.8991 59.5701 20.093 59.0128 20.2989C55.9837 21.4137 52.9425 22.5162 49.9255 23.6431C49.15 23.9339 48.2655 24.0914 47.7566 24.9032C47.6597 25.824 48.2534 26.5025 48.6532 27.2295C49.465 28.7198 50.4222 30.1375 51.1977 31.6399C51.8156 32.8394 52.4214 34.0874 52.7244 35.3839C53.2696 37.6981 52.6517 39.8306 50.7736 41.3573C49.3318 42.5325 47.7082 43.4655 46.133 44.4833C45.3697 44.9801 44.5458 44.9801 43.6976 44.6045C43.1524 44.3621 42.5829 44.1925 42.0256 43.9865C38.0272 42.5204 34.0409 42.6052 30.0546 44.0471C29.0974 44.3985 28.1402 44.7499 27.183 45.1012C24.0327 46.2281 20.8582 46.2886 17.6716 45.3436C16.363 44.9558 15.0666 44.5681 13.7701 44.1683C13.2612 44.0108 12.8614 43.6715 12.8372 43.0899C12.8129 42.5204 13.128 42.1085 13.6005 41.8661C15.0302 41.127 16.4721 40.3879 17.9382 39.7094C23.5602 37.0923 29.1943 34.4994 34.8163 31.8943C35.6523 31.5066 36.5974 31.2643 37.1548 30.1253L37.1427 30.1132Z" fill="#003A7B"/>
<path d="M9.48091 58.4777C11.4922 58.5262 13.552 59.0108 15.5633 59.7378C16.7629 60.1619 17.9624 60.5981 19.1862 60.9374C21.9002 61.7128 24.578 61.5068 27.2072 60.5496C28.4916 60.0892 29.7638 59.6167 31.036 59.132C34.1742 57.9567 37.3486 57.8719 40.5595 58.8049C41.9408 59.2047 43.322 59.6772 44.6548 60.2104C48.2171 61.6401 51.7551 61.7976 55.3294 60.271C56.3472 59.8348 57.3892 59.4592 58.4312 59.1078C62.054 57.8598 65.6162 58.0052 69.1179 59.5924C70.0508 60.0165 70.9474 60.5133 71.8804 60.9131C73.5403 61.628 75.2488 62.149 77.0662 61.4584C77.151 61.4341 77.2359 61.4099 77.3086 61.3978C78.6656 61.1433 79.4289 61.4463 79.9015 62.4035C80.3861 63.3849 80.0832 64.6086 79.0775 65.3356C78.5323 65.7233 77.8901 65.9899 77.248 66.1838C75.382 66.7411 73.5282 66.523 71.7471 65.8324C70.6445 65.3962 69.5662 64.8752 68.512 64.33C65.5435 62.7912 62.5144 62.5731 59.3884 63.7362C57.9586 64.2694 56.5168 64.8146 55.0628 65.2871C51.3673 66.4988 47.6961 66.3776 44.0854 64.8994C43.1403 64.5117 42.1831 64.1603 41.2259 63.7968C38.2453 62.6821 35.2404 62.5973 32.2234 63.603C31.0966 63.9786 29.9819 64.3905 28.8672 64.8146C24.7233 66.3776 20.5795 66.5351 16.4236 64.8388C15.7936 64.5844 15.1393 64.3784 14.5092 64.1482C11.1045 62.9002 7.68769 62.8518 4.27086 64.0634C3.71351 64.2573 3.15616 64.4754 2.57457 64.6329C1.45986 64.9237 0.648061 64.5965 0.187637 63.7241C-0.284903 62.8033 -0.127393 61.5916 0.648057 60.9131C1.02367 60.586 1.47197 60.2952 1.93239 60.1013C4.30721 59.132 6.77895 58.5141 9.50515 58.4898L9.48091 58.4777Z" fill="#003A7B"/>
<path d="M9.85653 48.518C11.4438 48.4453 13.1037 48.8088 14.7394 49.2935C15.7936 49.6085 16.8477 49.9599 17.8897 50.3234C20.9794 51.4139 24.057 51.3654 27.1224 50.2386C28.3219 49.8024 29.5215 49.3783 30.721 48.9421C34.4771 47.5851 38.221 47.6699 41.9529 48.9906C43.2372 49.4389 44.5094 49.9235 45.7938 50.3597C48.7986 51.4017 51.7914 51.3654 54.772 50.2143C55.8867 49.7903 56.9772 49.3298 58.104 48.93C61.8722 47.5608 65.592 47.5851 69.2269 49.4268C69.9902 49.8145 70.7293 50.2143 71.5048 50.5778C73.3344 51.4502 75.2124 51.8258 77.151 50.9413C77.3812 50.8323 77.6236 50.7353 77.8659 50.6748C78.6535 50.493 79.3926 50.8686 79.7682 51.5956C80.3619 52.7709 79.9863 54.1037 78.7383 54.9155C77.3449 55.8242 75.7819 56.2847 74.134 56.0181C72.9709 55.8242 71.8198 55.4729 70.7051 55.073C69.5904 54.6611 68.5242 54.1158 67.4579 53.5948C65.0346 52.4195 62.5629 52.2984 60.0184 53.1344C58.8916 53.51 57.7648 53.8977 56.6622 54.346C52.0943 56.2241 47.5628 56.1393 43.0312 54.237C42.801 54.1401 42.5466 54.0552 42.3164 53.9583C38.4634 52.2135 34.5982 52.1893 30.6846 53.7523C29.1943 54.346 27.6434 54.8307 26.0925 55.2669C23.5844 55.9575 21.04 55.8969 18.5319 55.1942C17.3081 54.8549 16.0844 54.4914 14.8727 54.0795C11.2742 52.8678 7.69981 52.8921 4.12547 54.1643C3.56811 54.3582 3.01076 54.5641 2.44129 54.7459C1.61737 55.0003 0.926736 54.7701 0.393614 54.1037C-0.115275 53.4615 -0.272785 52.7467 0.0180088 51.9591C0.296686 51.1837 0.878271 50.7111 1.60525 50.4082C4.19817 49.2935 6.87589 48.4938 9.86864 48.518H9.85653Z" fill="#003A7B"/>
<path d="M72.0379 34.2449C72.0016 38.8613 68.403 42.3629 63.6655 42.375C59.1582 42.3993 55.6565 38.7886 55.7171 34.1843C55.7777 29.4226 59.3278 25.824 63.8957 25.8967C68.5847 25.9694 72.0621 29.5438 72.0258 34.2328L72.0379 34.2449Z" fill="#003A7B"/>
</g>
<defs>
<clipPath id="clip0_1193_16000">
<rect width="80" height="80" fill="white"/>
</clipPath>
</defs>
</svg>
