<svg width="80" height="80" viewBox="0 0 80 80" fill="none" xmlns="http://www.w3.org/2000/svg">
<path d="M66.068 39.0602C66.0774 52.3288 58.1783 62.6447 46.6212 65.6445C31.4154 69.594 16.2097 59.4474 14.2067 43.8937C12.8902 33.7002 16.3225 25.218 24.3815 18.8988C33.9262 11.404 46.4425 12.0999 55.1597 18.5978C62.3723 23.9767 65.7577 31.3586 66.068 39.0602ZM30.4562 35.7031C30.6537 35.6561 30.7289 35.6561 30.776 35.6185C33.2209 33.8318 35.6659 32.0357 38.1108 30.2396C38.581 29.8917 38.7221 29.4215 38.7127 28.8573C38.6939 26.8825 38.6845 24.8983 38.7127 22.9235C38.7315 22.0866 38.3741 21.5694 37.6689 21.1933C35.9292 20.2529 34.1801 19.3219 32.4686 18.3251C31.7445 17.902 31.1239 17.9866 30.4186 18.3063C27.2496 19.7639 24.5601 21.8421 22.3033 24.4939C21.786 25.0958 21.5886 25.6976 21.7766 26.4781C22.2844 28.5281 22.7546 30.5875 23.206 32.6469C23.3659 33.3898 23.7984 33.766 24.4943 33.9729C26.5161 34.5465 28.5379 35.1483 30.4468 35.7031H30.4562ZM41.1388 21.7575C41.0166 24.2683 41.0824 26.7038 41.073 29.13C41.073 29.6284 41.3081 30.0045 41.703 30.296C44.054 31.9793 46.4143 33.6719 48.7652 35.3552C49.1602 35.6373 49.5833 35.7219 50.0723 35.5715C51.8308 35.0261 53.5987 34.4807 55.3666 33.9635C56.0813 33.7566 56.4574 33.3146 56.6173 32.5999C57.0781 30.4747 57.5482 28.3589 58.0654 26.243C58.2253 25.5942 58.0843 25.0864 57.6799 24.5974C55.3008 21.7857 52.4608 19.604 49.0567 18.1559C48.5395 17.9302 48.0505 17.9114 47.5521 18.1935C45.4833 19.3501 43.4145 20.4974 41.1482 21.7575H41.1388ZM44.778 48.7272C41.8253 48.7272 39.0606 48.746 36.2959 48.7178C35.4684 48.7178 34.9418 49.0658 34.5092 49.724C33.456 51.3132 32.384 52.9025 31.2932 54.4635C30.8324 55.1217 30.7477 55.7424 31.0957 56.4853C31.9796 58.3284 32.8354 60.1809 33.6535 62.0522C33.9732 62.7951 34.481 63.1995 35.2333 63.3782C38.5716 64.1587 41.8911 64.0928 45.2106 63.2841C45.8219 63.1337 46.292 62.8704 46.5553 62.2497C47.5051 60.0117 48.4831 57.7924 49.4893 55.4885C47.9095 53.2316 46.3767 51.0217 44.778 48.7366V48.7272ZM59.6923 53.0529C61.7987 49.7993 62.8895 46.2541 63.2845 42.455C63.3503 41.8625 63.0682 41.4488 62.6732 41.0726C61.1028 39.568 59.523 38.0729 57.9714 36.5495C57.4354 36.0323 56.8806 35.91 56.1753 36.1451C54.4826 36.6999 52.79 37.2359 51.0785 37.7343C50.3074 37.96 49.856 38.402 49.5927 39.1637C48.7746 41.5992 47.9189 44.0254 47.0537 46.4515C46.8563 46.997 46.8845 47.4765 47.2042 47.9467C48.4267 49.7428 49.6491 51.5483 50.8716 53.3444C51.2008 53.824 51.6521 54.0309 52.2258 53.9839C54.7177 53.7582 57.2097 53.5795 59.6829 53.0529H59.6923ZM33.1175 47.138C32.1489 44.4486 31.1521 41.7309 30.1929 38.9944C29.9767 38.3832 29.6287 37.9976 28.9987 37.8096C27.165 37.2641 25.3406 36.7093 23.5163 36.1357C22.9521 35.957 22.4913 36.0699 22.0776 36.4836C20.4977 38.0729 18.9085 39.6527 17.3099 41.2231C16.8397 41.6839 16.7457 42.2105 16.8021 42.8405C17.1406 46.1694 18.175 49.2632 19.8113 52.1784C20.2062 52.8837 20.7328 53.2316 21.5227 53.2974C23.6856 53.4949 25.8484 53.7488 28.0113 53.9651C28.1994 53.9839 28.3968 53.8993 28.5661 53.871C30.0049 52.2442 32.4122 48.699 33.1175 47.138Z" fill="#003A7B"/>
<path d="M30.4562 35.7031C28.5473 35.1483 26.5349 34.5465 24.5037 33.9729C23.8078 33.7754 23.3753 33.3898 23.2154 32.6469C22.764 30.5875 22.2938 28.5281 21.786 26.4781C21.5886 25.6882 21.786 25.0958 22.3126 24.4939C24.5789 21.8421 27.259 19.7639 30.428 18.3063C31.1333 17.9772 31.7539 17.902 32.478 18.3251C34.1895 19.3219 35.9292 20.2529 37.6783 21.1933C38.3835 21.5694 38.7409 22.0866 38.7221 22.9235C38.6845 24.8983 38.7033 26.8825 38.7221 28.8573C38.7221 29.4215 38.581 29.8917 38.1202 30.2396C35.6753 32.0357 33.2303 33.8224 30.7854 35.6185C30.7383 35.6561 30.6631 35.6561 30.4656 35.7031L30.4562 35.7031Z" fill="white"/>
<path d="M41.1388 21.7575C43.4051 20.4974 45.4739 19.3501 47.5427 18.1935C48.0505 17.9114 48.5301 17.9302 49.0473 18.1559C52.4421 19.604 55.2914 21.7857 57.6705 24.5974C58.0843 25.0864 58.2159 25.5942 58.056 26.243C57.5482 28.3495 57.0781 30.4747 56.6079 32.5999C56.448 33.3146 56.0719 33.7566 55.3572 33.9635C53.5893 34.4807 51.8308 35.0167 50.0629 35.5715C49.5739 35.7219 49.1508 35.6373 48.7558 35.3552C46.3955 33.6719 44.0446 31.9887 41.6936 30.296C41.2987 30.0139 41.0636 29.6284 41.0636 29.13C41.0636 26.7038 41.0072 24.2777 41.1294 21.7575L41.1388 21.7575Z" fill="white"/>
<path d="M44.778 48.7272C46.3767 51.0217 47.9095 53.2222 49.4893 55.4791C48.4925 57.783 47.5145 60.0023 46.5553 62.2403C46.292 62.8516 45.8219 63.1243 45.2106 63.2747C41.8911 64.0834 38.5716 64.1493 35.2333 63.3688C34.481 63.1901 33.9732 62.7857 33.6535 62.0429C32.8448 60.1715 31.9796 58.319 31.0957 56.4759C30.7383 55.733 30.823 55.1123 31.2932 54.4541C32.3934 52.8931 33.456 51.3038 34.5092 49.7146C34.9418 49.0658 35.4684 48.699 36.2959 48.7084C39.0606 48.7366 41.8253 48.7178 44.778 48.7178L44.778 48.7272Z" fill="white"/>
<path d="M59.6923 53.0529C57.2191 53.5795 54.7271 53.7582 52.2352 53.9839C51.6615 54.0309 51.2008 53.824 50.881 53.3444C49.6586 51.5483 48.4361 49.7428 47.2136 47.9467C46.8939 47.4765 46.8657 46.997 47.0631 46.4515C47.9283 44.0348 48.7746 41.5992 49.6021 39.1637C49.856 38.402 50.3074 37.96 51.0879 37.7343C52.7994 37.2359 54.4921 36.6999 56.1847 36.1451C56.89 35.91 57.4448 36.0229 57.9808 36.5495C59.5418 38.0729 61.1123 39.568 62.6827 41.0726C63.0776 41.4488 63.3597 41.8625 63.2939 42.455C62.8989 46.2447 61.8081 49.7993 59.7017 53.0529L59.6923 53.0529Z" fill="white"/>
<path d="M33.1269 47.138C32.4216 48.7084 30.0143 52.2536 28.5755 53.871C28.4062 53.8993 28.2088 53.9839 28.0207 53.9651C25.8578 53.7488 23.695 53.5043 21.5321 53.2974C20.7328 53.2222 20.2156 52.8837 19.8207 52.1784C18.175 49.2632 17.1406 46.1694 16.8115 42.8405C16.7457 42.2105 16.8397 41.6839 17.3193 41.2231C18.9179 39.6527 20.4977 38.0635 22.087 36.4836C22.5007 36.0699 22.9615 35.957 23.5257 36.1357C25.35 36.7093 27.1743 37.2641 29.0081 37.8096C29.6381 37.9976 29.986 38.3832 30.2023 38.9944C31.1615 41.7215 32.1583 44.4486 33.1269 47.138Z" fill="white"/>
</svg>
