<svg width="80" height="80" viewBox="0 0 80 80" fill="none" xmlns="http://www.w3.org/2000/svg">
<path d="M58.1299 30.1336C57.942 35.2086 55.4 40.2656 50.6741 44.2397C47.7742 46.6742 44.4177 48.151 40.6764 48.7686C39.1906 49.0103 37.7138 49.3236 36.2727 49.7532C33.6234 50.5408 31.4395 52.1161 29.4703 54.0047C29.2108 54.2464 28.9601 54.6133 28.9154 54.9445C28.8259 55.6695 28.4679 56.2423 28.0741 56.8062C26.1407 59.5898 24.1269 62.3287 22.3099 65.1839C21.397 66.616 19.6068 66.9919 18.1031 65.7478C17.2528 65.0497 16.9754 64.0561 17.3692 63.0447C17.5035 62.6957 17.7183 62.3824 17.9331 62.0691C19.9559 59.1154 21.9787 56.1707 24.0105 53.226C24.1895 52.9754 24.3775 52.6621 24.637 52.5458C25.4963 52.1698 25.7021 51.3911 25.9886 50.6214C27.2416 47.2739 27.4027 43.9085 26.4092 40.4625C25.9886 39.0215 25.6037 37.5447 25.4605 36.0499C24.637 27.6812 27.7787 21.0757 34.6527 16.3051C37.5079 14.327 40.7749 13.3782 44.2656 13.5125C50.1103 13.7273 54.1738 16.6989 56.671 21.8812C57.7182 24.0562 58.1478 26.5803 58.121 30.1426L58.1299 30.1336ZM33.4891 43.7474C34.2141 44.6961 35.1897 44.9378 36.1385 45.1616C36.3801 45.2153 36.7829 45.0542 36.953 44.8483C37.8659 43.7563 38.7789 42.6644 39.3607 41.2233C38.8147 40.6774 38.3134 40.1314 37.7585 39.648C37.5079 39.4243 37.1499 39.3079 36.765 39.0931C35.6372 40.7042 34.5721 42.2168 33.4891 43.7474ZM33.6323 35.7814C32.1197 37.3478 31.3589 39.0484 30.428 40.5879C31.2336 42.1184 31.3231 42.2168 32.3971 42.7449C33.5965 41.4202 35.1539 39.1289 35.6641 37.8669C35.0644 37.2493 34.4289 36.5959 33.6323 35.7814ZM43.8001 28.6568C42.6634 29.8383 41.8042 31.0824 41.2761 32.5771C41.9474 33.4095 42.5649 34.1793 43.5495 34.7342C43.8807 34.3314 44.3014 34.0092 44.4804 33.5796C44.9637 32.4518 45.9125 31.5568 46.1989 30.2589C45.3844 29.713 44.6146 29.2028 43.7912 28.6478L43.8001 28.6568ZM51.9988 20.3507C51.2291 19.4079 50.4295 18.7307 49.6001 18.3189C48.9556 18.7307 48.7408 19.4825 48.347 20.0911C47.9084 20.7624 47.5325 21.4695 47.1387 22.1229C48.3917 23.546 48.4723 23.5997 49.7433 24.0115C50.5936 22.9016 51.3096 21.6843 51.9988 20.3507ZM28.799 51.1405C29.6672 50.5408 30.5444 49.9591 31.3857 49.3415C32.2629 48.706 33.3728 48.4375 34.2499 47.5514C33.4175 47.1038 32.6925 46.7548 32.0212 46.3251C31.3052 45.8687 30.6339 45.3406 29.7657 44.714C29.6672 45.4032 29.6046 45.8687 29.5419 46.3341C29.4614 46.889 29.3987 47.444 29.2913 47.9989C29.2018 48.4912 29.0497 48.9655 28.9691 49.4578C28.8886 49.977 28.3515 50.4424 28.7901 51.1316L28.799 51.1405ZM37.8212 37.6252C38.7162 38.4845 39.2354 39.4422 40.3721 39.7734C41.2224 38.6277 42.1174 37.6073 42.6276 36.2468C41.8131 35.5219 41.2671 34.5999 40.2647 34.0361C39.9246 34.4478 39.6202 34.7611 39.3875 35.1101C38.8773 35.8888 38.403 36.6854 37.8212 37.6252ZM34.3931 34.403C35.1718 35.0922 35.6462 35.9873 36.6218 36.3274C37.8212 35.137 38.4119 34.233 38.9937 32.6845C38.3671 31.9864 37.7406 31.2435 36.7202 30.7602C35.9326 31.9864 35.2076 33.1321 34.3931 34.412V34.403ZM37.7048 29.2386C38.4566 30.0352 38.9937 30.8676 40.023 31.2882C40.9896 30.1784 41.7236 29.0059 42.2964 27.6364C41.5267 27.0188 40.8196 26.446 40.0678 25.8374C38.9758 26.7772 38.4209 27.9587 37.6959 29.2386H37.7048ZM44.355 26.9204C45.0263 27.9676 45.9125 28.4062 46.9239 28.988C47.622 27.8602 48.5618 26.9472 48.6782 25.4436C47.8995 24.9423 47.3177 24.1905 46.3421 23.8951C45.2859 24.647 45.0801 25.8911 44.3461 26.9204H44.355ZM46.002 39.9882C45.1427 39.1379 44.543 38.3502 43.6032 37.8669C42.6455 38.7172 42.1353 39.7644 41.5983 40.8385C42.2338 41.7962 42.9409 42.5928 44.1582 42.9687C44.7757 41.9752 45.3575 41.0443 46.0109 39.9971L46.002 39.9882ZM45.1338 22.821C44.2835 22.114 43.6122 21.4874 42.6634 21.1025C41.8579 22.1856 41.0613 23.197 40.6943 24.5037C41.4909 25.1124 42.1353 25.7926 43.102 26.1596C43.8807 25.1482 44.5341 24.101 45.1338 22.821ZM35.6283 29.8025C35.0644 28.9432 34.3305 28.4241 33.4712 27.9408C32.4956 29.0238 31.8154 30.1873 31.1441 31.4046C31.7617 32.1565 32.3076 32.8814 33.2922 33.2037C34.1694 32.1027 35.0017 31.0287 35.6283 29.8025ZM39.6292 23.4118C40.2468 22.463 40.7927 21.6396 41.3208 20.8072C41.5446 20.4581 41.5536 20.0732 41.2761 19.7689C40.6943 19.1513 40.1483 18.4711 39.1996 18.2115C38.4656 19.4019 37.8301 20.5834 37.2483 21.7917C37.9196 22.5257 38.582 23.0359 39.6381 23.4207L39.6292 23.4118ZM30.3117 32.8725C28.0383 35.3786 27.904 36.3363 29.5509 38.9141C30.7145 37.6342 31.4753 36.1842 32.3256 34.7432C31.7617 34.0003 31.1262 33.4274 30.3117 32.8814V32.8725ZM43.5764 19.572C44.355 20.3059 44.9279 20.9504 45.8945 21.2458C46.888 20.1001 47.6936 18.9007 48.2664 17.4686C47.3982 16.8421 46.5927 16.4572 45.5365 16.6094C44.9189 17.5402 44.3013 18.4711 43.5764 19.572ZM34.1962 26.5266C34.8048 27.0546 35.2524 27.4843 35.7357 27.8602C35.9505 28.0213 36.2638 28.0661 36.5591 28.1645C37.302 27.0367 38.027 26.0432 38.5283 24.8707C37.8928 24.1636 37.3379 23.5192 36.3801 23.2059C35.5477 24.2084 34.9301 25.2735 34.1873 26.5266H34.1962ZM53.2071 26.9562C53.9411 26.5355 54.2543 25.9179 54.5408 25.3182C54.675 25.0318 54.6303 24.5843 54.5139 24.2621C54.2633 23.5639 53.9321 22.8927 53.592 22.2303C53.4667 21.9797 53.225 21.7917 52.9655 21.4964C52.0704 22.6241 51.5692 23.8056 50.9874 25.005C51.2201 25.2645 51.3991 25.5152 51.6318 25.7121C52.151 26.1417 52.688 26.5445 53.2161 26.9562H53.2071ZM50.7726 31.4136C51.0411 31.0466 51.247 30.8139 51.4081 30.5543C52.3151 29.0267 52.0346 27.7737 50.5667 26.7951C50.4772 26.7324 50.3251 26.7682 50.2087 26.7593C48.9556 28.075 48.714 28.5136 48.4365 29.9815C49.0541 30.5722 49.797 31.0018 50.7815 31.4046L50.7726 31.4136ZM46.9149 38.4755C47.5772 37.6789 48.159 36.9002 48.4097 35.7904C47.7563 35.0833 47.1118 34.3583 46.1362 33.9734C45.2412 34.5731 44.7131 35.3518 44.4804 36.3901C45.2412 37.1687 45.8409 38.037 46.9239 38.4755H46.9149ZM28.7185 29.3639C29.0139 29.9636 29.3987 30.3216 30.0879 30.3842C30.3385 30.0441 30.625 29.7219 30.8398 29.3549C31.3141 28.5673 31.7616 27.7617 32.2181 26.9562C31.6811 26.2849 31.2336 25.7121 30.3922 25.542C29.354 26.6698 28.987 28.0213 28.7095 29.3639H28.7185ZM33.5339 21.1204C32.0481 22.3825 31.7437 22.7852 31.2962 24.1368C31.8512 24.638 32.3076 25.3272 33.2385 25.3988C33.9635 24.4411 34.5453 23.4386 35.0107 22.4093C34.7153 21.7201 34.2051 21.3979 33.5339 21.1204ZM40.5511 42.2705C39.8529 43.4162 39.0564 44.2486 38.5641 45.4748C40.211 45.7255 41.652 45.7255 42.9498 44.7767C43.0214 44.723 43.0214 44.5529 43.0841 44.2934C42.368 43.7205 41.5983 43.1119 40.5511 42.2705ZM53.78 29.3997C53.055 30.3842 52.4016 31.2703 52.2494 32.3623C52.9774 33.0724 53.7084 33.4423 54.4423 33.4722C54.7735 32.7651 55.0331 32.0043 55.1226 31.1898C55.2389 30.1336 55.1942 30.0531 53.771 29.3997H53.78ZM49.618 41.0622C50.5399 40.3641 51.238 39.6838 51.5871 38.6814C50.9426 38.1175 50.4593 37.4552 49.6269 37.1956C48.884 37.8937 48.3739 38.6545 48.0427 39.5227C48.3739 40.2477 48.9198 40.6326 49.618 41.0712V41.0622ZM52.4463 37.3478C53.2161 36.7839 53.4846 36.0052 53.6994 35.128C52.9923 34.4925 52.4105 33.7765 51.3454 33.5885C50.9785 34.2598 50.6294 34.8953 50.2714 35.5487C50.8621 36.408 51.5513 36.9718 52.4463 37.3567V37.3478ZM48.9825 34.6984C49.618 34.1256 50.0207 33.6691 50.0476 32.9978C48.884 31.8074 48.8124 31.7626 47.4609 31.333C46.4405 32.8456 46.4584 33.0336 47.81 34.0092C48.159 34.2598 48.5439 34.4388 48.9914 34.6984H48.9825ZM40.4437 16.9674C40.8285 17.8625 41.5536 18.1847 42.2248 18.5785C43.0185 17.8625 43.457 17.1404 43.5406 16.4125C42.4665 16.2514 41.464 16.4214 40.4526 16.9674H40.4437ZM48.3917 42.1363C48.1053 41.4829 47.7384 41.1249 47.1208 41.1159C46.4047 42.0229 45.9841 42.8673 45.8588 43.6489C47.076 43.3625 47.2282 43.273 48.3828 42.1363H48.3917ZM35.7536 21.0309C37.2125 19.393 37.2573 19.3214 37.4273 18.1489C36.3354 18.6143 35.4045 19.1513 34.6348 20.1359C35.0107 20.4402 35.3329 20.6908 35.7536 21.0309ZM29.0407 31.9595C28.9691 31.8342 28.8706 31.6821 28.7811 31.5299C28.6021 31.6642 28.3963 31.7805 28.253 31.9416C28.1904 32.0043 28.2262 32.1923 28.262 32.2997C28.2978 32.4071 28.4141 32.5861 28.4679 32.5771C28.629 32.5413 28.799 32.4608 28.9243 32.3534C29.0049 32.2818 28.9959 32.1206 29.0407 31.9506V31.9595ZM54.6571 27.9497C54.7914 28.0213 54.9346 28.0929 55.0688 28.1556C55.1225 28.0571 55.2389 27.9049 55.212 27.8602C55.1225 27.7438 54.9704 27.6633 54.8451 27.5738C54.7914 27.6722 54.7466 27.7796 54.6571 27.9408V27.9497Z" fill="#003A7B"/>
<path d="M50.6294 53.4498C52.8759 55.4726 53.4309 57.8803 52.2673 60.458C52.0883 60.8608 51.8287 61.2188 51.6587 61.6306C51.5692 61.8454 51.5871 62.1139 51.6139 62.3555C51.6408 62.633 52.142 62.8926 52.3479 62.7225C52.6343 62.4898 52.9386 62.2392 53.1087 61.9259C54.5945 59.2855 54.6124 56.663 52.8938 54.1032C52.5448 53.584 52.1509 53.1007 51.7124 52.51C51.963 52.2862 52.142 52.0356 52.3926 51.9103C56.5636 49.8696 61.4416 52.2235 62.5783 56.8241C63.1601 59.1781 62.6052 61.2994 61.2268 63.2416C61.1194 63.3938 60.9672 63.5191 60.8151 63.6176C60.7166 63.6802 60.5823 63.6892 60.466 63.725C57.8703 61.004 57.0648 58.65 58.9802 54.7386C58.479 54.3269 58.1926 54.2643 57.942 54.5775C57.7092 54.8639 57.4765 55.1772 57.3423 55.5173C56.3398 58.0861 56.5188 60.5565 58.0762 62.8747C58.4611 63.4386 58.9086 63.9666 59.4098 64.6111C59.016 64.9243 58.7385 65.2645 58.3716 65.4256C55.5969 66.6876 52.1778 65.8821 50.146 63.5191C47.6757 60.6549 47.6936 56.5556 50.1908 53.6825C50.2624 53.593 50.4056 53.5661 50.6204 53.4408L50.6294 53.4498Z" fill="#003A7B"/>
<path d="M33.4891 43.7384C34.5632 42.2079 35.6283 40.6953 36.765 39.0842C37.1499 39.299 37.5079 39.4153 37.7585 39.6391C38.3134 40.1314 38.8147 40.6774 39.3607 41.2144C38.7878 42.6554 37.8749 43.7563 36.953 44.8394C36.7829 45.0363 36.3801 45.2063 36.1385 45.1526C35.1897 44.9289 34.2141 44.6872 33.4891 43.7384Z" fill="white"/>
<path d="M33.6323 35.7725C34.42 36.587 35.0644 37.2404 35.6641 37.8579C35.1539 39.12 33.5965 41.4113 32.3971 42.736C31.3231 42.2079 31.2336 42.1094 30.428 40.5789C31.3589 39.0394 32.1197 37.3388 33.6323 35.7725Z" fill="white"/>
<path d="M43.8001 28.6478C44.6236 29.1938 45.3844 29.713 46.2078 30.2589C45.9303 31.5568 44.9727 32.4518 44.4893 33.5796C44.3103 34.0092 43.8896 34.3314 43.5585 34.7342C42.565 34.1703 41.9563 33.4095 41.285 32.5771C41.8131 31.0824 42.6724 29.8293 43.8091 28.6568L43.8001 28.6478Z" fill="white"/>
<path d="M51.9988 20.3418C51.3096 21.6754 50.5936 22.8927 49.7433 24.0025C48.4723 23.5908 48.3917 23.5371 47.1387 22.114C47.5235 21.4606 47.9084 20.7535 48.347 20.0822C48.7498 19.4735 48.9556 18.7128 49.6001 18.31C50.4295 18.7217 51.2291 19.399 51.9988 20.3418Z" fill="white"/>
<path d="M28.799 51.1316C28.3605 50.4424 28.8885 49.977 28.978 49.4578C29.0586 48.9655 29.2108 48.4912 29.3003 47.9989C29.3987 47.444 29.4703 46.889 29.5509 46.3341C29.6135 45.8687 29.6762 45.4032 29.7746 44.714C30.6428 45.3406 31.3141 45.8687 32.0302 46.3251C32.7015 46.7548 33.4264 47.0949 34.2588 47.5514C33.3817 48.4285 32.2629 48.697 31.3947 49.3415C30.5533 49.9591 29.6762 50.5319 28.808 51.1405L28.799 51.1316Z" fill="white"/>
<path d="M37.8212 37.6163C38.403 36.6854 38.8773 35.8799 39.3875 35.1012C39.6202 34.7432 39.9246 34.4388 40.2647 34.0271C41.2671 34.591 41.8131 35.5129 42.6276 36.2379C42.1174 37.5894 41.2224 38.6187 40.3721 39.7644C39.2354 39.4422 38.7162 38.4755 37.8212 37.6163Z" fill="white"/>
<path d="M34.3931 34.403C35.2076 33.1321 35.9415 31.9864 36.7202 30.7512C37.7406 31.2345 38.3671 31.9774 38.9937 32.6756C38.4119 34.224 37.8212 35.128 36.6218 36.3184C35.6462 35.9783 35.1718 35.0922 34.3931 34.3941V34.403Z" fill="white"/>
<path d="M37.7048 29.2296C38.4298 27.9497 38.9847 26.7682 40.0767 25.8284C40.8285 26.4371 41.5356 27.0099 42.3054 27.6275C41.7326 28.9969 40.9897 30.1784 40.0319 31.2793C39.0026 30.8586 38.4656 30.0262 37.7138 29.2296H37.7048Z" fill="white"/>
<path d="M44.355 26.9114C45.089 25.8821 45.2949 24.6291 46.351 23.8862C47.3177 24.1815 47.9084 24.9334 48.6871 25.4346C48.5708 26.9383 47.622 27.8512 46.9328 28.979C45.9214 28.3972 45.0353 27.9587 44.364 26.9114H44.355Z" fill="white"/>
<path d="M46.0109 39.9792C45.3575 41.0175 44.7757 41.9573 44.1582 42.9508C42.9409 42.5749 42.2338 41.7783 41.5983 40.8206C42.1353 39.7465 42.6544 38.7082 43.6032 37.849C44.543 38.3323 45.1517 39.12 46.002 39.9703L46.0109 39.9792Z" fill="white"/>
<path d="M45.1338 22.8121C44.5341 24.092 43.8896 25.1392 43.102 26.1506C42.1353 25.7926 41.4998 25.1034 40.6943 24.4948C41.0613 23.188 41.8579 22.1766 42.6634 21.0936C43.6122 21.4695 44.2835 22.0961 45.1338 22.8121Z" fill="white"/>
<path d="M35.6372 29.7935C35.0107 31.0287 34.1873 32.0938 33.3012 33.1947C32.3166 32.8725 31.7616 32.1475 31.153 31.3957C31.8243 30.1784 32.5045 29.0148 33.4802 27.9318C34.3394 28.4151 35.0734 28.9343 35.6372 29.7935Z" fill="white"/>
<path d="M39.6292 23.4028C38.573 23.018 37.9107 22.5078 37.2394 21.7738C37.8301 20.5655 38.4567 19.393 39.1906 18.1936C40.1483 18.4532 40.6943 19.1334 41.2671 19.751C41.5446 20.0553 41.5356 20.4402 41.3119 20.7893C40.7838 21.6217 40.2378 22.4451 39.6202 23.3939L39.6292 23.4028Z" fill="white"/>
<path d="M30.3117 32.8635C31.1262 33.4185 31.7617 33.9824 32.3255 34.7253C31.4752 36.1752 30.7144 37.6252 29.5509 38.8962C27.9129 36.3184 28.0382 35.3697 30.3117 32.8546V32.8635Z" fill="white"/>
<path d="M43.5764 19.5631C44.3013 18.4621 44.9189 17.5313 45.5365 16.6004C46.5927 16.4483 47.4072 16.8331 48.2664 17.4597C47.6936 18.8828 46.8791 20.0911 45.8945 21.2368C44.9368 20.9504 44.364 20.297 43.5764 19.5631Z" fill="white"/>
<path d="M34.1873 26.5266C34.9212 25.2735 35.5388 24.2084 36.3801 23.2059C37.3289 23.5192 37.8838 24.1636 38.5283 24.8707C38.036 26.0432 37.302 27.0367 36.5591 28.1645C36.2638 28.0571 35.9505 28.0213 35.7357 27.8602C35.2434 27.4932 34.7959 27.0636 34.1962 26.5266H34.1873Z" fill="white"/>
<path d="M53.1982 26.9472C52.6701 26.5355 52.1331 26.1327 51.6139 25.7031C51.3812 25.5152 51.2022 25.2556 50.9695 24.996C51.5602 23.7967 52.0525 22.6152 52.9476 21.4874C53.1982 21.7738 53.4488 21.9707 53.5741 22.2214C53.9142 22.8837 54.2454 23.555 54.496 24.2531C54.6124 24.5754 54.6661 25.0229 54.5229 25.3093C54.2364 25.909 53.9142 26.5266 53.1892 26.9472H53.1982Z" fill="white"/>
<path d="M50.7636 31.4046C49.788 30.9929 49.0362 30.5633 48.4186 29.9815C48.6961 28.5046 48.9467 28.075 50.1908 26.7593C50.3161 26.7682 50.4593 26.7324 50.5488 26.7951C52.0107 27.7677 52.2912 29.0208 51.3902 30.5543C51.238 30.8139 51.0322 31.0466 50.7547 31.4136L50.7636 31.4046Z" fill="white"/>
<path d="M46.906 38.4666C45.8229 38.028 45.2233 37.1598 44.4625 36.3811C44.6952 35.3428 45.2322 34.5552 46.1183 33.9645C47.0939 34.3493 47.7384 35.0743 48.3917 35.7814C48.1411 36.9002 47.5594 37.67 46.897 38.4666H46.906Z" fill="white"/>
<path d="M28.7095 29.3549C28.987 28.0124 29.345 26.6608 30.3922 25.5331C31.2336 25.7121 31.6811 26.2849 32.2181 26.9472C31.7616 27.7528 31.3141 28.5583 30.8398 29.346C30.625 29.713 30.3385 30.0352 30.0879 30.3753C29.3987 30.3126 29.0139 29.9546 28.7185 29.3549H28.7095Z" fill="white"/>
<path d="M33.5339 21.1115C34.2051 21.389 34.7153 21.7112 35.0107 22.4004C34.5453 23.4297 33.9724 24.4232 33.2385 25.3898C32.3076 25.3182 31.8512 24.6291 31.2962 24.1278C31.7437 22.7852 32.0481 22.3735 33.5339 21.1115Z" fill="white"/>
<path d="M40.5421 42.2616C41.5983 43.103 42.3591 43.7116 43.0751 44.2844C43.0035 44.544 43.0125 44.7051 42.9409 44.7677C41.643 45.7165 40.211 45.7165 38.5551 45.4659C39.0474 44.2397 39.835 43.4073 40.5421 42.2616Z" fill="white"/>
<path d="M53.78 29.3818C55.1942 30.0352 55.2478 30.1157 55.1315 31.1719C55.042 31.9864 54.7824 32.7472 54.4513 33.4543C53.7233 33.4185 52.9923 33.0485 52.2584 32.3444C52.4105 31.2524 53.0639 30.3663 53.7889 29.3818H53.78Z" fill="white"/>
<path d="M49.618 41.0443C48.9198 40.6058 48.3739 40.2209 48.0427 39.4959C48.3828 38.6277 48.884 37.8758 49.6269 37.1687C50.4593 37.4194 50.9426 38.0907 51.5871 38.6545C51.238 39.6659 50.5399 40.3372 49.618 41.0354V41.0443Z" fill="white"/>
<path d="M52.4463 37.3299C51.5423 36.945 50.8621 36.3811 50.2714 35.5219C50.6294 34.8774 50.9785 34.2419 51.3454 33.5617C52.4105 33.7496 52.9923 34.4657 53.6994 35.1012C53.4846 35.9783 53.2161 36.757 52.4463 37.3209V37.3299Z" fill="white"/>
<path d="M48.9825 34.6805C48.5439 34.4209 48.1501 34.2419 47.801 33.9913C46.4495 33.0247 46.4316 32.8277 47.452 31.3151C48.8035 31.7447 48.8751 31.7895 50.0386 32.9799C50.0118 33.6422 49.609 34.0987 48.9735 34.6805H48.9825Z" fill="white"/>
<path d="M40.4437 16.9495C41.464 16.4035 42.4575 16.2335 43.5316 16.3946C43.4481 17.1225 43.0095 17.8446 42.2159 18.5606C41.5535 18.1668 40.8196 17.8446 40.4347 16.9495H40.4437Z" fill="white"/>
<path d="M48.3917 42.1184C47.2371 43.2551 47.085 43.3446 45.8677 43.631C45.987 42.8434 46.4077 41.9991 47.1297 41.098C47.7473 41.107 48.1143 41.474 48.4007 42.1184H48.3917Z" fill="white"/>
<path d="M35.7536 21.0041C35.3329 20.6729 35.0107 20.4134 34.6348 20.109C35.4045 19.1245 36.3354 18.5785 37.4273 18.122C37.2573 19.2945 37.2125 19.3661 35.7536 21.0041Z" fill="white"/>
<path d="M29.0407 31.9327C28.9959 32.1027 28.9959 32.2639 28.9243 32.3355C28.799 32.4429 28.629 32.5234 28.4679 32.5592C28.4141 32.5682 28.2978 32.3892 28.262 32.2818C28.2262 32.1654 28.1904 31.9864 28.253 31.9237C28.3963 31.7626 28.6021 31.6463 28.7811 31.512C28.8706 31.6642 28.9691 31.8163 29.0407 31.9416V31.9327Z" fill="white"/>
<path d="M54.6571 27.9228C54.7377 27.7617 54.7914 27.6543 54.8451 27.5559C54.9704 27.6454 55.1225 27.7259 55.212 27.8423C55.2389 27.8781 55.1225 28.0303 55.0688 28.1377C54.9346 28.0661 54.7914 27.9945 54.6571 27.9318V27.9228Z" fill="white"/>
</svg>
