<svg width="80" height="80" viewBox="0 0 80 80" fill="none" xmlns="http://www.w3.org/2000/svg">
<path d="M15.6329 44.898C15.8529 43.8681 16.0128 42.8283 16.3128 41.8184C20.0022 29.6503 27.581 20.9917 39.4792 16.2924C41.3589 15.5525 43.3886 15.1825 45.3483 14.6326C46.0882 14.4227 46.7281 14.5626 47.288 15.1026C47.338 15.1526 47.398 15.1925 47.448 15.2425C53.2871 20.5217 58.8962 26.0109 63.1056 32.7498C64.3654 34.7695 64.4054 34.7695 63.7855 37.0392C60.266 49.8972 52.2872 58.7958 39.9491 63.785C38.5294 64.365 36.9996 64.6749 35.5298 65.1448C34.7199 65.4048 34.02 65.2848 33.3801 64.7249C32.5303 63.985 31.6304 63.3051 30.8105 62.5552C28.5809 60.5156 26.3512 58.4859 24.1816 56.3862C21.352 53.6566 18.8024 50.6571 16.5828 47.4076C16.0728 46.6577 15.5029 45.9078 15.6429 44.888L15.6329 44.898ZM28.4709 48.3474C27.791 49.1973 27.1811 49.8772 26.6712 50.6271C26.2113 51.297 26.6512 52.2368 27.461 52.4268C27.911 52.5368 28.2709 52.3368 28.6109 52.0569C29.2408 51.5469 29.6507 50.7371 30.5806 50.4971C31.2805 51.137 31.9204 51.7769 32.6203 52.3568C33.2102 52.8467 33.7401 52.7967 34.28 52.2068C34.5 51.9669 34.6199 51.6169 34.8399 51.207C34.04 50.2271 33.2602 49.2673 32.3703 48.1775C33.3801 47.2576 33.9701 46.0278 35.2899 45.4579C35.9598 46.0478 36.5697 46.6277 37.2296 47.1476C37.9295 47.7075 38.3794 47.6475 39.0293 46.9177C39.2092 46.7177 39.2992 46.4377 39.4292 46.2078C39.0393 44.908 37.6895 44.358 37.1096 43.1582C37.8795 42.3184 38.4794 41.3785 39.5092 40.9686C40.669 41.5485 41.2189 42.8083 42.4488 43.0482C42.6287 42.9683 42.7787 42.9483 42.8787 42.8583C43.8685 41.8984 43.8985 41.5685 43.0687 40.5686C42.5887 39.9887 42.0688 39.4288 41.5389 38.8189C42.1488 38.009 42.5787 37.2191 43.5386 36.7792C43.8085 36.9992 44.0885 37.1992 44.3384 37.4291C44.7484 37.8091 45.1283 38.229 45.5583 38.5889C46.1582 39.0789 46.6881 39.0289 47.238 38.499C47.7379 38.009 47.8379 37.5491 47.448 37.0092C46.8381 36.1693 46.1682 35.3794 45.4983 34.5396C46.4081 33.5297 47.088 32.4799 48.2778 31.91C49.0277 32.5899 49.6776 33.2198 50.3875 33.7997C50.9874 34.2896 51.5174 34.2296 52.0773 33.7097C52.7072 33.1198 52.7472 32.5599 52.2172 31.86C51.6373 31.0901 50.7375 30.5802 50.2875 29.5803C50.9074 28.8804 51.5373 28.2305 52.0973 27.5306C52.5672 26.9407 52.4872 26.3608 51.9673 25.8309C51.4773 25.331 50.9674 25.351 50.2976 25.8809C49.6077 26.4408 49.1177 27.2507 48.1778 27.6506C47.7279 27.2507 47.318 26.8807 46.9081 26.5208C46.5381 26.2008 46.1882 25.8509 45.7982 25.5609C45.3483 25.231 44.9284 25.301 44.4684 25.7009C43.7885 26.3008 43.6986 26.8308 44.2585 27.5206C44.8784 28.2705 45.5583 28.9704 46.3182 29.8203C45.3683 30.8201 44.6484 31.91 43.4386 32.6499C42.9687 32.2299 42.5587 31.86 42.1388 31.49C41.7689 31.1601 41.4189 30.8201 41.029 30.5202C40.559 30.1702 40.1391 30.1902 39.6792 30.5402C38.9193 31.1201 38.8293 31.76 39.4692 32.5099C39.8791 32.9898 40.3591 33.4097 40.779 33.8797C41.039 34.1696 41.2489 34.5196 41.5089 34.8695C40.839 35.6194 40.3191 36.3593 39.3792 36.7992C38.6293 36.1193 37.9294 35.4394 37.1896 34.8095C36.4997 34.2196 35.9897 34.2996 35.3998 35.0195C34.9599 35.5594 34.9099 35.9893 35.3599 36.5293C36.0198 37.3291 36.7296 38.079 37.4395 38.8789C36.7896 39.8587 36.0797 40.5986 35.1899 41.2185C34.22 40.7686 33.6501 39.9287 32.8902 39.3388C32.2503 38.8489 31.8104 38.8989 31.2405 39.4988C30.7005 40.0787 30.6506 40.5586 31.1405 41.1785C31.5304 41.6685 32.0004 42.0984 32.4103 42.5783C32.6703 42.8783 32.8802 43.2182 33.1302 43.5682C32.1903 44.558 31.4305 45.5679 30.3006 46.2678C29.8407 45.8578 29.4208 45.4879 29.0108 45.1179C28.6409 44.788 28.3009 44.428 27.911 44.1381C27.3311 43.6882 26.7312 43.7981 26.2512 44.378C25.8013 44.918 25.7813 45.4979 26.3013 46.0878C26.9412 46.8177 27.651 47.5076 28.4609 48.3574L28.4709 48.3474Z" fill="#003A7B"/>
<path d="M29.8407 65.9847C29.2708 66.1247 28.9508 66.2347 28.6309 66.2747C25.2714 66.6746 21.9319 66.5546 18.6224 65.8147C18.2825 65.7347 17.9525 65.6348 17.6126 65.5248C16.2228 65.0948 15.3229 64.165 15.003 62.7652C14.693 61.4054 14.4331 60.0256 14.2931 58.6358C14.0331 55.9862 14.1731 53.3467 14.623 50.5471C14.963 50.7071 15.2629 50.7571 15.3929 50.927C19.4823 56.2062 24.2616 60.8155 29.2708 65.1948C29.4208 65.3248 29.5107 65.5248 29.8407 65.9847Z" fill="#003A7B"/>
<path d="M64.8953 29.8603C63.4055 27.9306 62.0557 26.0609 60.576 24.3011C59.0462 22.4814 57.4264 20.7417 55.7767 19.022C54.1869 17.3722 52.5172 15.7925 50.7575 14.0527C51.1374 13.8628 51.3574 13.6828 51.5873 13.6628C54.7468 13.3228 57.8764 13.5228 60.9759 14.1927C61.5158 14.3127 62.0557 14.4927 62.5757 14.6826C64.0154 15.1925 64.8953 16.2024 65.2052 17.6922C66.0151 21.5716 66.0551 25.461 65.2752 29.3604C65.2552 29.4803 65.1153 29.5703 64.8853 29.8603H64.8953Z" fill="#003A7B"/>
<path d="M28.4709 48.3474C27.651 47.4976 26.9511 46.8077 26.3112 46.0778C25.7913 45.4879 25.8113 44.908 26.2613 44.368C26.7412 43.7881 27.3411 43.6882 27.921 44.1281C28.311 44.428 28.6509 44.778 29.0208 45.1079C29.4308 45.4779 29.8507 45.8478 30.3106 46.2578C31.4504 45.5579 32.2003 44.548 33.1402 43.5582C32.8902 43.2082 32.6803 42.8683 32.4203 42.5683C32.0104 42.0884 31.5404 41.6585 31.1505 41.1685C30.6506 40.5486 30.7006 40.0787 31.2505 39.4888C31.8204 38.8889 32.2603 38.8389 32.9002 39.3288C33.6701 39.9187 34.23 40.7686 35.1999 41.2085C36.0898 40.5886 36.7996 39.8487 37.4495 38.8689C36.7396 38.069 36.0297 37.3191 35.3698 36.5193C34.9199 35.9793 34.9599 35.5494 35.4098 35.0095C35.9998 34.2896 36.5097 34.2096 37.1996 34.7995C37.9395 35.4294 38.6494 36.1093 39.3892 36.7892C40.3291 36.3493 40.849 35.6094 41.5189 34.8595C41.259 34.5096 41.049 34.1696 40.789 33.8697C40.3691 33.3997 39.8892 32.9798 39.4792 32.4999C38.8393 31.75 38.9293 31.1001 39.6892 30.5302C40.1491 30.1802 40.5691 30.1602 41.039 30.5102C41.4289 30.8001 41.7789 31.1501 42.1488 31.48C42.5587 31.85 42.9787 32.2199 43.4486 32.6399C44.6484 31.9 45.3783 30.8101 46.3282 29.8103C45.5583 28.9604 44.8784 28.2605 44.2685 27.5106C43.6986 26.8208 43.7886 26.2908 44.4785 25.6909C44.9384 25.291 45.3583 25.221 45.8082 25.551C46.1982 25.8409 46.5581 26.1909 46.9181 26.5108C47.328 26.8707 47.7379 27.2407 48.1879 27.6406C49.1277 27.2407 49.6176 26.4308 50.3075 25.8709C50.9674 25.331 51.4874 25.321 51.9773 25.8209C52.4972 26.3508 52.5772 26.9307 52.1073 27.5206C51.5474 28.2205 50.9175 28.8704 50.2976 29.5703C50.7475 30.5702 51.6473 31.0801 52.2273 31.85C52.7572 32.5599 52.7172 33.1198 52.0873 33.6997C51.5274 34.2196 50.9974 34.2796 50.3975 33.7897C49.6976 33.2098 49.0378 32.5799 48.2879 31.9C47.098 32.4699 46.4082 33.5297 45.5083 34.5296C46.1782 35.3694 46.8481 36.1693 47.458 36.9992C47.8579 37.5391 47.7579 38.009 47.248 38.489C46.6981 39.0189 46.1582 39.0689 45.5683 38.5789C45.1383 38.219 44.7584 37.7991 44.3485 37.4191C44.0985 37.1892 43.8186 36.9892 43.5486 36.7692C42.5888 37.2092 42.1488 38.009 41.5489 38.8089C42.0788 39.4188 42.5987 39.9687 43.0787 40.5586C43.9085 41.5585 43.8785 41.8884 42.8887 42.8483C42.7987 42.9383 42.6387 42.9683 42.4587 43.0383C41.2389 42.7983 40.689 41.5285 39.5192 40.9586C38.4994 41.3685 37.8995 42.3184 37.1196 43.1482C37.6995 44.348 39.0393 44.898 39.4392 46.1978C39.3092 46.4377 39.2193 46.7077 39.0393 46.9077C38.3794 47.6375 37.9394 47.6975 37.2395 47.1376C36.5797 46.6177 35.9698 46.0378 35.2999 45.4479C33.9801 46.0178 33.3802 47.2576 32.3803 48.1675C33.2702 49.2573 34.0501 50.2171 34.8499 51.197C34.63 51.6069 34.52 51.9469 34.29 52.1968C33.7501 52.7867 33.2102 52.8367 32.6303 52.3468C31.9404 51.7669 31.2905 51.127 30.5906 50.4871C29.6607 50.7271 29.2508 51.5369 28.6209 52.0469C28.2809 52.3268 27.921 52.5168 27.4711 52.4168C26.6612 52.2268 26.2213 51.287 26.6812 50.6171C27.1911 49.8772 27.801 49.1973 28.4809 48.3374L28.4709 48.3474Z" fill="white"/>
</svg>
