<svg width="80" height="80" viewBox="0 0 80 80" fill="none" xmlns="http://www.w3.org/2000/svg">
<g clip-path="url(#clip0_1193_16003)">
<path d="M22.4815 34.6607C24.533 31.8499 26.437 29.209 28.3638 26.5795C28.7719 26.0241 28.9192 25.4461 28.7379 24.7887C28.3979 23.5647 28.0465 22.3519 27.6611 21.0032C26.9924 20.9352 26.3804 20.8671 25.7684 20.8105C25.1337 20.7538 24.4876 20.7651 23.8756 20.6291C23.0482 20.4364 22.5721 19.7224 22.5608 18.861C22.5495 18.0223 23.0369 17.2969 23.8189 17.0362C24.1136 16.9342 24.4423 16.8662 24.7483 16.8662C27.9332 16.8662 31.1067 16.8776 34.2916 16.9002C34.5296 16.9002 34.7676 16.9342 35.0056 16.9796C35.9123 17.1836 36.6037 17.977 36.6151 18.8043C36.6151 19.5297 36.0483 20.3458 35.2436 20.5725C34.7223 20.7198 34.1442 20.7311 33.6002 20.7991C32.9882 20.8671 32.3648 20.9352 31.6507 21.0032C31.7074 21.5132 31.6961 21.9099 31.7868 22.2726C32.3081 24.4374 32.3195 24.4714 34.4389 24.4827C40.718 24.5167 47.0084 24.5167 53.2875 24.5054C53.8202 24.5054 54.3529 24.3807 54.8742 24.3127C54.8176 22.6353 54.0015 19.8924 52.8908 17.4443C52.2674 16.9682 51.5307 17.1609 50.828 17.1042C50.1933 17.0476 49.5472 17.0589 48.9352 16.9229C48.1872 16.7529 47.6998 16.0502 47.7338 15.3475C47.7678 14.6221 48.2551 13.8967 48.9125 13.7154C49.3659 13.5907 49.8533 13.534 50.318 13.534C52.6301 13.5 54.9309 13.5 57.2431 13.5C57.6397 13.5 58.0365 13.534 58.4332 13.5907C59.2719 13.738 59.9179 14.1801 60.2239 14.9961C60.5639 15.9142 60.2806 16.7302 59.6119 17.3989C59.2265 17.7843 58.7391 18.079 58.2971 18.4077C58.0478 18.6003 57.8098 18.793 57.5831 18.963C57.8778 20.8898 61.5953 32.5412 62.4454 34.2187C63.6808 34.2187 64.9389 34.23 66.197 34.2187C69.2345 34.1733 72.0454 34.9894 74.5388 36.6895C80.2852 40.5998 82.6654 46.1421 81.7586 52.9652C80.9086 59.3463 76.0123 64.6166 69.7445 66.0447C58.4445 68.6289 49.0825 59.845 50.0573 48.987C50.5333 43.6486 53.0381 39.5117 57.5264 36.5762C57.9231 36.3155 58.2971 36.0321 58.6485 35.7828C58.5578 33.8107 58.3311 33.1079 57.2771 31.5665C56.4497 31.7819 56.0416 32.5186 55.5316 33.0739C52.0747 36.8142 48.6519 40.5771 45.2176 44.3287C43.6082 46.0854 41.9534 47.8082 40.3893 49.6103C39.4146 50.7324 38.3152 51.2084 36.8304 51.0951C34.8583 50.9364 32.8748 51.0044 31.016 51.0724C30.2907 51.9225 30.302 52.8405 30.0526 53.6679C27.9558 60.4117 23.4222 64.4013 16.4631 65.4667C7.61117 66.8268 -0.606016 60.5137 -1.79609 51.5825C-2.9635 42.8666 2.83955 34.6834 11.3854 33.0626C14.4116 32.4846 17.4038 32.6886 20.294 33.8447C20.9514 34.1053 21.6201 34.3433 22.4928 34.672L22.4815 34.6607ZM63.6695 37.9703C63.7262 38.4009 63.6921 38.8883 63.8395 39.3077C64.9842 42.5946 65.5849 46.0854 67.3191 49.1796C67.9198 50.245 67.4777 51.3558 66.503 51.8091C65.5396 52.2625 64.3835 51.8545 63.8848 50.8344C63.6808 50.4151 63.5901 49.9277 63.4541 49.4743C62.5587 46.5841 61.6747 43.694 60.7453 40.8264C60.5639 40.2484 60.5073 39.557 59.8386 39.2623C54.3529 41.8238 51.8027 49.4517 54.3869 55.504C57.1071 61.8625 64.3495 64.8547 70.6853 62.2478C76.9417 59.6637 80.1605 52.3305 77.8144 46.0061C75.5136 39.795 69.0645 36.0888 63.6808 37.9816L63.6695 37.9703ZM20.2713 37.6756C17.8912 36.2021 15.5904 35.8168 13.1762 36.0775C6.20577 36.8028 1.0941 42.8779 1.46812 49.939C1.80815 56.3314 6.44378 61.3638 12.7455 62.2025C18.9793 63.0299 24.5783 59.1423 26.6978 53.0332C26.9018 52.4439 27.1171 51.8092 26.5051 51.1291C25.995 51.0951 25.3717 51.0044 24.7483 51.0044C21.7334 51.0044 18.7072 51.0044 15.6924 51.0044C15.0577 51.0044 14.4116 51.0271 13.7996 50.9138C12.6548 50.7097 12.0995 49.633 12.5415 48.5563C12.6662 48.2729 12.8589 48.0122 13.0402 47.7515C14.3663 45.9608 15.7037 44.1927 17.0071 42.3905C18.0725 40.9171 19.0926 39.3983 20.2827 37.6756H20.2713ZM38.8479 45.6434C39.0632 45.5074 39.3579 45.3941 39.5506 45.1901C40.2646 44.442 40.9333 43.6486 41.6247 42.8892C45.6936 38.4236 49.7739 33.9693 53.8428 29.4924C54.1375 29.1637 54.6022 28.869 54.3302 28.291C52.2561 27.9056 42.0327 27.7469 35.0963 28.0076C34.6429 28.0303 34.1896 28.155 33.7249 28.223C33.6909 28.5516 33.6002 28.801 33.6569 29.005C35.221 34.4227 36.8077 39.8404 38.4058 45.2581C38.4398 45.3827 38.6325 45.4507 38.8479 45.6321V45.6434ZM30.2566 30.4671C29.8033 30.8525 29.4633 31.0565 29.2592 31.3398C27.9558 33.1079 26.5277 34.808 25.553 36.7348C28.8059 41.2458 28.5906 39.9537 30.8007 47.3775C32.8635 47.8196 33.7249 47.7856 35.085 47.2075C34.8583 45.3147 31.5487 33.7426 30.268 30.4671H30.2566ZM26.8338 47.3662C27.0945 45.4507 26.1877 43.8413 25.3263 42.2659C24.8276 41.3365 24.3289 40.2937 23.1729 39.9311C22.9235 40.1464 22.7082 40.2824 22.5722 40.4637C21.0761 42.5152 19.5913 44.5667 18.1179 46.6408C17.9705 46.8562 17.9932 47.1962 17.9252 47.4909C20.4073 47.8196 25.1563 47.7629 26.8224 47.3775L26.8338 47.3662Z" fill="#003A7B"/>
<path d="M63.6695 37.9703C69.0645 36.0888 75.5023 39.795 77.8031 45.9948C80.1492 52.3192 76.9417 59.6523 70.6739 62.2365C64.3382 64.8547 57.0957 61.8511 54.3755 55.4927C51.7914 49.4403 54.3415 41.8125 59.8272 39.251C60.5073 39.5457 60.5526 40.2484 60.734 40.8151C61.652 43.694 62.5361 46.5841 63.4428 49.463C63.5788 49.9164 63.6695 50.4037 63.8735 50.8231C64.3835 51.8431 65.5283 52.2512 66.4917 51.7978C67.4664 51.3444 67.9084 50.2224 67.3077 49.1683C65.5736 46.0741 64.9729 42.5946 63.8282 39.2963C63.6808 38.877 63.7035 38.3896 63.6581 37.9589L63.6695 37.9703Z" fill="white"/>
<path d="M20.2713 37.6756C19.0699 39.3983 18.0612 40.9171 16.9958 42.3905C15.6924 44.1927 14.3436 45.9608 13.0289 47.7515C12.8475 48.0009 12.6435 48.2616 12.5302 48.5563C12.0881 49.633 12.6435 50.7097 13.7882 50.9138C14.4116 51.0271 15.0577 51.0044 15.6811 51.0044C18.6959 51.0044 21.7221 50.9931 24.737 51.0044C25.3603 51.0044 25.9837 51.0951 26.4937 51.1291C27.1058 51.8205 26.8904 52.4552 26.6864 53.0332C24.5783 59.1423 18.9793 63.0299 12.7342 62.2025C6.43245 61.3638 1.78547 56.3428 1.45678 49.939C1.08275 42.8779 6.20575 36.8028 13.1649 36.0775C15.579 35.8281 17.8798 36.2135 20.26 37.6756H20.2713Z" fill="white"/>
<path d="M38.8592 45.6548C38.6439 45.4734 38.4512 45.4054 38.4172 45.2807C36.8191 39.863 35.2437 34.4567 33.6682 29.0277C33.6115 28.8237 33.7022 28.563 33.7362 28.2456C34.2009 28.1663 34.6543 28.0416 35.1076 28.0303C42.0441 27.7696 52.2787 27.9283 54.3415 28.3136C54.6136 28.8917 54.1489 29.1864 53.8542 29.515C49.7853 33.9807 45.705 38.4463 41.6361 42.9119C40.9447 43.6713 40.2646 44.4647 39.5619 45.2127C39.3692 45.4167 39.0746 45.5301 38.8592 45.6661V45.6548Z" fill="white"/>
<path d="M30.268 30.4784C31.5601 33.7426 34.8696 45.3261 35.085 47.2188C33.7249 47.7969 32.8635 47.8309 30.8007 47.3889C28.5905 39.965 28.8059 41.2685 25.553 36.7462C26.5277 34.8194 27.9558 33.1306 29.2592 31.3512C29.4746 31.0678 29.8033 30.8638 30.2566 30.4784H30.268Z" fill="white"/>
<path d="M26.8451 47.3662C25.179 47.7516 20.43 47.8082 17.9479 47.4795C18.0045 47.1848 17.9818 46.8448 18.1405 46.6295C19.6026 44.5553 21.0987 42.5039 22.5948 40.4524C22.7308 40.2711 22.9462 40.1464 23.1955 39.9197C24.3516 40.2824 24.8503 41.3251 25.349 42.2545C26.2104 43.8413 27.1171 45.4507 26.8564 47.3549L26.8451 47.3662Z" fill="white"/>
</g>
<defs>
<clipPath id="clip0_1193_16003">
<rect width="80" height="80" fill="white"/>
</clipPath>
</defs>
</svg>
