<svg width="63" height="94" viewBox="0 0 63 94" fill="none" xmlns="http://www.w3.org/2000/svg">
<g filter="url(#filter0_d_887_9872)">
<rect x="27.6708" y="46.123" width="3.8317" height="17.0685" fill="#BF7F02"/>
<path d="M10.1362 70.6752C10.1362 68.0209 12.288 65.8691 14.9423 65.8691H44.3579C47.0122 65.8691 49.1639 68.0209 49.1639 70.6752V86.0007H10.1362V70.6752Z" fill="#243B6D"/>
<path d="M25.2324 65.0065C25.2324 63.812 26.2007 62.8438 27.3951 62.8438H31.7781C32.9726 62.8438 33.9408 63.812 33.9408 65.0065V65.9788H25.2324V65.0065Z" fill="#DCAE0C"/>
<rect x="15.7507" y="71.6006" width="28.0201" height="9.55825" fill="#F9B50E" stroke="#FFEC86" stroke-width="1.24019"/>
<path d="M17.569 70.9805H30.8058L41.2559 81.7789H28.0191L17.569 70.9805Z" fill="#FFEC86"/>
<rect x="7.67993" y="86" width="43.6674" height="4.18004" fill="#DE9300"/>
<path d="M38.3145 20.2725L38.5801 20.8027L39.168 20.876L56.6025 23.0547L44.5977 36.5176L44.2432 36.915L44.332 37.4395L47.6133 56.8672L29.541 47.8311L29.0459 48.0791L11.4707 56.8662L14.7822 37.4414L14.8721 36.915L14.5166 36.5166L2.48242 23.0547L19.9141 20.876L20.5029 20.8027L20.7676 20.2725L29.541 2.72461L38.3145 20.2725Z" fill="#FFEC86" stroke="#FFB802" stroke-width="2.21604"/>
<path d="M29.5413 13.4629L35.4881 25.3564L47.3816 26.8431L39.2147 36.0011L41.4348 49.1434L29.5413 43.1967L17.6478 49.1434L19.8878 36.0011L11.701 26.8431L23.5946 25.3564L29.5413 13.4629Z" fill="#DE9300"/>
<path d="M29.6735 43.1977L41.6551 49.1445C41.6551 49.1445 40.6961 41.6907 30.9606 36.0021C21.2251 30.3136 23.6827 25.3574 23.6827 25.3574L11.701 26.8441L19.9484 36.0021L17.6919 49.1445L29.6735 43.1977Z" fill="#CB8600"/>
<path d="M39.5847 74.8998L41.3577 70.9977L39.5847 67.0955L43.4868 68.8686L47.389 67.0955L45.6159 70.9977L47.389 74.8998L43.4868 73.1268L39.5847 74.8998Z" fill="white"/>
</g>
<defs>
<filter id="filter0_d_887_9872" x="8.82149e-06" y="8.82149e-06" width="62.5552" height="93.9022" filterUnits="userSpaceOnUse" color-interpolation-filters="sRGB">
<feFlood flood-opacity="0" result="BackgroundImageFix"/>
<feColorMatrix in="SourceAlpha" type="matrix" values="0 0 0 0 0 0 0 0 0 0 0 0 0 0 0 0 0 0 127 0" result="hardAlpha"/>
<feOffset dx="1.73627" dy="1.73627"/>
<feGaussianBlur stdDeviation="0.992152"/>
<feComposite in2="hardAlpha" operator="out"/>
<feColorMatrix type="matrix" values="0 0 0 0 0 0 0 0 0 0 0 0 0 0 0 0 0 0 0.3 0"/>
<feBlend mode="normal" in2="BackgroundImageFix" result="effect1_dropShadow_887_9872"/>
<feBlend mode="normal" in="SourceGraphic" in2="effect1_dropShadow_887_9872" result="shape"/>
</filter>
</defs>
</svg>
