<svg width="20" height="20" viewBox="0 0 20 20" fill="none" xmlns="http://www.w3.org/2000/svg">
<path d="M19.3297 10.0974C19.3297 9.43147 19.2652 8.744 19.1578 8.0995H9.85556V11.902H15.1834C14.9686 13.1266 14.2596 14.2008 13.2069 14.8882L16.3865 17.3588C18.2555 15.6187 19.3297 13.0836 19.3297 10.0974Z" fill="#4280EF"/>
<path d="M9.85548 19.7221C12.5194 19.7221 14.7537 18.8413 16.3864 17.3374L13.2069 14.8882C12.3261 15.4898 11.1874 15.8336 9.85548 15.8336C7.27748 15.8336 5.10767 14.0935 4.31279 11.7733L1.04733 14.2868C2.72303 17.6167 6.11738 19.7221 9.85548 19.7221Z" fill="#34A353"/>
<path d="M4.31275 11.7518C3.90457 10.5273 3.90457 9.1953 4.31275 7.97075L1.04729 5.43573C-0.349123 8.22855 -0.349084 11.5155 1.04733 14.2868L4.31275 11.7518Z" fill="#F6B704"/>
<path d="M9.85548 3.91033C11.2519 3.88885 12.6268 4.42593 13.6365 5.39268L16.4508 2.55689C14.6677 0.88119 12.3046 -0.0211083 9.85548 0.000374945C6.11739 0.000374945 2.72299 2.10582 1.04729 5.43573L4.31275 7.97075C5.10763 5.62908 7.27748 3.91033 9.85548 3.91033Z" fill="#E54335"/>
</svg>
