<svg width="24" height="24" viewBox="0 0 24 24" fill="none" xmlns="http://www.w3.org/2000/svg">
<mask id="path-1-inside-1_979_6853" fill="white">
<path d="M0 12C0 5.37258 5.37258 0 12 0C18.6274 0 24 5.37258 24 12C24 18.6274 18.6274 24 12 24C5.37258 24 0 18.6274 0 12Z"/>
</mask>
<path d="M0 12C0 5.37258 5.37258 0 12 0C18.6274 0 24 5.37258 24 12C24 18.6274 18.6274 24 12 24C5.37258 24 0 18.6274 0 12Z" fill="#E8F5E9"/>
<path d="M0 12M24 12M24 12M0 12M12 0M24 12M12 24M0 12M12 24V22.6667C6.10896 22.6667 1.33333 17.891 1.33333 12H0H-1.33333C-1.33333 19.3638 4.6362 25.3333 12 25.3333V24ZM24 12H22.6667C22.6667 17.891 17.891 22.6667 12 22.6667V24V25.3333C19.3638 25.3333 25.3333 19.3638 25.3333 12H24ZM12 0V1.33333C17.891 1.33333 22.6667 6.10896 22.6667 12H24H25.3333C25.3333 4.6362 19.3638 -1.33333 12 -1.33333V0ZM12 0V-1.33333C4.6362 -1.33333 -1.33333 4.6362 -1.33333 12H0H1.33333C1.33333 6.10896 6.10896 1.33333 12 1.33333V0Z" fill="#2E7D32" mask="url(#path-1-inside-1_979_6853)"/>
<path d="M12 17V10.8889M12 10.8889C12 8.66667 13.6667 7 15.8889 7C15.8889 9.22222 14.2223 10.8889 12 10.8889ZM12 10.8889C12 8.66667 10.3334 7 8.11115 7C8.11115 9.22222 9.77781 10.8889 12 10.8889Z" stroke="#2E7D32" stroke-width="1.11111" stroke-linecap="round" stroke-linejoin="round"/>
<path d="M9.77777 17H14.2222" stroke="#2E7D32" stroke-width="1.11111" stroke-linecap="round"/>
</svg>
