<svg width="96" height="96" viewBox="0 0 96 96" fill="none" xmlns="http://www.w3.org/2000/svg">
<path d="M0 16C0 7.16345 7.16344 0 16 0H80C88.8366 0 96 7.16344 96 16V80C96 88.8366 88.8366 96 80 96H16C7.16345 96 0 88.8366 0 80V16Z" fill="#0052AD"/>
<rect x="15.5979" y="14.2326" width="28.0337" height="29.1197" rx="2.36765" fill="white" stroke="white" stroke-width="1.57844"/>
<path d="M36.7997 26.9742C38.018 28.2782 37.9976 30.2769 36.7543 31.4384L31.7702 36.0947C30.5268 37.2562 28.5314 37.1407 27.3131 35.8366L22.4295 30.6091C21.2113 29.3051 21.2316 27.3064 22.4749 26.1448L27.4591 21.4886C28.7024 20.3271 30.6979 20.4426 31.9161 21.7466L36.7997 26.9742Z" fill="#0052AD" stroke="#0052AD" stroke-width="3.25844" stroke-miterlimit="3.99393" stroke-linecap="square"/>
<rect x="53.2101" y="14.2316" width="28.0337" height="29.1197" rx="2.36765" fill="white" stroke="white" stroke-width="1.57844"/>
<path d="M74.4119 26.9742C75.6302 28.2782 75.6098 30.2769 74.3665 31.4384L69.3823 36.0947C68.139 37.2562 66.1435 37.1407 64.9253 35.8366L60.0417 30.6091C58.8235 29.3051 58.8438 27.3064 60.0871 26.1448L65.0713 21.4886C66.3146 20.3271 68.3101 20.4426 69.5283 21.7466L74.4119 26.9742Z" fill="#0052AD" stroke="#0052AD" stroke-width="3.25844" stroke-miterlimit="3.99393" stroke-linecap="square"/>
<rect x="15.5977" y="52.9308" width="28.0337" height="29.1197" rx="2.36765" fill="white" stroke="white" stroke-width="1.57844"/>
<path d="M36.7997 65.6724C38.018 66.9764 37.9976 68.9752 36.7543 70.1367L31.7702 74.7929C30.5268 75.9544 28.5314 75.8389 27.3131 74.5349L22.4295 69.3073C21.2113 68.0033 21.2316 66.0046 22.4749 64.8431L27.4591 60.1868C28.7024 59.0253 30.6979 59.1408 31.9161 60.4449L36.7997 65.6724Z" fill="#0052AD" stroke="#0052AD" stroke-width="3.25844" stroke-miterlimit="3.99393" stroke-linecap="square"/>
<rect x="53.2099" y="52.9308" width="28.0337" height="29.1197" rx="2.36765" fill="white" stroke="white" stroke-width="1.57844"/>
<path d="M74.4119 65.6724C75.6302 66.9764 75.6098 68.9752 74.3665 70.1367L69.3823 74.7929C68.139 75.9544 66.1435 75.8389 64.9253 74.5349L60.0417 69.3073C58.8235 68.0033 58.8438 66.0046 60.0871 64.8431L65.0713 60.1868C66.3146 59.0253 68.3101 59.1408 69.5283 60.4449L74.4119 65.6724Z" fill="#0052AD" stroke="#0052AD" stroke-width="3.25844" stroke-miterlimit="3.99393" stroke-linecap="square"/>
</svg>
