<svg width="24" height="24" viewBox="0 0 24 24" fill="none" xmlns="http://www.w3.org/2000/svg">
<mask id="path-1-inside-1_979_7374" fill="white">
<path d="M0 12C0 5.37258 5.37258 0 12 0C18.6274 0 24 5.37258 24 12C24 18.6274 18.6274 24 12 24C5.37258 24 0 18.6274 0 12Z"/>
</mask>
<path d="M0 12C0 5.37258 5.37258 0 12 0C18.6274 0 24 5.37258 24 12C24 18.6274 18.6274 24 12 24C5.37258 24 0 18.6274 0 12Z" fill="#FFF4E5"/>
<path d="M0 12M24 12M24 12M0 12M12 0M24 12M12 24M0 12M12 24V22.6667C6.10896 22.6667 1.33333 17.891 1.33333 12H0H-1.33333C-1.33333 19.3638 4.6362 25.3333 12 25.3333V24ZM24 12H22.6667C22.6667 17.891 17.891 22.6667 12 22.6667V24V25.3333C19.3638 25.3333 25.3333 19.3638 25.3333 12H24ZM12 0V1.33333C17.891 1.33333 22.6667 6.10896 22.6667 12H24H25.3333C25.3333 4.6362 19.3638 -1.33333 12 -1.33333V0ZM12 0V-1.33333C4.6362 -1.33333 -1.33333 4.6362 -1.33333 12H0H1.33333C1.33333 6.10896 6.10896 1.33333 12 1.33333V0Z" fill="#F97316" mask="url(#path-1-inside-1_979_7374)"/>
<path d="M12 6.09863C12 6.09863 8.62787 9.80797 8.62787 13.5173C8.62787 14.4116 8.98315 15.2694 9.61554 15.9018C10.2479 16.5342 11.1057 16.8894 12 16.8894C12.8943 16.8894 13.752 16.5342 14.3844 15.9018C15.0168 15.2694 15.3721 14.4116 15.3721 13.5173C15.3721 11.494 14.0233 9.80797 14.0233 9.80797C14.0233 9.80797 13.0116 11.494 12.6744 12.8429C12.3372 11.494 12 6.09863 12 6.09863Z" fill="#F97316"/>
<path d="M10.314 16.2145C10.314 16.6617 10.4916 17.0905 10.8078 17.4067C11.124 17.7229 11.5529 17.9005 12 17.9005C12.4472 17.9005 12.8761 17.7229 13.1923 17.4067C13.5085 17.0905 13.6861 16.6617 13.6861 16.2145C13.6861 15.2028 12.6745 14.5284 12 14.5284C11.3256 14.5284 10.314 15.2028 10.314 16.2145Z" fill="#FCD34D"/>
</svg>
