<svg width="96" height="96" viewBox="0 0 96 96" fill="none" xmlns="http://www.w3.org/2000/svg">
<path d="M0 16C0 7.16345 7.16344 0 16 0H80C88.8366 0 96 7.16344 96 16V80C96 88.8366 88.8366 96 80 96H16C7.16345 96 0 88.8366 0 80V16Z" fill="#0052AD"/>
<rect x="20.3675" y="15.7534" width="23.071" height="23.9611" rx="4.19318" transform="rotate(16.3764 20.3675 15.7534)" fill="#0052AD" stroke="white" stroke-width="1.19805"/>
<circle cx="28.057" cy="30.5006" r="6.4" fill="white"/>
<rect x="60.2542" y="15.7534" width="23.071" height="23.9611" rx="4.19318" transform="rotate(16.3764 60.2542 15.7534)" fill="#0052AD" stroke="white" stroke-width="1.19805"/>
<circle cx="67.9437" cy="30.5006" r="6.4" fill="white"/>
<rect x="15.7241" y="54.4763" width="64.5522" height="26.0299" rx="3.39552" fill="white"/>
<rect x="15.7241" y="54.4763" width="64.5522" height="26.0299" rx="3.39552" stroke="#0052AD" stroke-width="0.970149"/>
<path d="M34.6896 60.2911V72.9912H32.6432L26.659 64.3405H26.5536V72.9912H24.2529V60.2911H26.3117L32.2897 68.948H32.4013V60.2911H34.6896ZM40.0322 73.1834C39.4286 73.1834 38.885 73.076 38.4013 72.861C37.9217 72.6419 37.5414 72.3194 37.2602 71.8936C36.9832 71.4678 36.8447 70.9427 36.8447 70.3185C36.8447 69.781 36.944 69.3366 37.1424 68.9852C37.3408 68.6338 37.6116 68.3527 37.9548 68.1418C38.2979 67.931 38.6844 67.7718 39.1144 67.6643C39.5485 67.5527 39.997 67.4721 40.4601 67.4225C41.0182 67.3646 41.4709 67.3129 41.8181 67.2675C42.1654 67.2179 42.4176 67.1434 42.5747 67.0442C42.7359 66.9409 42.8165 66.7817 42.8165 66.5667V66.5295C42.8165 66.0624 42.678 65.7006 42.4011 65.4443C42.1241 65.188 41.7251 65.0598 41.2042 65.0598C40.6544 65.0598 40.2182 65.1797 39.8958 65.4195C39.5774 65.6593 39.3624 65.9425 39.2508 66.2691L37.1548 65.9714C37.3202 65.3926 37.593 64.9089 37.9734 64.5203C38.3537 64.1276 38.8188 63.8341 39.3686 63.6397C39.9185 63.4413 40.5262 63.3421 41.1918 63.3421C41.6507 63.3421 42.1075 63.3958 42.5623 63.5033C43.017 63.6108 43.4325 63.7886 43.8087 64.0366C44.1849 64.2805 44.4867 64.6133 44.7141 65.035C44.9456 65.4567 45.0614 65.9838 45.0614 66.6163V72.9912H42.9034V71.6828H42.8289C42.6925 71.9473 42.5003 72.1954 42.2522 72.4269C42.0083 72.6543 41.7003 72.8382 41.3282 72.9788C40.9603 73.1152 40.5283 73.1834 40.0322 73.1834ZM40.6151 71.5339C41.0657 71.5339 41.4564 71.445 41.7871 71.2673C42.1179 71.0854 42.3721 70.8456 42.5499 70.5479C42.7318 70.2503 42.8227 69.9257 42.8227 69.5743V68.4519C42.7525 68.5098 42.6326 68.5635 42.4631 68.6131C42.2977 68.6627 42.1117 68.7062 41.905 68.7434C41.6982 68.7806 41.4936 68.8136 41.291 68.8426C41.0885 68.8715 40.9128 68.8963 40.7639 68.917C40.4291 68.9625 40.1293 69.0369 39.8647 69.1402C39.6002 69.2436 39.3914 69.3883 39.2384 69.5743C39.0855 69.7562 39.009 69.9919 39.009 70.2813C39.009 70.6947 39.1599 71.0068 39.4617 71.2177C39.7635 71.4285 40.1479 71.5339 40.6151 71.5339ZM47.5127 72.9912V63.4661H49.6583V65.0846H49.7699C49.9684 64.5389 50.297 64.1131 50.7559 63.8072C51.2148 63.4971 51.7626 63.3421 52.3992 63.3421C53.0442 63.3421 53.5878 63.4992 54.0302 63.8134C54.4767 64.1234 54.7908 64.5472 54.9727 65.0846H55.072C55.2828 64.5555 55.6383 64.1338 56.1386 63.8196C56.6429 63.5013 57.2403 63.3421 57.9307 63.3421C58.8072 63.3421 59.5224 63.6191 60.0764 64.1731C60.6303 64.727 60.9073 65.5353 60.9073 66.5977V72.9912H58.6563V66.945C58.6563 66.3538 58.4992 65.9218 58.185 65.6489C57.8708 65.372 57.4863 65.2335 57.0316 65.2335C56.49 65.2335 56.0662 65.403 55.7603 65.742C55.4585 66.0768 55.3076 66.513 55.3076 67.0504V72.9912H53.1062V66.852C53.1062 66.36 52.9573 65.9673 52.6597 65.6738C52.3662 65.3802 51.9817 65.2335 51.5063 65.2335C51.1838 65.2335 50.8903 65.3161 50.6257 65.4815C50.3611 65.6427 50.1503 65.8722 49.9932 66.1699C49.8361 66.4634 49.7575 66.8065 49.7575 67.1993V72.9912H47.5127ZM67.5956 73.1772C66.6406 73.1772 65.8159 72.9788 65.1213 72.5819C64.4309 72.1809 63.8997 71.6145 63.5276 70.8828C63.1555 70.1469 62.9695 69.2808 62.9695 68.2845C62.9695 67.3047 63.1555 66.4448 63.5276 65.7048C63.9038 64.9606 64.4288 64.3818 65.1027 63.9684C65.7766 63.5509 66.5683 63.3421 67.4778 63.3421C68.0648 63.3421 68.6188 63.4372 69.1397 63.6273C69.6648 63.8134 70.1278 64.1028 70.5288 64.4955C70.9339 64.8883 71.2523 65.3885 71.4838 65.9962C71.7153 66.5998 71.8311 67.3191 71.8311 68.1542V68.8426H64.0237V67.3295H69.6792C69.6751 66.8995 69.5821 66.5171 69.4002 66.1823C69.2183 65.8433 68.964 65.5766 68.6374 65.3823C68.315 65.188 67.9387 65.0908 67.5088 65.0908C67.0499 65.0908 66.6468 65.2025 66.2996 65.4257C65.9523 65.6448 65.6815 65.9342 65.4872 66.2939C65.297 66.6494 65.1999 67.0401 65.1957 67.4659V68.7868C65.1957 69.3407 65.297 69.8162 65.4996 70.2131C65.7022 70.6058 65.9854 70.9076 66.3492 71.1184C66.713 71.3251 67.1388 71.4285 67.6266 71.4285C67.9532 71.4285 68.2488 71.383 68.5134 71.2921C68.778 71.197 69.0074 71.0585 69.2017 70.8766C69.396 70.6947 69.5428 70.4694 69.642 70.2007L71.738 70.4363C71.6057 70.9903 71.3536 71.474 70.9815 71.8874C70.6135 72.2967 70.1422 72.615 69.5676 72.8424C68.993 73.0656 68.3356 73.1772 67.5956 73.1772Z" fill="#0052AD"/>
</svg>
