<svg width="62" height="81" viewBox="0 0 62 81" fill="none" xmlns="http://www.w3.org/2000/svg">
<g filter="url(#filter0_d_979_7380)">
<rect x="31.3916" y="42.4482" width="3.06523" height="11.0072" transform="rotate(-18 31.3916 42.4482)" fill="url(#paint0_linear_979_7380)"/>
<path d="M13.151 23.9429L4.16003 26.8643C6.46701 33.9644 8.32872 37.8748 18.2626 34.6471" stroke="#FFDD66" stroke-width="2.22442"/>
<path d="M41.8371 24.9031C44.25 32.3293 40.2944 40.2702 33.0019 42.6396C25.7095 45.0091 17.8418 40.9098 15.4289 33.4836C13.016 26.0574 16.9716 18.1165 24.264 15.7471C31.5564 13.3776 39.4242 17.4769 41.8371 24.9031Z" fill="#FFDD66"/>
<path d="M36.0235 51.9389C30.6393 53.6883 26.7957 56.71 27.4384 58.688L46.936 52.3528C46.2933 50.3748 41.4076 50.1895 36.0235 51.9389Z" fill="#FFDD66"/>
<path d="M10.2203 17.4531L36.6284 8.87259L41.6329 24.2748L15.2247 32.8553L10.2203 17.4531Z" fill="#FFDD66"/>
<path d="M47.1605 53.044L27.6629 59.3792L27.4179 58.6252L46.9155 52.29L47.1605 53.044Z" fill="#FFDD66"/>
<path d="M38.4421 15.7251L47.4331 12.8037C49.7401 19.9038 50.5324 24.1617 40.5985 27.3894" stroke="#DE9300" stroke-width="2.22442"/>
<path d="M41.8371 24.903C44.25 32.3292 40.2944 40.2701 33.002 42.6396C33.002 42.6396 31.0459 36.6195 28.633 29.1933C26.2201 21.7671 24.2641 15.747 24.2641 15.747C31.5565 13.3776 39.4242 17.4769 41.8371 24.903Z" fill="url(#paint1_linear_979_7380)"/>
<path d="M36.0235 51.9389C36.0235 51.9389 36.5445 53.5424 37.1872 55.5204L46.936 52.3528C46.2933 50.3748 41.4076 50.1895 36.0235 51.9389Z" fill="url(#paint2_linear_979_7380)"/>
<path d="M23.4247 13.1638L36.6288 8.87356L41.6329 24.2747L28.4289 28.565L23.4247 13.1638Z" fill="url(#paint3_linear_979_7380)"/>
<path d="M47.1606 53.0439L37.4118 56.2115C37.4118 56.2115 37.2403 55.7583 37.1668 55.4575C36.199 51.498 46.9156 52.2899 46.9156 52.2899L47.1606 53.0439Z" fill="url(#paint4_linear_979_7380)"/>
<ellipse cx="28.4059" cy="27.6121" rx="8.3084" ry="8.46079" transform="rotate(-18 28.4059 27.6121)" fill="#DCAE0C"/>
<path d="M25.247 17.9428C30.4253 16.2605 36.0297 19.1693 37.7509 24.4665C39.4718 29.7636 36.6473 35.4103 31.4693 37.093C26.291 38.7756 20.6861 35.8676 18.9647 30.5705C17.2435 25.2732 20.0686 19.6254 25.247 17.9428Z" fill="#DE9300" stroke="#FFE176" stroke-width="1.12565"/>
<path d="M26.2084 20.9031L29.5352 24.33L33.7047 23.5387L31.9754 27.5716L34.1868 31.8342L29.5204 31.0965L26.1789 34.4362L25.469 29.6856L21.6929 27.4415L25.5312 25.6309L26.2084 20.9031Z" fill="#FFF4BC"/>
<path d="M26.3858 20.7304L29.6186 24.0625L33.6586 23.296L34.1151 23.2093L33.9324 23.6363L32.2483 27.5607L34.406 31.7206L34.6312 32.1547L34.1485 32.0784L29.6055 31.3602L26.3533 34.6112L26.007 34.9579L25.9347 34.4731L25.242 29.8382L21.5668 27.6541L21.1672 27.4164L21.5875 27.2182L25.3054 25.4639L25.9632 20.8677L26.0356 20.3698L26.3858 20.7304Z" stroke="#C98500" stroke-opacity="0.7" stroke-width="0.494316"/>
<path d="M8.39895 21.6812L8.77737 18.1084L6.37116 15.4403L9.89609 15.8625L12.4996 13.449L12.1212 17.0219L14.5274 19.6899L11.0025 19.2677L8.39895 21.6812Z" fill="white"/>
<path d="M24.6302 63.6418C23.9899 61.6709 25.0684 59.5541 27.0393 58.9138L47.5598 52.2462C49.5306 51.6059 51.6474 52.6844 52.2878 54.6553L55.816 65.5141L28.1585 74.5005L24.6302 63.6418Z" fill="#243B6D"/>
<rect x="29.0552" y="62.7132" width="20.6832" height="7.16872" transform="rotate(-18 29.0552 62.7132)" fill="#F9B50E" stroke="#FFEC86" stroke-width="0.96824"/>
<path d="M29.916 61.9248L39.2313 58.8981L49.0999 64.2473L39.7847 67.274L29.916 61.9248Z" fill="#FFEC86"/>
<rect x="26.6219" y="75" width="32.312" height="3.14979" transform="rotate(-18 26.6219 75)" fill="#DE9300"/>
</g>
<defs>
<filter id="filter0_d_979_7380" x="-0.193648" y="-0.193648" width="67.7966" height="83.0984" filterUnits="userSpaceOnUse" color-interpolation-filters="sRGB">
<feFlood flood-opacity="0" result="BackgroundImageFix"/>
<feColorMatrix in="SourceAlpha" type="matrix" values="0 0 0 0 0 0 0 0 0 0 0 0 0 0 0 0 0 0 127 0" result="hardAlpha"/>
<feOffset dx="1.35554" dy="1.35554"/>
<feGaussianBlur stdDeviation="0.774592"/>
<feComposite in2="hardAlpha" operator="out"/>
<feColorMatrix type="matrix" values="0 0 0 0 0 0 0 0 0 0 0 0 0 0 0 0 0 0 0.3 0"/>
<feBlend mode="normal" in2="BackgroundImageFix" result="effect1_dropShadow_979_7380"/>
<feBlend mode="normal" in="SourceGraphic" in2="effect1_dropShadow_979_7380" result="shape"/>
</filter>
<linearGradient id="paint0_linear_979_7380" x1="32.9242" y1="42.4482" x2="32.9242" y2="53.4555" gradientUnits="userSpaceOnUse">
<stop stop-color="#C07F00"/>
<stop offset="1" stop-color="#DE9300"/>
</linearGradient>
<linearGradient id="paint1_linear_979_7380" x1="40.9438" y1="22.4629" x2="27.7062" y2="26.764" gradientUnits="userSpaceOnUse">
<stop stop-color="#DE9300"/>
<stop offset="1" stop-color="#FFBC11"/>
</linearGradient>
<linearGradient id="paint2_linear_979_7380" x1="40.9438" y1="22.4629" x2="27.7062" y2="26.764" gradientUnits="userSpaceOnUse">
<stop stop-color="#DE9300"/>
<stop offset="1" stop-color="#FFBC11"/>
</linearGradient>
<linearGradient id="paint3_linear_979_7380" x1="40.9438" y1="22.4629" x2="27.7062" y2="26.764" gradientUnits="userSpaceOnUse">
<stop stop-color="#DE9300"/>
<stop offset="1" stop-color="#FFBC11"/>
</linearGradient>
<linearGradient id="paint4_linear_979_7380" x1="40.9438" y1="22.4629" x2="27.7062" y2="26.764" gradientUnits="userSpaceOnUse">
<stop stop-color="#DE9300"/>
<stop offset="1" stop-color="#FFBC11"/>
</linearGradient>
</defs>
</svg>
