<svg width="20" height="20" viewBox="0 0 20 20" fill="none" xmlns="http://www.w3.org/2000/svg">
<path d="M17.3233 9.24799C17.4411 9.41358 17.5 9.58624 17.5 9.77608C17.5 10.5942 16.4061 11.0927 14.2182 12.0897L12.7975 12.737C11.4207 13.3643 10.7322 13.6781 10 13.6781C9.26783 13.6781 8.57933 13.3643 7.20248 12.737L5.78181 12.0897C3.59393 11.0927 2.5 10.5942 2.5 9.77608C2.5 9.58624 2.55889 9.41358 2.67667 9.24799M16.9806 13.5554C17.3268 13.8312 17.5 14.1062 17.5 14.4317C17.5 15.2499 16.4061 15.7483 14.2182 16.7452L12.7975 17.3926C11.4207 18.02 10.7322 18.3337 10 18.3337C9.26783 18.3337 8.57933 18.02 7.20248 17.3926L5.78181 16.7452C3.59393 15.7483 2.5 15.2499 2.5 14.4317C2.5 14.1062 2.67315 13.8312 3.01945 13.5554M7.20248 2.62165L5.7818 3.27834C3.59393 4.28965 2.5 4.7953 2.5 5.62533C2.5 6.45535 3.59393 6.961 5.78181 7.97231L7.20248 8.62899C8.57933 9.26541 9.26783 9.58366 10 9.58366C10.7322 9.58366 11.4207 9.26541 12.7975 8.62899L14.2182 7.97231C16.4061 6.961 17.5 6.45535 17.5 5.62533C17.5 4.7953 16.4061 4.28965 14.2182 3.27834L12.7975 2.62165C11.4207 1.98521 10.7322 1.66699 10 1.66699C9.26783 1.66699 8.57933 1.98521 7.20248 2.62165Z" stroke="white" stroke-width="1.25" stroke-linecap="round" stroke-linejoin="round"/>
</svg>
