<svg width="20" height="16" viewBox="0 0 20 16" fill="none" xmlns="http://www.w3.org/2000/svg">
<path d="M17.5371 0.546626C17.6583 0.627412 17.7795 0.708198 17.9043 0.791432C18.19 0.863603 18.476 0.914853 18.7659 0.967386C18.8451 0.990107 18.9243 1.01283 19.0059 1.03624C19.175 1.37438 19.1517 1.6418 19.1283 2.01546C19.0476 2.09625 18.9668 2.17703 18.8835 2.26027C18.8489 2.60484 18.8264 2.94001 18.8147 3.28539C18.8073 3.47252 18.7995 3.65963 18.7913 3.84673C18.7869 3.97131 18.7869 3.97131 18.7824 4.0984C18.7601 4.35317 18.7016 4.58323 18.6387 4.83073C18.623 5.12129 18.6108 5.41205 18.6005 5.70285C18.4685 8.22365 17.6902 10.362 16.0683 12.2973C15.9993 12.3877 15.9304 12.4781 15.8593 12.5713C14.339 14.4919 11.7079 15.5599 9.3361 15.847C6.66247 16.0067 4.09219 15.449 2.01391 13.6681C0.783594 12.4268 0.00557468 10.964 0 9.2052C0.00094671 9.1047 0.00189342 9.00419 0.00286882 8.90063C0.00192211 8.79823 0.000975399 8.69583 0 8.59032C0.000315571 8.49139 0.000631141 8.39246 0.000956274 8.29053C0.0012324 8.20189 0.00150852 8.11326 0.00179301 8.02194C0.038017 7.73201 0.134936 7.53145 0.278276 7.27879C0.399455 7.31918 0.520634 7.35958 0.645485 7.40119C0.754171 7.62233 0.754171 7.62233 0.842955 7.90993C0.893471 8.06669 0.893471 8.06669 0.945007 8.22661C0.979967 8.33796 1.01493 8.4493 1.05094 8.56402C1.53481 10.0156 2.11969 11.1912 3.50331 11.9693C4.26707 12.3155 4.95676 12.3541 5.78641 12.2973C5.78641 12.1761 5.78641 12.055 5.78641 11.9301C5.65766 11.8897 5.52891 11.8493 5.39625 11.8077C4.71641 11.5124 4.46678 10.951 4.19852 10.2906C3.96087 9.58869 3.84083 8.87534 3.95037 8.13561C4.19517 7.89081 4.19517 7.89081 4.54708 7.86021C4.93118 7.89093 5.10087 7.93052 5.4192 8.13561C5.60089 8.4005 5.60089 8.4005 5.75581 8.70173C5.8082 8.80176 5.86058 8.9018 5.91455 9.00487C5.95305 9.08155 5.99155 9.15823 6.03122 9.23724C6.11705 9.12363 6.20289 9.01003 6.29132 8.89298C6.62176 8.5058 6.88293 8.29752 7.37765 8.13561C7.6022 8.14178 7.82665 8.15252 8.05087 8.16621C9.02389 8.20044 9.74221 7.75309 10.5601 7.27879C10.444 7.24345 10.3279 7.2081 10.2082 7.17169C9.82571 7.03399 9.82571 7.03399 9.5809 6.78918C9.52735 6.38372 9.52735 6.38372 9.5809 5.93236C9.84685 5.61042 10.064 5.3848 10.4377 5.19794C10.8826 5.16397 11.3275 5.14318 11.7732 5.12192C11.898 5.10661 12.0228 5.09131 12.1514 5.07554C12.3813 4.61571 12.3379 4.06767 12.3656 3.5608C12.3739 3.44341 12.3823 3.32602 12.3909 3.20507C12.3971 3.09178 12.4032 2.97849 12.4096 2.86176C12.419 2.70641 12.419 2.70641 12.4286 2.54793C12.3887 2.19364 12.2478 2.04499 12.029 1.77066C12.0584 1.35811 12.1009 1.20907 12.3962 0.913835C12.5931 0.891114 12.5931 0.891114 12.794 0.867934C13.3118 0.781625 13.5624 0.600241 13.9874 0.30182C15.142 -0.248004 16.428 0.025386 17.5371 0.546626Z" fill="white"/>
<path d="M15.7082 2.41234C16.0678 2.50414 16.0678 2.50414 16.3126 2.74894C16.2896 3.05495 16.2896 3.05495 16.1902 3.36096C15.7945 3.62474 15.6698 3.66312 15.211 3.60577C14.9815 3.46041 14.9815 3.46041 14.8438 3.23856C14.8591 2.9249 14.8591 2.9249 14.9662 2.62654C15.3334 2.38174 15.3334 2.38174 15.7082 2.41234Z" fill="#BFBFBF"/>
<path d="M6.88788 8.37988C6.88788 8.74709 6.88788 8.74709 6.74014 8.94361C6.67529 9.00751 6.61044 9.07141 6.54362 9.13725C6.47972 9.2021 6.41582 9.26695 6.34998 9.33377C6.15346 9.48151 6.15346 9.48151 5.78625 9.48151C5.82665 9.36033 5.86704 9.23915 5.90866 9.1143C5.94905 9.15469 5.98944 9.19509 6.03106 9.2367C6.12699 9.11805 6.22293 8.9994 6.32177 8.87715C6.51001 8.64432 6.61769 8.51498 6.88788 8.37988Z" fill="white"/>
</svg>
