<svg width="108" height="62" viewBox="0 0 108 62" fill="none" xmlns="http://www.w3.org/2000/svg">
<path d="M92.7843 3.00745C92.2471 2.20191 91.2087 1.93841 90.6638 1.93841C90.3235 1.17925 89.4696 1.27674 89.1916 1.29733C88.9691 1.31381 88.1153 1.03511 87.7162 0.893702L86.43 0.759766L84.7419 1.02764L78.7396 3.57243L75.6044 9.78709L73.5144 18.2787L79.1952 20.0466L82.1695 19.5912L87.0463 14.2874L90.3155 10.2157L92.084 7.80483L92.0036 6.5994C92.4056 6.22438 93.2469 5.13299 93.3756 4.74725C93.5363 4.26508 92.8512 3.10782 92.7843 3.00745Z" fill="#D9D9D9"/>
<path d="M75.5672 5.12706C75.8812 4.92982 76.3782 4.62632 76.6255 4.367C77.2568 3.70478 77.6612 3.06764 78.3713 2.46022C78.7628 2.12488 79.3189 2.03878 79.5404 1.81806C79.5635 1.73378 79.6071 1.54663 79.6868 1.49767C80.3368 1.0966 81.5411 0.476851 82.2947 0.450967C82.4339 0.446164 82.4126 0.498465 82.6008 0.424105C83.0937 -0.19871 82.9838 0.343609 83.3317 0.391241C83.394 0.302204 83.442 0.22553 83.499 0.133691C84.2642 -0.147474 86.4134 0.0470557 87.1662 0.418236C87.5474 0.606139 87.987 0.927063 88.3932 1.03976L88.4123 1.3002C88.2254 1.17576 87.9269 0.915321 87.7601 1.14365C87.7463 1.33613 87.7472 1.35201 87.773 1.54347L87.7281 1.60476C87.478 1.54881 87.2903 1.42762 87.0585 1.3441C86.7373 1.22824 85.8578 1.07076 85.573 1.24536C85.5899 1.50669 85.9481 1.55539 85.973 1.79279C85.6593 2.15722 83.9826 1.99795 83.9461 2.53089C84.0911 2.66893 84.4688 2.78608 84.6828 2.88308C84.4337 2.94903 84.1832 3.00992 83.9319 3.06573L84.1703 3.38279C83.8771 3.59239 83.4038 4.02504 83.0955 3.70869L83.0328 3.63558C82.8041 3.63278 82.591 3.79969 82.3076 3.86506C81.6211 4.24403 81.7768 4.42152 82.3547 4.76117C82.1025 4.87872 81.5793 5.07213 81.4792 5.30371C81.5593 5.5348 81.7915 5.51754 82.0091 5.56575C81.7132 5.79444 81.6759 5.80235 81.3773 5.97789C81.0317 6.18083 79.9448 6.38763 79.8167 6.6289L79.8327 6.72768C80.0276 6.74391 80.064 6.73658 80.2335 6.82134C80.4199 7.12043 79.4439 8.50842 79.1827 8.73444C79.1485 8.76401 79.0123 8.80804 78.9598 8.82045C78.7103 8.93017 78.285 9.25843 78.3143 9.55952C78.5919 9.60253 78.874 9.65136 79.1534 9.67546C78.9087 9.79354 78.6498 9.9307 78.3931 10.0125C78.1835 10.1999 77.7146 10.5043 77.9148 10.7926C78.2729 10.9734 78.9687 10.8669 79.3656 10.8145C79.201 11.0645 78.6159 11.6516 78.5643 11.8317C78.7939 11.9049 79.6223 11.6639 79.9186 11.6265C79.6694 12.1639 78.7316 13.2631 78.7392 13.4767C79.1236 13.6442 80.0623 12.9562 80.4195 13.1213C80.4297 13.2184 80.4328 13.2788 80.4337 13.3765L80.5071 13.4212C80.746 13.3536 80.6664 13.1335 80.9058 13.0841C81.017 13.1702 80.9818 13.115 81.0068 13.2594C80.7767 13.8212 80.6477 13.9444 80.1116 14.2771C79.8612 15.268 78.4313 15.7336 77.5771 16.1094C77.9611 16.1833 78.373 16.2722 78.7592 16.3127C78.6191 16.415 78.4722 16.4941 78.4122 16.6516C78.5483 17.0594 80.1161 16.5657 80.4764 16.4999C80.5725 16.6578 80.6562 16.7939 80.7411 16.9589C80.7118 17.0434 80.6615 17.1359 80.5743 17.1506C80.0476 17.24 80.25 17.4966 80.0783 17.6812C79.7428 18.0414 78.6444 18.4852 78.4651 18.942C77.715 18.7023 77.3921 18.9607 76.6785 18.9669C76.2634 18.9705 75.2958 18.2967 74.9501 18.9313C74.9697 19.0683 75.0422 19.1768 75.1601 19.2462C76.9183 20.2798 79.4216 19.2938 81.0419 20.6814C82.2164 21.6865 81.3813 22.8157 80.8426 23.8226C80.819 23.867 80.9867 24.0071 81.0196 24.0338C80.29 25.5112 79.0306 26.66 77.4917 27.2515C76.7995 27.5157 76.1144 27.6189 75.4203 27.3058C74.7588 27.413 72.9512 27.8426 72.9882 26.7552L72.9904 26.6996C72.5744 26.4007 71.0329 26.4314 72.2327 25.4574C72.0721 25.2649 71.88 25.1008 71.6642 24.9727C71.3332 24.7805 71.0934 24.8757 70.7624 24.9727C70.0835 25.171 66.7909 25.9769 66.2731 25.6576C66.2446 25.5459 66.2344 25.5024 66.1903 25.397C65.7766 25.4152 65.1973 25.8995 64.7969 25.9502C64.2564 26.0094 63.7141 25.916 63.166 25.9391C62.403 25.9707 61.6254 26.1036 60.8619 26.0191C60.7894 26.0111 60.7859 25.9644 60.7432 25.9004C60.7908 25.7728 60.7957 25.8177 60.7774 25.6998C60.5105 25.7136 60.2204 25.9996 60.0047 25.9724C59.0553 25.8132 58.5187 25.8306 57.5645 25.9636C56.4669 26.1165 54.2225 24.8717 53.1862 25.4477C51.4615 24.5422 50.0153 24.2042 48.098 24.125C47.7338 23.8822 47.4654 23.7946 47.0642 23.6353C47.2598 23.5317 47.3528 23.4939 47.5186 23.3405L47.5174 23.2827C46.6172 22.8704 44.9545 22.9095 43.8828 22.3487C44.0187 22.2531 44.2752 22.1103 44.3416 21.9871C44.1374 21.9346 43.718 22.1045 43.4783 22.0783C42.8627 22.0116 42.2256 21.8426 41.6078 21.8608C41.4654 21.8653 41.4118 22.0996 41.2068 22.0632C40.2972 21.9017 40.5529 21.6011 39.5939 21.7941C39.2351 21.5201 39.0612 21.3761 38.6213 21.232C37.0805 20.7272 35.9281 19.9942 34.7283 18.9202C32.5891 19.6109 31.0291 20.0303 28.749 19.8146C28.209 19.7634 26.2615 19.2146 26.0314 18.7321C26.0373 18.5635 26.1119 18.5088 26.2234 18.3781C25.8897 17.2973 25.8096 17.2644 26.9587 16.9158C26.8909 16.4861 26.9211 16.4377 27.0914 16.0525C27.599 15.7803 27.9136 15.7728 28.4637 15.7278L28.5211 15.6567C28.7105 15.4023 29.0646 15.2689 29.3763 14.8673C30.3791 14.8562 31.4017 14.9131 32.3883 15.1074C32.6492 15.0532 33.1526 14.4506 33.3592 14.2669C33.9111 13.7768 34.7785 13.8782 35.4593 13.9418C35.6611 13.8933 35.7921 13.888 35.8741 13.6883C35.8455 13.522 35.7192 13.3986 35.6098 13.2635C35.4672 13.086 35.3021 12.9519 35.1316 12.8007C34.903 12.5549 34.5749 12.2656 34.3242 12.0318C34.6481 12.02 34.8308 12.0077 35.1499 11.9586C35.3453 11.9338 35.4999 11.9333 35.6436 11.8021C35.671 11.3756 34.0568 11.0902 33.89 10.7005L33.9286 10.6254C34.1191 10.4991 34.2966 10.4674 34.5177 10.4055C33.962 10.0817 33.82 9.95823 33.1792 9.88952C33.0693 9.78994 32.9409 9.68596 32.8266 9.58901C31.8573 9.43086 30.9915 9.48383 30.0269 9.44109C29.7187 9.42743 29.1793 9.13946 28.7656 9.18016C28.2207 9.2337 27.7662 9.45047 27.2471 9.56161C26.9099 9.63379 26.4083 9.62494 26.0486 9.66105C25.5222 9.70379 25.0514 9.99666 24.5724 10.1935C23.2929 10.7089 22.0524 11.5117 20.9436 12.2996C19.2376 13.5119 17.8896 14.8379 17.0663 16.7912C16.9394 17.0923 16.769 17.4361 16.6432 17.7572C16.4778 18.1793 16.4092 19.1964 16.1678 19.4783C16.0568 19.5273 16.0299 19.5339 15.9339 19.6055C15.8806 20.9278 15.9255 22.3051 16.4226 23.5531C16.5776 23.9418 17.2553 24.5853 17.0311 24.9344C15.8426 25.5313 13.9383 22.6187 13.5613 21.7572C13.2167 20.97 13.5956 20.8433 12.9349 20.2139L13.2425 19.8697C13.1522 19.6127 12.9313 19.1959 12.8046 18.9411L13.0034 17.9747L12.8349 17.5593C12.9673 16.7539 13.1254 15.803 13.3659 15.0252C13.6598 14.0743 14.1522 13.0937 14.5056 12.1534C14.6022 11.8963 15.0977 11.2269 15.263 10.9747C16.6732 8.82259 18.555 7.00609 20.7109 5.60707C21.3142 5.21556 21.914 4.70945 22.5648 4.3601C23.1553 4.04318 23.7797 3.74694 24.3939 3.47178C24.634 3.36415 24.6914 3.52599 24.8474 3.43091C24.9083 3.39377 25.0398 3.09286 25.1485 3.0426C25.4969 2.88139 25.852 3.16019 26.2016 3.0265C26.2131 1.91376 27.085 2.7215 27.3478 2.68784L27.4957 2.42677C28.2028 1.94619 29.6602 2.26324 30.5456 2.13431L30.6157 2.12381L30.4153 1.65106C30.461 1.65902 30.5067 1.66693 30.5524 1.67489C31.1867 1.74361 31.5347 2.39658 32.0934 1.79404C32.3236 1.89824 32.4718 2.01788 32.7173 1.90496C33.0326 1.45942 33.0076 1.8672 33.3842 1.98488L33.4808 1.934C33.7556 1.42157 33.8633 1.49451 34.416 1.46965C34.6387 1.63678 35.0887 1.92969 35.3566 1.9545L35.4187 1.89669C35.396 1.81436 35.37 1.75121 35.3355 1.67378C35.5253 1.44959 36.3036 1.6507 36.5702 1.67467C36.9489 1.69157 36.8194 1.96273 37.1898 2.03207C38.536 2.2841 39.3546 2.26675 40.584 2.91768C41.1999 3.24371 42.5465 3.32559 43.2484 3.73578C44.0476 4.20284 44.7254 3.85986 45.6663 4.41134C45.7918 4.30122 45.7904 4.30064 45.9402 4.22899C46.1807 4.2233 46.365 4.35343 46.5968 4.46426C46.493 4.26755 46.348 4.11643 46.5276 3.94543C46.9517 3.84278 47.9503 4.43731 48.4576 4.45564L48.4865 4.41218L48.4056 4.16949L48.4352 4.11688C49.108 3.89482 51.6269 4.99773 52.3847 5.26342L58.0409 7.30255C58.5214 7.47649 59.2368 7.60813 59.6381 7.77856C60.3343 8.07422 61.81 8.82379 62.557 8.8623C62.8003 8.75098 62.5454 8.8462 62.6962 8.60755C63.4174 8.51447 65.2934 9.77838 66.1739 9.68867C66.225 9.4989 66.0537 9.53244 66.0315 9.25839C66.2837 9.18122 66.7358 9.40577 67.0036 9.50046C67.589 9.70744 67.8586 9.37762 68.4072 9.34849C68.9063 9.32199 69.7903 9.63819 70.2419 9.41738L70.2624 9.34645C70.1978 9.25292 70.1596 9.19514 70.1044 9.0961C70.3651 8.8639 72.2537 9.27782 72.6287 8.60809C72.6122 8.44545 72.4596 8.33546 72.3413 8.16624L72.364 8.08405C72.5504 7.97518 72.8676 7.96312 73.0807 7.96895L73.1483 7.97113C73.526 7.65381 74.7112 6.74053 74.9483 6.41916C74.9452 6.2812 74.8402 6.177 74.7535 6.05835C75.1823 5.8748 75.4484 5.76379 75.8376 5.50544L75.5672 5.12706Z" fill="#664D52"/>
<path d="M29.376 14.8675C30.3788 14.8564 31.4013 14.9133 32.388 15.1077C32.6327 15.6223 30.9714 16.1297 30.5814 16.2591L30.1916 16.0492C29.9156 16.0715 29.6625 16.0941 29.3878 16.1288C29.1147 16.0123 28.7491 15.85 28.5208 15.657C28.7102 15.4026 29.0642 15.2691 29.376 14.8675Z" fill="#4C383E"/>
<path d="M76.0831 7.02583C76.4497 6.21925 76.8523 6.04629 77.6812 5.80315C77.9672 5.71927 78.5051 5.49788 78.764 5.75094C78.5447 6.10095 77.1824 6.214 76.9093 6.72149C76.6508 7.20212 76.8087 7.72358 76.9226 8.20822C77.392 8.6401 77.7844 9.1226 78.2831 9.56868C78.2439 9.75115 78.2408 9.74382 78.1349 9.90232C76.7674 9.52754 76.2709 8.29085 76.0831 7.02583Z" fill="#4C383E"/>
<path d="M35.6096 13.2638C35.7844 13.0858 35.803 13.0621 36.0681 13.0592C36.6048 13.0533 37.7194 13.3359 37.7423 14.014C37.579 14.2924 37.2707 14.1065 37.0696 14.2733C37.1455 14.6576 38.2265 15.1379 38.5873 15.322C36.8731 15.5826 37.3833 14.5415 35.8282 14.5437C35.6663 14.4405 35.54 14.3867 35.4536 14.2199C35.436 14.0781 35.4297 14.0794 35.4591 13.942C35.6609 13.8935 35.7919 13.8882 35.8739 13.6885C35.8453 13.5222 35.719 13.3988 35.6096 13.2638Z" fill="#4C383E"/>
<path d="M79.8326 6.72803C80.0274 6.74426 80.0639 6.73692 80.2334 6.82169C80.4198 7.12078 79.4438 8.50877 79.1826 8.73479C79.1483 8.76436 79.0122 8.80839 78.9597 8.8208C78.6661 8.50508 77.9089 7.9882 77.8573 7.58028C77.7465 6.69885 79.5109 7.11477 79.8326 6.72803Z" fill="#4C383E"/>
<path d="M34.3243 12.0317C34.6483 12.0199 34.831 12.0076 35.1501 11.9585C35.169 12.3109 35.1793 12.4541 35.1318 12.8005C34.9031 12.5548 34.575 12.2655 34.3243 12.0317Z" fill="#584A50"/>
<path d="M83.8479 3.13965L83.932 3.06592L84.1704 3.38297C83.8772 3.59258 83.4039 4.02522 83.0956 3.70888C83.4413 3.52943 83.6539 3.46934 83.8479 3.13965Z" fill="#8C858B"/>
<path d="M78.3139 9.55957C78.5915 9.60258 78.8736 9.65141 79.153 9.67551C78.9083 9.79359 78.6494 9.93075 78.3927 10.0126L78.1346 9.90229C78.2405 9.74378 78.2436 9.75112 78.2828 9.56864L78.3139 9.55957Z" fill="#584A50"/>
<path d="M83.8487 3.13965C83.6547 3.46933 83.442 3.52942 83.0964 3.70887L83.0336 3.63576C82.805 3.63296 82.5919 3.79987 82.3085 3.86524C82.6426 3.5948 83.4331 3.27676 83.8487 3.13965Z" fill="#DEDBDB"/>
<path d="M23.7585 7.56868C24.1114 7.50174 24.3911 7.7274 24.6723 7.91384C23.7657 8.41075 22.607 9.02044 21.6091 9.16988C21.1441 9.14915 21.0146 9.09347 20.6982 8.76067C21.3435 8.37343 22.9657 7.84495 23.7585 7.56868Z" fill="#4C383E"/>
<path d="M42.048 5.3457C42.8051 5.45378 44.4483 6.12618 44.9981 6.67312L44.9631 6.72235C43.7884 6.45231 44.0198 7.21472 42.3574 6.24786C42.1863 5.92346 42.1082 5.70141 42.048 5.3457Z" fill="#4C383E"/>
<path d="M50.1775 15.9221C50.7459 15.8856 50.4872 16.2449 51.163 16.0515C51.4678 16.2134 51.7464 16.3499 52.0602 16.4904C52.3486 16.6199 52.8214 16.6915 52.9744 16.965C51.8052 16.9063 50.2389 17.5405 50.1775 15.9221Z" fill="#4C383E"/>
<path d="M43.9919 8.16699C44.9023 8.40253 45.1079 8.73021 45.8234 9.26341C46.0348 9.42103 46.2301 9.34124 46.4687 9.28004C46.9953 9.48498 47.2146 9.60857 47.566 10.0474C47.3878 10.0696 47.1571 10.0059 46.9793 9.96548C46.8474 9.82663 46.7372 9.64882 46.6285 9.48907C45.3118 9.28422 44.6768 9.6953 43.9919 8.16699Z" fill="#4C383E"/>
<path d="M72.805 13.4946C72.9857 13.4697 73.0426 13.4632 73.1792 13.5371C73.2312 13.6745 73.2312 13.6079 73.1814 13.7443C72.8335 14.0881 71.8552 14.3754 71.3721 14.4505C71.1309 14.4683 71.066 14.4639 70.9361 14.2522C70.9267 13.7776 72.4273 13.5679 72.805 13.4946Z" fill="#4C383E"/>
<path d="M50.2034 19.1422C50.7932 19.1017 51.0104 19.1497 51.3768 19.6274C50.9565 19.7884 50.7219 19.8222 50.2761 19.8497C49.746 19.8488 49.4267 19.7928 48.9554 19.5544C49.4105 19.361 49.7162 19.2204 50.2034 19.1422Z" fill="#4C383E"/>
<path d="M67.4783 18.8828C67.6869 18.8534 68.2208 18.9005 68.2768 19.1434C68.082 19.4244 67.0659 19.553 66.7091 19.6166C66.4573 19.6748 66.1441 19.7229 65.8851 19.77C66.2762 19.5067 66.407 19.4618 66.6076 19.0331C66.9484 18.9544 67.1317 18.9197 67.4783 18.8828Z" fill="#4C383E"/>
<path d="M67.514 20.6237L67.5687 20.6206C67.7368 20.7136 67.6875 20.6491 67.7595 20.7905C67.514 21.1774 65.9978 21.2139 65.5574 21.0471C65.3385 20.9444 65.0947 20.843 64.8713 20.7447C65.7607 20.6882 66.6175 20.6944 67.514 20.6237Z" fill="#4C383E"/>
<path d="M47.5409 11.4297C47.8881 11.4684 48.2519 11.5353 48.5983 11.593C49.2044 12.2496 49.207 12.0368 49.8639 12.387L49.9116 12.4129C49.3255 12.4508 48.7371 12.3996 48.1663 12.2613C47.9551 11.9906 47.747 11.7053 47.5409 11.4297Z" fill="#4C383E"/>
<path d="M75.724 17.0933C76.2703 17.1266 77.1467 17.2485 77.7184 17.2987C77.8141 17.3072 77.8537 17.3912 77.8897 17.4646L77.8492 17.5376C77.0796 17.7426 76.273 17.7653 75.724 17.0933Z" fill="#4C383E"/>
<path d="M71.1652 10.8242C71.1647 10.9211 71.005 11.1672 70.9423 11.247C70.6118 11.6698 70.0112 11.7972 69.5124 11.8731C69.4462 11.3271 70.7537 10.9616 71.1652 10.8242Z" fill="#4C383E"/>
<path d="M48.8628 20.7814C49.3666 20.7494 50.8198 20.7022 51.1068 21.1759C50.3964 21.3249 49.4354 21.2604 48.8628 20.7814Z" fill="#4C383E"/>
<path d="M55.2663 22.4468C55.4879 22.4659 55.5653 22.594 55.7259 22.7581C56.0315 22.7799 56.3327 22.847 56.6188 22.9578C56.778 23.0214 56.8434 23.0516 56.9026 23.1913L56.8043 23.2678C56.375 23.2438 55.2512 23.2011 55.1084 22.7163C55.1435 22.5348 55.1226 22.598 55.2663 22.4468Z" fill="#4C383E"/>
<path d="M35.0479 16.5645C35.4018 16.5996 35.9901 16.9798 36.4076 17.1506C36.5462 17.3356 36.6144 17.4384 36.7292 17.6389C36.4552 17.6687 36.3872 17.6732 36.1381 17.5442C35.7751 17.3561 35.142 16.9865 35.0479 16.5645Z" fill="#4C383E"/>
<path d="M38.7795 13.7563C39.3697 13.9133 40.247 13.8662 40.4549 14.4888C39.8362 14.5974 39.016 14.407 38.7795 13.7563Z" fill="#4C383E"/>
<path d="M68.8097 9.89279C69.0179 9.86944 69.409 9.77485 69.481 10.0214C69.3396 10.2737 69.0775 10.3044 68.7959 10.3885C68.5681 10.4214 68.1869 10.4419 68.024 10.2507L68.0316 10.1722C68.2189 9.95154 68.5223 9.94145 68.8097 9.89279Z" fill="#4C383E"/>
<path d="M70.7198 12.5582C70.7572 12.5533 70.7879 12.566 70.8284 12.5754C70.6633 13.0052 70.0436 13.3111 69.5752 13.2424C69.4564 13.162 69.3607 13.0976 69.3407 12.9562C69.5373 12.7344 70.3648 12.6308 70.7198 12.5582Z" fill="#4C383E"/>
<path d="M45.3058 5.38398C45.6364 5.37175 46.1051 5.52648 46.4369 5.61961C46.6258 5.83602 46.8002 6.06124 46.9781 6.28663C46.1748 6.2776 45.9545 5.81703 45.3058 5.38398Z" fill="#4C383E"/>
<path d="M72.0681 12.3701L72.1718 12.4083L72.2007 12.4867C71.9965 12.9487 71.5645 13.0986 71.1076 13.1756L70.9724 13.1056L70.9554 13.0204C71.0929 12.7527 71.7852 12.4646 72.0681 12.3701Z" fill="#4C383E"/>
<path d="M43.6143 9.14453C44.2508 9.2309 44.5155 9.66883 44.8413 10.1674C44.0327 9.91673 43.9016 9.95022 43.6143 9.14453Z" fill="#4C383E"/>
<path d="M51.95 20.6482C52.2376 20.6424 53.0393 20.7567 53.01 21.1449L52.9032 21.2201C52.5286 21.2414 52.0309 21.1943 51.8293 20.8261C51.8551 20.6806 51.8202 20.7402 51.95 20.6482Z" fill="#4C383E"/>
<path d="M52.3702 19.0511C52.9049 18.9902 53.2322 19.1036 53.4902 19.6013C52.8327 19.805 52.6365 19.6342 52.3702 19.0511Z" fill="#4C383E"/>
<path d="M27.4169 17.4844C27.508 17.4857 27.8119 17.5315 27.9269 17.5426C28.3365 17.5827 29.1032 17.5093 29.4564 17.6721L29.4664 17.7312C28.7715 17.8651 27.9947 17.9989 27.4169 17.4844Z" fill="#4C383E"/>
<path d="M48.8486 12.749C49.2683 12.8178 49.6306 13.0718 49.7368 13.4972C49.1229 13.4772 48.8804 13.3955 48.8486 12.749Z" fill="#4C383E"/>
<path d="M15.4606 14.1279C15.5761 14.1608 15.5236 14.1355 15.6099 14.2218C15.6647 14.4615 15.5626 14.8324 15.3605 14.9734C14.9215 14.7056 15.2396 14.4188 15.4606 14.1279Z" fill="#4C383E"/>
<path d="M40.5775 13.8477C40.9435 13.833 41.3657 13.9758 41.3613 14.4112C41.1126 14.368 40.5189 14.1652 40.5775 13.8477Z" fill="#4C383E"/>
<path d="M15.8331 13.1479C15.9348 13.2009 15.8926 13.1636 15.9426 13.2812C15.9231 13.4865 15.8312 13.6349 15.7405 13.823C15.6207 13.7318 15.6648 13.7887 15.6112 13.6406C15.6313 13.4471 15.7316 13.3188 15.8331 13.1479Z" fill="#4C383E"/>
<path d="M91.8837 7.17413C92.0777 7.06712 92.2312 6.94171 92.4069 6.80811C92.3419 7.72756 91.9295 8.36132 91.4878 9.14664C91.3125 9.45778 91.1238 9.83897 90.9139 10.1201C90.8022 10.18 90.7145 10.1474 90.5851 10.1266C90.243 10.3177 90.1954 11.0479 89.956 11.3591C89.6882 11.7075 89.4551 11.2911 89.3056 11.813C89.0751 12.6179 89.3621 13.2287 88.3099 13.2233C88.1026 13.6363 88.0056 13.965 87.8628 14.4017C87.6978 14.9074 87.6924 15.0817 87.1399 15.0946C86.7422 15.3424 87.0144 16.2399 86.5696 16.5378C86.2439 16.7558 86.0264 16.4596 85.7995 16.8496C85.759 17.1067 86.1189 17.5919 86.2061 17.933C86.4334 18.3928 86.3983 20.0918 86.2332 20.5845C86.1055 20.6664 85.9894 20.5805 85.9672 20.6406C85.6682 21.442 85.0449 22.283 84.3749 22.8349C83.6035 23.4704 82.0495 24.4925 81.0196 24.0339C80.9867 24.0072 80.819 23.8672 80.8426 23.8227C81.3813 22.8158 82.2164 21.6866 81.0419 20.6815C79.4216 19.2939 76.9182 20.2799 75.1601 19.2463C75.0422 19.1769 74.9696 19.0684 74.9501 18.9314C75.2957 18.2968 76.2634 18.9706 76.6784 18.967C77.392 18.9608 77.715 18.7024 78.4651 18.9421C79.1271 19.1391 79.8198 19.0951 80.4724 18.8821C80.7149 18.8024 80.9195 18.6477 81.1589 18.7477C81.1442 18.915 81.1469 18.9283 81.2501 19.0431C81.7906 19.1387 82.4606 17.9574 82.7965 17.6306C82.9193 17.5114 83.4122 17.4095 83.5964 17.3668C83.5733 17.3966 83.5501 17.4264 83.5279 17.4562C83.3913 17.6372 83.3183 17.6919 83.3486 17.9067L83.4345 17.965C84.1783 17.9147 84.8358 16.1718 85.0885 15.5727C85.0903 15.8236 85.0445 16.0081 85.242 16.1816L85.3581 16.1687C85.7657 15.8636 86.0806 14.7357 85.9094 14.2528C85.9062 14.0935 85.9378 14.0073 86.0224 13.8783C86.8116 13.7578 86.9032 13.186 87.2075 12.6644C87.3748 12.3767 88.1391 11.556 88.4812 11.3858C88.8371 11.2088 89.5 10.26 89.8897 9.87668C90.0392 9.86321 90.1006 9.86494 90.2434 9.8106C90.3978 9.62163 90.2399 9.44862 90.3818 9.28131C90.7328 8.86646 91.813 8.12943 91.522 7.5204C91.3748 7.4045 91.3547 7.40704 91.1674 7.35976C91.2551 7.29372 91.2671 7.21803 91.3165 7.10555C91.4993 7.12263 91.6995 7.15158 91.8837 7.17413Z" fill="#4C383E"/>
<path d="M91.8843 7.17413C92.0782 7.06712 92.2317 6.94171 92.4074 6.80811C92.3425 7.72756 91.9301 8.36132 91.4883 9.14664C91.313 9.45778 91.1244 9.83897 90.9144 10.1201C90.8027 10.18 90.7151 10.1474 90.5856 10.1266C90.2435 10.3177 90.1959 11.0479 89.9566 11.3591C89.6888 11.7075 89.4556 11.2911 89.3062 11.813C89.0757 12.6179 89.3627 13.2287 88.3105 13.2233C88.1032 13.6363 88.0062 13.965 87.8634 14.4017C87.6983 14.9074 87.693 15.0817 87.1405 15.0946C86.7427 15.3424 87.015 16.2399 86.5701 16.5378C86.2445 16.7558 86.0269 16.4596 85.8 16.8496C85.7595 17.1067 86.1194 17.5919 86.2066 17.933C86.0167 17.6741 85.7844 17.1258 85.6412 16.8136C85.5825 16.9843 85.3961 17.5598 85.3031 17.6715C84.8733 18.1865 84.3377 18.681 83.8612 19.1565C83.387 19.6292 82.8633 20.1131 82.2752 20.4329C81.7703 20.7006 81.7129 20.4111 81.5233 20.0108C81.2453 19.909 80.8965 19.8133 80.6754 19.639C80.5962 19.3779 81.0549 19.0315 81.1594 18.7477C81.1448 18.915 81.1474 18.9283 81.2506 19.0431C81.7912 19.1387 82.4612 17.9574 82.7971 17.6306C82.9198 17.5114 83.4128 17.4095 83.597 17.3668C83.5738 17.3966 83.5507 17.4264 83.5284 17.4562C83.3919 17.6372 83.3189 17.6919 83.3492 17.9067L83.435 17.965C84.1789 17.9147 84.8364 16.1718 85.0891 15.5727C85.0909 15.8236 85.0451 16.0081 85.2426 16.1816L85.3587 16.1687C85.7662 15.8636 86.0812 14.7357 85.9099 14.2528C85.9068 14.0935 85.9384 14.0073 86.0229 13.8783C86.8121 13.7578 86.9038 13.186 87.2081 12.6644C87.3754 12.3767 88.1397 11.556 88.4818 11.3858C88.8377 11.2088 89.5006 10.26 89.8903 9.87668C90.0398 9.86321 90.1012 9.86494 90.244 9.8106C90.3983 9.62163 90.2404 9.44862 90.3823 9.28131C90.7333 8.86646 91.8135 8.12943 91.5226 7.5204C91.3753 7.4045 91.3553 7.40704 91.168 7.35976C91.2556 7.29372 91.2676 7.21803 91.317 7.10555C91.4999 7.12263 91.7001 7.15158 91.8843 7.17413Z" fill="#ACA6AA"/>
<path d="M90.6888 1.87513C92.4821 1.14665 92.1449 3.08914 91.68 4.07468C91.6595 4.11836 91.6386 4.16176 91.6173 4.20486C91.2258 4.23612 90.6963 4.25187 90.3173 4.15563C88.3478 3.656 89.4226 2.46721 90.5798 1.90657L90.6888 1.87513Z" fill="#4C383E"/>
<path d="M84.6684 4.69614C84.9625 4.55009 85.4207 4.30521 85.7384 4.44793C86.1851 4.64855 86.5859 5.48208 86.3577 5.95111C86.1802 6.31615 85.9017 6.37388 85.5564 6.48511L85.5191 6.49712C85.1965 6.34257 84.9719 6.26291 84.765 5.96249C84.5772 5.61746 84.5105 5.52985 84.5394 5.12843L84.6684 4.69614Z" fill="#4C383E"/>
<path d="M84.5394 5.12842C84.7334 5.16262 84.8455 5.16208 84.9986 5.27403C85.1382 5.52557 84.9136 5.74683 84.765 5.96248C84.5772 5.61745 84.5105 5.52984 84.5394 5.12842Z" fill="#584A50"/>
<path d="M91.5303 6.27139C91.7733 5.64934 91.5726 5.23151 91.8467 4.78974C91.9779 4.83787 92.2586 6.39446 92.9571 5.39299C93.1026 5.18467 93.3028 4.80046 93.2467 4.5466C93.2271 4.45632 93.2191 4.48163 93.2209 4.38094L93.3086 4.33984C93.3121 4.52717 93.2948 4.58908 93.4829 4.6831C93.1475 5.39343 93.1444 5.62866 92.5135 6.13784C92.4811 6.34158 92.4459 6.61024 92.4063 6.80797C92.2306 6.94157 92.0771 7.06699 91.8831 7.174C91.699 7.15145 91.4988 7.1225 91.3159 7.10542C91.5401 6.9172 91.7799 6.76733 91.7715 6.45628C91.6705 6.30698 91.7119 6.35576 91.5303 6.27139Z" fill="#8C858B"/>
<path d="M91.5311 6.27148C91.7126 6.35585 91.6713 6.30707 91.7723 6.45636C91.7807 6.76742 91.5409 6.91729 91.3167 7.10551C91.2673 7.21798 91.2553 7.29368 91.1677 7.35972C90.4292 7.52045 90.0061 7.94936 89.1234 7.63844C88.9739 7.58569 88.6883 7.37222 88.6167 7.23226C88.8538 7.08296 90.2668 8.21185 91.4969 6.32548L91.5311 6.27148Z" fill="#584A50"/>
<path d="M86.0868 7.29346L86.1428 7.33571C86.1317 7.58619 85.7522 7.71098 85.4911 7.92975C84.6507 8.63302 84.2249 9.41758 83.7284 10.3586L83.6719 10.3475C83.6323 10.1974 83.7022 9.97017 83.7542 9.81985C84.0932 8.83786 85.1747 7.74229 86.0868 7.29346Z" fill="#584A50"/>
<path d="M87.2707 7.29248L87.3605 7.33317C87.3396 7.47109 87.0504 7.69866 86.9321 7.81825C86.7119 8.04071 86.5126 8.28318 86.3373 8.54251C85.8048 9.31658 85.4248 10.1352 85.3083 11.0707C85.1766 10.9505 85.1285 10.7973 85.1632 10.6236C85.4146 9.36826 86.3111 8.09212 87.2707 7.29248Z" fill="#4C383E"/>
<path d="M82.8427 13.4629L82.9121 13.4923C83.1314 13.8919 81.8141 14.7632 81.4751 14.9291C81.3644 14.897 81.4013 14.9308 81.3466 14.8432C81.4342 14.6173 82.5922 13.6184 82.8427 13.4629Z" fill="#8C858B"/>
<path d="M87.7515 7.77295L87.8147 7.81813C87.8449 8.01631 87.3231 8.60088 87.2421 8.99625C87.1798 9.29143 87.1598 9.59394 87.182 9.89476C87.1976 10.0936 87.2341 10.2111 87.1972 10.4136C86.4564 9.81836 87.3044 8.33853 87.7515 7.77295Z" fill="#4C383E"/>
<path d="M93.1861 3.6167C93.5989 3.65633 94.3837 3.76208 94.607 4.15154L94.5327 4.205C94.2534 4.13847 93.2493 3.89271 93.094 3.68128L93.1861 3.6167Z" fill="#584A50"/>
<path d="M85.0977 15.0293C85.2236 14.7607 85.8775 13.5764 86.1 13.501L86.1089 13.6022L86.1009 13.516C86.1227 13.4953 86.0448 13.8156 86.0217 13.8779C85.9372 14.0069 85.9056 14.0931 85.9087 14.2524C85.688 14.5228 85.3615 14.8043 85.0977 15.0293Z" fill="#8C858B"/>
<path d="M93.4992 2.50436C93.6482 2.49493 93.7692 2.46566 93.8902 2.54002L93.8631 2.60536C93.6202 2.7519 93.3087 2.85446 93.0383 2.95603C92.9706 2.98045 92.8025 3.04552 92.7446 2.98699L92.7749 2.89515C93.0663 2.63756 93.137 2.62853 93.4992 2.50436Z" fill="#4C383E"/>
<path d="M93.3093 4.33984C93.6314 4.5567 94.1444 4.9893 94.1777 5.39477C93.865 5.24155 93.7115 4.90902 93.4837 4.6831C93.2955 4.58908 93.3129 4.52717 93.3093 4.33984Z" fill="#4C383E"/>
<path d="M89.1753 1.2085C89.8698 1.22104 90.3556 1.1739 90.6892 1.87561L90.5802 1.90705C90.3444 1.32724 89.8097 1.44634 89.3492 1.35308L89.3991 1.32831L89.3888 1.27138L89.1753 1.2085Z" fill="#8C858B"/>
<path d="M88.3934 1.03955C88.6644 1.1188 88.8895 1.18823 89.1751 1.20793L89.3886 1.27082L89.3989 1.32774L89.349 1.35251C89.0029 1.33553 88.6906 1.45921 88.4126 1.29999L88.3934 1.03955Z" fill="#4C383E"/>
<path d="M86.9838 6.80127L87.1191 6.8377L87.1453 6.90071C87.0065 7.08533 86.6742 7.19264 86.454 7.26745C86.3606 7.26642 86.3815 7.26438 86.2889 7.23627L86.2965 7.16231C86.5096 6.99749 86.7374 6.91219 86.9838 6.80127Z" fill="#584A50"/>
<path fill-rule="evenodd" clip-rule="evenodd" d="M83.9084 61.5063H78.6789L78.6799 59.3364C76.2017 62.0502 72.647 62.2893 69.2981 61.1929C68.0886 60.7611 66.9879 60.0715 66.0725 59.1714C64.0955 57.2043 63.4078 54.7961 63.3586 52.061C63.2598 46.549 67.2216 42.2795 72.8059 42.3696C75.166 42.4077 76.7517 42.9229 78.4406 44.6421L78.4387 35.4966L83.9094 35.4956L83.9084 61.5063ZM74.4045 57.2456C80.5812 56.4432 79.6394 46.0429 73.135 46.8901C66.9937 47.6111 67.525 57.9717 74.4045 57.2456Z" fill="#2D569C"/>
<path d="M9.94621 36.5626C13.2515 36.4047 16.4606 37.0717 19.3511 38.7016L17.6028 43.0134C15.561 41.9658 13.7055 41.217 11.3627 41.1202C9.39389 41.0389 6.28118 41.265 6.12535 43.8535C6.04588 45.1732 7.31263 45.8082 8.37682 46.1497C13.1096 47.7527 20.6318 47.7757 20.3958 54.5751C20.3361 56.3674 19.5656 58.0612 18.2545 59.2845C15.7297 61.6358 12.1824 62.0059 8.89886 61.8774C5.81593 61.7293 2.53014 60.8947 0 59.0833L1.92601 54.8167C4.37603 56.5024 7.28574 57.3922 10.2594 57.366C12.0152 57.3457 14.863 56.9216 14.7483 54.5981C14.6496 52.5992 11.0986 51.9816 9.57574 51.617C8.65224 51.4039 7.7347 51.1661 6.82404 50.9032C5.14523 50.414 3.98085 50.0391 2.58157 48.9213C-0.207044 46.7536 -0.0839598 42.1845 2.13453 39.6597C4.11903 37.4011 7.08214 36.7478 9.94621 36.5626Z" fill="#2D569C"/>
<path fill-rule="evenodd" clip-rule="evenodd" d="M96.6139 42.409C97.1266 42.33 97.8974 42.3597 98.403 42.3855C103.081 42.625 106.825 45.9256 107.338 50.6365C107.457 51.7329 107.412 52.5084 107.337 53.6053L93.0495 53.6033C94.0989 57.3304 97.9001 58.0919 101.26 56.8797C101.968 56.6244 102.636 56.0749 103.198 55.5857L104.071 56.5271C104.748 57.2654 105.427 58.0015 106.111 58.7332C104.436 60.5483 102.459 61.432 100.015 61.6971C96.7567 62.0348 93.5256 61.4761 90.9196 59.4041C86.8726 56.1858 86.4667 49.8075 89.7028 45.8846C91.4775 43.7333 93.8664 42.6779 96.6139 42.409ZM97.3825 46.5096C94.8908 46.7223 93.4755 47.9715 92.988 50.4217H98.0319L102.285 50.4207C101.748 47.8657 100.042 46.4019 97.3825 46.5096Z" fill="#2D569C"/>
<path d="M24.5889 38.4668L30.0533 38.4674L30.0515 43.0571L34.7532 43.0565L34.7521 47.2667L30.0505 47.2661L30.0467 52.5816C30.0465 53.4845 29.9955 54.5301 30.0933 55.4189C30.361 57.8512 32.9672 57.8309 34.6023 56.7323L35.7748 59.8101L36.0722 60.5972C32.5486 62.9496 25.6472 61.9521 24.8171 57.1565C24.5392 55.5517 24.583 54.2186 24.583 52.604L24.5845 47.2667L21.6659 47.2661L21.6659 43.056L24.5845 43.0567L24.5889 38.4668Z" fill="#2D569C"/>
<path d="M49.7941 42.4091C50.0563 42.3768 50.5964 42.3732 50.8801 42.3628L50.8799 47.4036C48.0905 47.2211 45.489 47.6955 44.8037 50.9269C44.5178 52.2753 44.6332 53.8986 44.6335 55.2924L44.6364 61.5059L39.1641 61.5064L39.1664 60.3422L39.1632 42.6448L44.3859 42.6454L44.3867 45.1261C44.4548 45.0347 44.5245 44.9446 44.5959 44.8557C45.9023 43.2364 47.7928 42.621 49.7941 42.4091Z" fill="#2D569C"/>
<path d="M54.1357 42.6457L59.607 42.6455L59.6075 61.5062H54.1357V42.6457Z" fill="#2D569C"/>
<path d="M56.4294 33.9339C60.8009 33.4003 61.876 39.1414 57.4285 39.9799C55.6461 40.1184 53.8074 39.4146 53.5035 37.4222C53.3751 36.627 53.5768 35.8137 54.0621 35.1709C54.6705 34.3789 55.4767 34.0587 56.4294 33.9339Z" fill="#2D569C"/>
</svg>
