<svg width="186" height="63" viewBox="0 0 186 63" fill="none" xmlns="http://www.w3.org/2000/svg">
<path d="M180.891 6.80237C179.676 4.98048 177.328 4.3845 176.096 4.3845C175.326 2.6675 173.395 2.88801 172.766 2.93458C172.263 2.97184 170.332 2.3415 169.429 2.02168L166.52 1.71875L162.702 2.3246L149.126 8.08021L142.035 22.136L137.308 41.3415L150.157 45.3402L156.884 44.3102L167.914 32.3143L175.308 23.1054L179.308 17.6527L179.126 14.9263C180.035 14.0782 181.938 11.6097 182.229 10.7373C182.592 9.64677 181.043 7.02938 180.891 6.80237Z" fill="#D9D9D9"/>
<path d="M141.951 11.596C142.662 11.1498 143.785 10.4634 144.345 9.87691C145.773 8.37916 146.687 6.93814 148.293 5.56431C149.179 4.80588 150.436 4.61114 150.938 4.11193C150.99 3.92131 151.088 3.49804 151.269 3.38729C152.739 2.4802 155.462 1.0785 157.167 1.01996C157.482 1.0091 157.434 1.12739 157.859 0.959205C158.974 -0.449425 158.726 0.777146 159.512 0.884875C159.653 0.683499 159.762 0.510084 159.891 0.30237C161.621 -0.333545 166.482 0.106427 168.185 0.945931C169.047 1.37091 170.041 2.09675 170.96 2.35164L171.003 2.94069C170.581 2.65924 169.905 2.0702 169.528 2.58661C169.497 3.02196 169.499 3.05787 169.557 3.4909L169.456 3.62951C168.89 3.50297 168.466 3.22887 167.941 3.03996C167.215 2.77793 165.226 2.42175 164.582 2.81666C164.62 3.40771 165.43 3.51786 165.486 4.05479C164.777 4.87901 160.984 4.51881 160.902 5.72415C161.23 6.03637 162.084 6.30132 162.568 6.5207C162.005 6.66987 161.438 6.80758 160.87 6.93381L161.409 7.6509C160.746 8.12497 159.675 9.10349 158.978 8.38801L158.836 8.22264C158.319 8.21631 157.837 8.59381 157.196 8.74167C155.644 9.59878 155.996 10.0002 157.303 10.7684C156.732 11.0343 155.549 11.4717 155.323 11.9955C155.504 12.5181 156.029 12.4791 156.521 12.5882C155.852 13.1054 155.767 13.1233 155.092 13.5203C154.31 13.9793 151.852 14.447 151.562 14.9927L151.599 15.2161C152.039 15.2528 152.122 15.2362 152.505 15.4279C152.927 16.1044 150.719 19.2436 150.129 19.7548C150.051 19.8217 149.743 19.9213 149.624 19.9494C149.06 20.1975 148.098 20.9399 148.164 21.6209C148.792 21.7182 149.43 21.8286 150.062 21.8832C149.509 22.1502 148.923 22.4604 148.343 22.6455C147.869 23.0693 146.808 23.7577 147.261 24.4097C148.071 24.8188 149.645 24.5778 150.542 24.4593C150.17 25.0247 148.847 26.3527 148.73 26.76C149.249 26.9255 151.123 26.3804 151.793 26.2957C151.229 27.5112 149.108 29.9975 149.125 30.4804C149.995 30.8594 152.118 29.3033 152.926 29.6767C152.949 29.8963 152.956 30.0329 152.958 30.2538L153.124 30.3551C153.664 30.202 153.484 29.7041 154.026 29.5926C154.277 29.7872 154.198 29.6623 154.254 29.9889C153.734 31.2597 153.442 31.5384 152.23 32.2908C151.663 34.5319 148.429 35.585 146.497 36.435C147.366 36.602 148.297 36.8031 149.171 36.8947C148.854 37.126 148.522 37.3051 148.386 37.6611C148.694 38.5835 152.24 37.467 153.055 37.3181C153.272 37.6752 153.461 37.983 153.653 38.3562C153.587 38.5473 153.473 38.7565 153.276 38.7897C152.085 38.9919 152.542 39.5723 152.154 39.9897C151.395 40.8045 148.911 41.8084 148.506 42.8414C146.809 42.2992 146.079 42.8837 144.465 42.8977C143.526 42.9058 141.337 41.3819 140.556 42.8173C140.6 43.1271 140.764 43.3725 141.03 43.5294C145.007 45.8671 150.669 43.637 154.333 46.7754C156.99 49.0487 155.101 51.6026 153.883 53.8799C153.829 53.9805 154.209 54.2973 154.283 54.3577C152.633 57.6992 149.784 60.2974 146.304 61.6352C144.738 62.2327 143.189 62.4661 141.619 61.7579C140.123 62.0003 136.035 62.972 136.118 60.5126L136.123 60.3869C135.182 59.711 131.696 59.7804 134.41 57.5775C134.046 57.142 133.612 56.7708 133.124 56.4811C132.375 56.0466 131.833 56.2618 131.084 56.4811C129.549 56.9297 122.102 58.7524 120.931 58.0301C120.866 57.7777 120.843 57.6791 120.743 57.4407C119.808 57.4819 118.498 58.5773 117.592 58.692C116.369 58.8258 115.143 58.6146 113.903 58.6669C112.178 58.7383 110.419 59.039 108.692 58.8479C108.528 58.8298 108.52 58.7242 108.424 58.5793C108.531 58.2907 108.542 58.3923 108.501 58.1257C107.897 58.1569 107.241 58.8037 106.753 58.7423C104.606 58.3822 103.393 58.4214 101.234 58.7222C98.7519 59.0682 93.6756 56.2528 91.3319 57.5554C87.431 55.5074 84.1602 54.7429 79.8236 54.5639C79 54.0147 78.3929 53.8165 77.4856 53.4564C77.9281 53.2221 78.1384 53.1366 78.5134 52.7895L78.5106 52.6588C76.4745 51.7263 72.714 51.8148 70.2902 50.5464C70.5975 50.3302 71.1777 50.0073 71.3279 49.7286C70.8659 49.6099 69.9175 49.9942 69.3753 49.9348C67.983 49.784 66.542 49.4017 65.1447 49.443C64.8227 49.453 64.7015 49.9831 64.2379 49.9007C62.1805 49.5355 62.7588 48.8555 60.5899 49.2921C59.7783 48.6725 59.3851 48.3466 58.3901 48.0207C54.9052 46.879 52.299 45.2213 49.5853 42.7921C44.7469 44.3542 41.2187 45.3028 36.0618 44.8149C34.8405 44.6993 30.4358 43.458 29.9153 42.3666C29.9287 41.9854 30.0973 41.8617 30.3496 41.566C29.5948 39.1217 29.4136 39.0472 32.0127 38.2586C31.8592 37.287 31.9276 37.1773 32.3128 36.3062C33.4608 35.6906 34.1724 35.6735 35.4166 35.5719L35.5463 35.411C35.9748 34.8356 36.7755 34.5339 37.4805 33.6256C39.7486 33.6004 42.0614 33.7292 44.2928 34.1687C44.8829 34.046 46.0215 32.6831 46.4887 32.2676C47.737 31.1591 49.6988 31.3885 51.2386 31.5323C51.6951 31.4227 51.9912 31.4106 52.1768 30.959C52.1121 30.5829 51.8264 30.3038 51.579 29.9984C51.2565 29.5968 50.883 29.2936 50.4974 28.9515C49.9803 28.3956 49.2382 27.7413 48.6712 27.2126C49.4038 27.1859 49.8172 27.1581 50.5388 27.047C50.9807 26.9909 51.3303 26.9897 51.6555 26.693C51.7173 25.7284 48.0665 25.0829 47.6893 24.2016L47.7765 24.0316C48.2074 23.746 48.6089 23.6742 49.109 23.5343C47.8522 22.802 47.531 22.5227 46.0816 22.3673C45.833 22.1421 45.5426 21.9069 45.2842 21.6876C43.0918 21.3299 41.1337 21.4497 38.952 21.3531C38.255 21.3222 37.0351 20.6709 36.0992 20.7629C34.8669 20.884 33.839 21.3743 32.665 21.6257C31.9023 21.7889 30.7679 21.7689 29.9542 21.8506C28.7637 21.9472 27.6988 22.6096 26.6156 23.0547C23.7215 24.2205 20.9159 26.0361 18.4082 27.8182C14.5498 30.56 11.5008 33.5592 9.63894 37.977C9.35177 38.658 8.9665 39.4355 8.68194 40.1617C8.30774 41.1163 8.15258 43.4168 7.60671 44.0545C7.35557 44.1651 7.29469 44.1802 7.07775 44.3422C6.95701 47.3326 7.05874 50.4478 8.18307 53.2703C8.53343 54.1495 10.0664 55.605 9.55925 56.3946C6.87128 57.7445 2.56413 51.157 1.71157 49.2086C0.932035 47.4282 1.78905 47.1415 0.294737 45.7182L0.990505 44.9397C0.786236 44.3583 0.286687 43.4158 0 42.8394L0.449692 40.6536L0.0687135 39.7141C0.368079 37.8925 0.725743 35.7419 1.26967 33.9827C1.93425 31.8321 3.04802 29.6141 3.84724 27.4875C4.06569 26.9061 5.1864 25.3922 5.5603 24.8216C8.74986 19.9542 13.0058 15.8458 17.8818 12.6816C19.2465 11.7961 20.603 10.6514 22.075 9.86132C23.4104 9.14453 24.8226 8.47452 26.2118 7.85218C26.7549 7.60876 26.8847 7.9748 27.2374 7.75974C27.3752 7.67575 27.6727 6.99517 27.9184 6.88151C28.7066 6.51688 29.5096 7.14746 30.3004 6.84509C30.3263 4.32839 32.2983 6.15527 32.8928 6.07912L33.2272 5.48867C34.8264 4.40172 38.1226 5.11881 40.1251 4.82721L40.2836 4.80347L39.8305 3.73422C39.9339 3.75222 40.0372 3.77013 40.1405 3.78814C41.5751 3.94354 42.3622 5.42037 43.6259 4.05761C44.1465 4.29329 44.4816 4.56386 45.0369 4.30847C45.7501 3.30079 45.6936 4.22307 46.5452 4.48923L46.7638 4.37416C47.3852 3.21519 47.629 3.38015 48.879 3.32392C49.3827 3.70193 50.4004 4.3644 51.0063 4.42053L51.1468 4.28977C51.0954 4.10358 51.0365 3.96074 50.9586 3.78562C51.3878 3.27856 53.1481 3.73341 53.7511 3.78763C54.6076 3.82586 54.3147 4.43914 55.1526 4.59596C58.1971 5.16599 60.0485 5.12675 62.8293 6.59895C64.2223 7.33636 67.2677 7.52155 68.8553 8.44927C70.663 9.50564 72.1959 8.72991 74.3238 9.97719C74.6077 9.72814 74.6046 9.72683 74.9435 9.56479C75.4873 9.55191 75.9042 9.84623 76.4285 10.0969C76.1938 9.65199 75.8658 9.31019 76.2718 8.92344C77.2312 8.69128 79.4896 10.0359 80.6371 10.0774L80.7024 9.9791L80.5194 9.4302L80.5863 9.3112C82.108 8.80897 87.805 11.3034 89.5191 11.9044L102.312 16.5163C103.399 16.9097 105.017 17.2074 105.924 17.5929C107.499 18.2616 110.836 19.9569 112.526 20.044C113.076 19.7922 112.5 20.0076 112.841 19.4678C114.472 19.2573 118.715 22.1159 120.706 21.913C120.822 21.4838 120.435 21.5597 120.384 20.9398C120.955 20.7653 121.977 21.2732 122.583 21.4873C123.907 21.9555 124.517 21.2095 125.757 21.1436C126.886 21.0837 128.886 21.7989 129.907 21.2994L129.953 21.139C129.807 20.9275 129.721 20.7968 129.596 20.5728C130.186 20.0476 134.457 20.9838 135.305 19.4691C135.268 19.1012 134.923 18.8524 134.655 18.4697L134.707 18.2838C135.128 18.0376 135.846 18.0103 136.327 18.0235L136.48 18.0284C137.335 17.3107 140.015 15.2452 140.552 14.5183C140.544 14.2063 140.307 13.9706 140.111 13.7023C141.081 13.2871 141.683 13.0361 142.563 12.4518L141.951 11.596Z" fill="#664D52"/>
<path d="M37.4798 33.626C39.7478 33.6009 42.0606 33.7297 44.292 34.1692C44.8456 35.333 41.0883 36.4807 40.2062 36.7734L39.3244 36.2987C38.7002 36.349 38.1279 36.4003 37.5065 36.4787C36.8889 36.2152 36.062 35.848 35.5455 35.4115C35.974 34.8361 36.7747 34.5344 37.4798 33.626Z" fill="#4C383E"/>
<path d="M143.118 15.8902C143.947 14.066 144.858 13.6748 146.732 13.1249C147.379 12.9352 148.596 12.4344 149.181 13.0068C148.685 13.7984 145.604 14.0541 144.987 15.2019C144.402 16.289 144.759 17.4683 145.017 18.5645C146.078 19.5413 146.966 20.6325 148.094 21.6414C148.005 22.0541 147.998 22.0375 147.759 22.396C144.666 21.5484 143.543 18.7513 143.118 15.8902Z" fill="#4C383E"/>
<path d="M51.5787 29.9985C51.9739 29.596 52.016 29.5424 52.6157 29.5358C53.8295 29.5226 56.3505 30.1618 56.4021 31.6955C56.0329 32.3251 55.3355 31.9047 54.8808 32.2819C55.0523 33.151 57.4974 34.2373 58.3133 34.6537C54.4362 35.2432 55.5902 32.8884 52.0731 32.8935C51.7069 32.6601 51.4213 32.5384 51.2257 32.1612C51.1861 31.8403 51.1717 31.8433 51.2383 31.5325C51.6947 31.4229 51.9908 31.4108 52.1765 30.9592C52.1118 30.5831 51.826 30.3039 51.5787 29.9985Z" fill="#4C383E"/>
<path d="M151.598 15.2168C152.039 15.2535 152.122 15.2369 152.505 15.4286C152.927 16.1051 150.719 19.2443 150.128 19.7555C150.051 19.8224 149.743 19.922 149.624 19.95C148.96 19.236 147.248 18.067 147.131 17.1444C146.88 15.1508 150.871 16.0915 151.598 15.2168Z" fill="#4C383E"/>
<path d="M48.6715 27.2124C49.4041 27.1858 49.8175 27.1579 50.5391 27.0469C50.5819 27.8439 50.6051 28.1677 50.4977 28.9513C49.9806 28.3955 49.2385 27.7411 48.6715 27.2124Z" fill="#584A50"/>
<path d="M160.68 7.10085L160.87 6.93408L161.409 7.65117C160.746 8.12524 159.676 9.10376 158.978 8.38828C159.76 7.9824 160.241 7.84651 160.68 7.10085Z" fill="#8C858B"/>
<path d="M148.164 21.6211C148.791 21.7184 149.429 21.8288 150.061 21.8833C149.508 22.1504 148.922 22.4606 148.342 22.6457L147.758 22.3962C147.998 22.0377 148.005 22.0543 148.093 21.6416L148.164 21.6211Z" fill="#584A50"/>
<path d="M160.681 7.10107C160.243 7.84673 159.762 7.98263 158.98 8.3885L158.838 8.22313C158.321 8.2168 157.839 8.5943 157.198 8.74216C157.954 8.13049 159.742 7.41119 160.681 7.10107Z" fill="#DEDBDB"/>
<path d="M24.7747 17.118C25.5728 16.9667 26.2056 17.477 26.8415 17.8987C24.791 19.0226 22.1703 20.4015 19.9133 20.7395C18.8617 20.6926 18.5689 20.5667 17.8533 19.814C19.3127 18.9382 22.9816 17.7429 24.7747 17.118Z" fill="#4C383E"/>
<path d="M66.1403 12.0908C67.8526 12.3352 71.5691 13.856 72.8126 15.0931L72.7335 15.2044C70.0765 14.5936 70.6 16.318 66.8402 14.1312C66.4531 13.3976 66.2764 12.8953 66.1403 12.0908Z" fill="#4C383E"/>
<path d="M84.527 36.0118C85.8127 35.9293 85.2275 36.7421 86.756 36.3045C87.4454 36.6706 88.0754 36.9794 88.7851 37.2973C89.4375 37.59 90.5068 37.752 90.8529 38.3706C88.2085 38.2378 84.6659 39.6722 84.527 36.0118Z" fill="#4C383E"/>
<path d="M70.5369 18.4717C72.5958 19.0044 73.0609 19.7455 74.679 20.9515C75.1572 21.308 75.5989 21.1275 76.1387 20.9891C77.3296 21.4526 77.8257 21.7321 78.6203 22.7247C78.2173 22.7748 77.6955 22.6309 77.2934 22.5393C76.9952 22.2253 76.7459 21.8232 76.4999 21.4618C73.5221 20.9985 72.0859 21.9283 70.5369 18.4717Z" fill="#4C383E"/>
<path d="M135.704 30.521C136.113 30.4648 136.241 30.45 136.55 30.6172C136.668 30.9278 136.668 30.7772 136.555 31.0857C135.768 31.8633 133.556 32.5131 132.463 32.683C131.918 32.7233 131.771 32.7132 131.477 32.2344C131.456 31.1612 134.85 30.6869 135.704 30.521Z" fill="#4C383E"/>
<path d="M84.5855 43.2941C85.9195 43.2026 86.4106 43.3112 87.2394 44.3915C86.2887 44.7556 85.7581 44.8321 84.75 44.8944C83.5511 44.8924 82.8287 44.7657 81.7629 44.2265C82.7922 43.789 83.4835 43.4711 84.5855 43.2941Z" fill="#4C383E"/>
<path d="M123.656 42.7075C124.128 42.6411 125.336 42.7477 125.463 43.2969C125.022 43.9326 122.724 44.2233 121.917 44.3672C121.347 44.4989 120.639 44.6076 120.053 44.7142C120.938 44.1187 121.234 44.0171 121.687 43.0475C122.458 42.8694 122.873 42.791 123.656 42.7075Z" fill="#4C383E"/>
<path d="M123.737 46.6447L123.861 46.6377C124.241 46.8479 124.129 46.7021 124.292 47.0219C123.737 47.8971 120.308 47.9795 119.312 47.6023C118.817 47.37 118.265 47.1406 117.76 46.9183C119.772 46.7906 121.709 46.8047 123.737 46.6447Z" fill="#4C383E"/>
<path d="M78.5638 25.8506C79.3491 25.9381 80.1719 26.0895 80.9554 26.22C82.3261 27.7049 82.3321 27.2238 83.8177 28.0158L83.9257 28.0744C82.6002 28.16 81.2693 28.0443 79.9783 27.7315C79.5007 27.1192 79.03 26.474 78.5638 25.8506Z" fill="#4C383E"/>
<path d="M142.306 38.6602C143.541 38.7356 145.524 39.0112 146.817 39.1249C147.033 39.144 147.122 39.3341 147.204 39.5001L147.112 39.665C145.372 40.1287 143.547 40.18 142.306 38.6602Z" fill="#4C383E"/>
<path d="M131.995 24.481C131.994 24.7001 131.633 25.2568 131.491 25.4372C130.744 26.3934 129.385 26.6816 128.257 26.8532C128.107 25.6183 131.065 24.7916 131.995 24.481Z" fill="#4C383E"/>
<path d="M81.5534 47.0018C82.6928 46.9294 85.9797 46.8227 86.6288 47.894C85.022 48.231 82.8484 48.0851 81.5534 47.0018Z" fill="#4C383E"/>
<path d="M96.0365 50.7676C96.5375 50.8108 96.7126 51.1005 97.0759 51.4717C97.7671 51.521 98.4483 51.6729 99.0953 51.9233C99.4555 52.0672 99.6034 52.1356 99.7373 52.4514L99.5149 52.6244C98.5439 52.5701 96.0023 52.4735 95.6793 51.3771C95.7588 50.9667 95.7115 51.1096 96.0365 50.7676Z" fill="#4C383E"/>
<path d="M50.308 37.4648C51.1085 37.5443 52.4392 38.4043 53.3835 38.7906C53.6969 39.209 53.8511 39.4414 54.1107 39.895C53.4912 39.9624 53.3373 39.9725 52.7738 39.6808C51.9528 39.2553 50.521 38.4194 50.308 37.4648Z" fill="#4C383E"/>
<path d="M58.748 31.1133C60.0829 31.4684 62.0671 31.3617 62.5373 32.77C61.138 33.0154 59.2829 32.5849 58.748 31.1133Z" fill="#4C383E"/>
<path d="M126.668 22.3749C127.139 22.3221 128.023 22.1082 128.186 22.6658C127.866 23.2365 127.274 23.3059 126.637 23.4962C126.122 23.5704 125.259 23.6168 124.891 23.1845L124.908 23.0068C125.332 22.5078 126.018 22.485 126.668 22.3749Z" fill="#4C383E"/>
<path d="M130.988 28.4029C131.072 28.3917 131.142 28.4204 131.233 28.4416C130.86 29.4137 129.458 30.1057 128.399 29.9504C128.13 29.7685 127.914 29.6227 127.869 29.3029C128.313 28.8013 130.185 28.567 130.988 28.4029Z" fill="#4C383E"/>
<path d="M73.5085 12.1768C74.2563 12.1492 75.3163 12.4991 76.0668 12.7098C76.494 13.1992 76.8884 13.7086 77.2908 14.2184C75.474 14.1979 74.9757 13.1563 73.5085 12.1768Z" fill="#4C383E"/>
<path d="M134.037 27.978L134.272 28.0644L134.337 28.2417C133.875 29.2867 132.898 29.6256 131.865 29.7999L131.559 29.6414L131.521 29.4488C131.832 28.8433 133.397 28.1918 134.037 27.978Z" fill="#4C383E"/>
<path d="M69.6827 20.6821C71.1225 20.8775 71.7211 21.868 72.458 22.9955C70.629 22.4286 70.3325 22.5044 69.6827 20.6821Z" fill="#4C383E"/>
<path d="M88.5358 46.7002C89.1864 46.6871 90.9995 46.9456 90.9333 47.8237L90.6918 47.9937C89.8445 48.042 88.7189 47.9354 88.2631 47.1025C88.3214 46.7736 88.2423 46.9084 88.5358 46.7002Z" fill="#4C383E"/>
<path d="M89.4865 43.0881C90.6956 42.9503 91.4359 43.2068 92.0196 44.3324C90.5323 44.7931 90.0887 44.4068 89.4865 43.0881Z" fill="#4C383E"/>
<path d="M33.0489 39.5454C33.2551 39.5484 33.9424 39.652 34.2025 39.6772C35.1288 39.7677 36.8629 39.6017 37.6616 39.9699L37.6843 40.1037C36.1128 40.4064 34.3558 40.7092 33.0489 39.5454Z" fill="#4C383E"/>
<path d="M81.5214 28.8345C82.4707 28.9901 83.2899 29.5644 83.5301 30.5267C82.1417 30.4814 81.5934 30.2965 81.5214 28.8345Z" fill="#4C383E"/>
<path d="M6.00718 31.9541C6.26859 32.0285 6.14966 31.9712 6.34496 32.1663C6.46883 32.7085 6.2379 33.5474 5.78088 33.8663C4.78807 33.2607 5.5074 32.6119 6.00718 31.9541Z" fill="#4C383E"/>
<path d="M62.8145 31.3192C63.6421 31.286 64.5972 31.6089 64.5871 32.5936C64.0247 32.4961 62.6819 32.0374 62.8145 31.3192Z" fill="#4C383E"/>
<path d="M6.84963 29.7373C7.07965 29.857 6.98426 29.7726 7.09736 30.0387C7.05319 30.5031 6.84541 30.8385 6.64024 31.264C6.36927 31.0578 6.46899 31.1866 6.34784 30.8516C6.39322 30.414 6.62012 30.1238 6.84963 29.7373Z" fill="#4C383E"/>
<path d="M178.855 16.2263C179.293 15.9843 179.64 15.7006 180.038 15.3984C179.891 17.478 178.958 18.9114 177.959 20.6875C177.563 21.3913 177.136 22.2534 176.661 22.8892C176.408 23.0246 176.21 22.9509 175.917 22.9039C175.144 23.3361 175.036 24.9877 174.495 25.6916C173.889 26.4795 173.362 25.5378 173.024 26.7181C172.502 28.5385 173.151 29.9201 170.772 29.9078C170.303 30.842 170.083 31.5853 169.76 32.5731C169.387 33.7168 169.375 34.1111 168.125 34.1402C167.226 34.7005 167.842 36.7304 166.835 37.4043C166.099 37.8972 165.607 37.2273 165.094 38.1094C165.002 38.6908 165.816 39.7882 166.013 40.5598C166.528 41.5998 166.448 45.4423 166.075 46.5568C165.786 46.7419 165.523 46.5477 165.473 46.6835C164.797 48.4961 163.387 50.3982 161.872 51.6465C160.127 53.0839 156.612 55.3954 154.283 54.3584C154.209 54.298 153.829 53.9812 153.883 53.8806C155.101 51.6033 156.99 49.0493 154.333 46.7761C150.669 43.6377 145.007 45.8678 141.03 43.5301C140.764 43.3732 140.6 43.1278 140.555 42.8179C141.337 41.3826 143.526 42.9065 144.465 42.8984C146.079 42.8843 146.809 42.2999 148.505 42.8421C150.003 43.2877 151.569 43.1881 153.045 42.7063C153.594 42.5262 154.057 42.1762 154.598 42.4025C154.565 42.7807 154.571 42.8109 154.804 43.0704C156.027 43.2867 157.542 40.6151 158.302 39.8758C158.58 39.6062 159.694 39.3758 160.111 39.2793C160.059 39.3467 160.006 39.414 159.956 39.4814C159.647 39.8908 159.482 40.0146 159.551 40.5004L159.745 40.6322C161.427 40.5185 162.914 36.5765 163.486 35.2216C163.49 35.7889 163.386 36.2063 163.833 36.5986L164.096 36.5694C165.017 35.8794 165.73 33.3285 165.342 32.2361C165.335 31.876 165.407 31.6809 165.598 31.3892C167.383 31.1166 167.59 29.8233 168.278 28.6436C168.657 27.9931 170.385 26.1368 171.159 25.7519C171.964 25.3516 173.463 23.2058 174.345 22.3387C174.683 22.3082 174.822 22.3121 175.145 22.1892C175.494 21.7618 175.137 21.3705 175.458 20.9921C176.251 20.0538 178.695 18.3869 178.037 17.0095C177.703 16.7473 177.658 16.7531 177.235 16.6461C177.433 16.4968 177.46 16.3256 177.572 16.0712C177.985 16.1098 178.438 16.1753 178.855 16.2263Z" fill="#4C383E"/>
<path d="M178.856 16.2263C179.295 15.9843 179.642 15.7006 180.039 15.3984C179.892 17.478 178.96 18.9114 177.96 20.6875C177.564 21.3913 177.137 22.2534 176.662 22.8892C176.41 23.0246 176.212 22.9509 175.919 22.9039C175.145 23.3361 175.037 24.9877 174.496 25.6916C173.89 26.4795 173.363 25.5378 173.025 26.7181C172.504 28.5385 173.153 29.9201 170.773 29.9078C170.304 30.842 170.085 31.5853 169.762 32.5731C169.389 33.7168 169.376 34.1111 168.127 34.1402C167.227 34.7005 167.843 36.7304 166.837 37.4043C166.1 37.8972 165.608 37.2273 165.095 38.1094C165.003 38.6908 165.818 39.7882 166.015 40.5598C165.585 39.9743 165.06 38.7341 164.736 38.028C164.603 38.4142 164.181 39.7158 163.971 39.9683C162.999 41.1331 161.788 42.2516 160.71 43.3269C159.637 44.3962 158.453 45.4906 157.123 46.2138C155.981 46.8193 155.851 46.1645 155.422 45.2592C154.794 45.0289 154.005 44.8126 153.505 44.4183C153.326 43.8278 154.363 43.0443 154.599 42.4025C154.566 42.7807 154.572 42.8109 154.806 43.0704C156.028 43.2867 157.544 40.6151 158.303 39.8758C158.581 39.6062 159.696 39.3758 160.112 39.2793C160.06 39.3467 160.008 39.414 159.957 39.4814C159.648 39.8908 159.483 40.0146 159.552 40.5004L159.746 40.6322C161.428 40.5185 162.916 36.5765 163.487 35.2216C163.491 35.7889 163.388 36.2063 163.834 36.5986L164.097 36.5694C165.019 35.8794 165.731 33.3285 165.344 32.2361C165.337 31.876 165.408 31.6809 165.599 31.3892C167.384 31.1166 167.591 29.8233 168.28 28.6436C168.658 27.9931 170.387 26.1368 171.16 25.7519C171.965 25.3516 173.465 23.2058 174.346 22.3387C174.684 22.3082 174.823 22.3121 175.146 22.1892C175.495 21.7618 175.138 21.3705 175.459 20.9921C176.253 20.0538 178.696 18.3869 178.038 17.0095C177.705 16.7473 177.659 16.7531 177.236 16.6461C177.434 16.4968 177.461 16.3256 177.573 16.0712C177.987 16.1098 178.439 16.1753 178.856 16.2263Z" fill="#ACA6AA"/>
<path d="M176.152 4.2413C180.208 2.59368 179.445 6.98704 178.394 9.21607C178.348 9.31484 178.3 9.41302 178.252 9.51049C177.366 9.5812 176.169 9.61681 175.312 9.39914C170.857 8.26913 173.288 5.58042 175.905 4.31242L176.152 4.2413Z" fill="#4C383E"/>
<path d="M162.536 10.6214C163.201 10.291 164.237 9.73719 164.956 10.06C165.966 10.5137 166.872 12.3989 166.356 13.4597C165.955 14.2854 165.325 14.4159 164.544 14.6675L164.46 14.6947C163.73 14.3451 163.222 14.165 162.754 13.4855C162.329 12.7051 162.178 12.507 162.244 11.5991L162.536 10.6214Z" fill="#4C383E"/>
<path d="M162.244 11.5986C162.683 11.676 162.936 11.6748 163.282 11.928C163.598 12.4969 163.09 12.9973 162.754 13.4851C162.329 12.7047 162.178 12.5065 162.244 11.5986Z" fill="#584A50"/>
<path d="M178.056 14.1836C178.605 12.7766 178.151 11.8316 178.771 10.8325C179.068 10.9413 179.703 14.4619 181.282 12.1969C181.611 11.7257 182.064 10.8567 181.937 10.2826C181.893 10.0784 181.875 10.1356 181.879 9.90789L182.077 9.81494C182.085 10.2386 182.046 10.3786 182.472 10.5913C181.713 12.1979 181.706 12.7299 180.279 13.8815C180.206 14.3423 180.126 14.9499 180.037 15.3972C179.639 15.6993 179.292 15.983 178.853 16.225C178.437 16.174 177.984 16.1085 177.571 16.0699C178.078 15.6442 178.62 15.3052 178.601 14.6017C178.372 14.264 178.466 14.3744 178.056 14.1836Z" fill="#8C858B"/>
<path d="M178.057 14.1836C178.468 14.3744 178.374 14.2641 178.603 14.6017C178.622 15.3053 178.079 15.6442 177.572 16.0699C177.461 16.3243 177.433 16.4955 177.235 16.6449C175.565 17.0084 174.608 17.9785 172.612 17.2753C172.274 17.156 171.628 16.6731 171.466 16.3566C172.002 16.0189 175.198 18.5721 177.98 14.3057L178.057 14.1836Z" fill="#584A50"/>
<path d="M165.744 16.4956L165.87 16.5912C165.845 17.1577 164.987 17.4399 164.396 17.9347C162.495 19.5253 161.533 21.2998 160.41 23.4281L160.282 23.4031C160.192 23.0636 160.35 22.5496 160.468 22.2096C161.235 19.9886 163.681 17.5107 165.744 16.4956Z" fill="#584A50"/>
<path d="M168.421 16.4932L168.625 16.5852C168.577 16.8971 167.923 17.4118 167.656 17.6823C167.158 18.1854 166.707 18.7339 166.31 19.3204C165.106 21.0711 164.247 22.9226 163.983 25.0384C163.685 24.7666 163.576 24.42 163.655 24.0273C164.223 21.188 166.251 18.3017 168.421 16.4932Z" fill="#4C383E"/>
<path d="M158.407 30.4497L158.563 30.5163C159.06 31.4201 156.08 33.3906 155.313 33.7658C155.063 33.6934 155.146 33.7698 155.023 33.5716C155.221 33.0607 157.84 30.8015 158.407 30.4497Z" fill="#8C858B"/>
<path d="M169.509 17.5806L169.651 17.6828C169.72 18.131 168.54 19.4531 168.356 20.3473C168.216 21.0149 168.17 21.6991 168.221 22.3795C168.256 22.8291 168.338 23.0949 168.255 23.5529C166.58 22.2067 168.497 18.8597 169.509 17.5806Z" fill="#4C383E"/>
<path d="M181.8 8.17969C182.734 8.26931 184.509 8.50851 185.014 9.38936L184.846 9.51026C184.214 9.35978 181.943 8.80394 181.592 8.32574L181.8 8.17969Z" fill="#584A50"/>
<path d="M163.507 33.9928C163.791 33.3853 165.27 30.7066 165.774 30.5361L165.794 30.7651L165.776 30.57C165.825 30.5233 165.649 31.2478 165.596 31.3886C165.405 31.6803 165.334 31.8755 165.341 32.2356C164.842 32.8471 164.103 33.4839 163.507 33.9928Z" fill="#8C858B"/>
<path d="M182.508 5.66462C182.845 5.6433 183.119 5.57711 183.393 5.7453L183.331 5.89306C182.782 6.22449 182.077 6.45645 181.466 6.68619C181.313 6.74142 180.932 6.88857 180.802 6.7562L180.87 6.54849C181.529 5.96588 181.689 5.94547 182.508 5.66462Z" fill="#4C383E"/>
<path d="M182.079 9.81494C182.807 10.3054 183.968 11.2838 184.043 12.2009C183.336 11.8544 182.989 11.1023 182.473 10.5913C182.048 10.3786 182.087 10.2386 182.079 9.81494Z" fill="#4C383E"/>
<path d="M172.729 2.73291C174.3 2.76128 175.398 2.65465 176.153 4.24173L175.906 4.31284C175.373 3.00148 174.164 3.27085 173.122 3.05992L173.235 3.00389L173.212 2.87514L172.729 2.73291Z" fill="#8C858B"/>
<path d="M170.961 2.35156C171.573 2.53081 172.083 2.68783 172.729 2.73239L173.212 2.87462L173.235 3.00337L173.122 3.0594C172.339 3.02097 171.633 3.30071 171.004 2.94061L170.961 2.35156Z" fill="#4C383E"/>
<path d="M167.772 15.3823L168.078 15.4647L168.138 15.6072C167.824 16.0248 167.072 16.2675 166.574 16.4367C166.363 16.4344 166.41 16.4297 166.201 16.3662L166.218 16.1989C166.7 15.8261 167.215 15.6332 167.772 15.3823Z" fill="#584A50"/>
</svg>
