<svg width="24" height="26" viewBox="0 0 24 26" fill="none" xmlns="http://www.w3.org/2000/svg">
<path d="M20.6687 1.9322C18.2236 0.715618 15.2315 0 11.9999 0C8.76841 0 5.77631 0.715618 3.33113 1.9322C2.13204 2.52881 1.53249 2.82712 0.951556 3.76504C0.370605 4.70297 0.370605 5.61113 0.370605 7.42745V11.9357C0.370605 19.2795 6.24001 23.3626 9.63919 25.1114C10.5872 25.5991 11.0612 25.843 11.9999 25.843C12.9387 25.843 13.4127 25.5991 14.3606 25.1114C17.7598 23.3626 23.6293 19.2795 23.6293 11.9357V7.42745C23.6293 5.61114 23.6293 4.70298 23.0483 3.76504C22.4674 2.82711 21.8678 2.52881 20.6687 1.9322Z" fill="#E1EFFE"/>
<path d="M8.25 7.29688C7.00736 7.29688 6 8.30424 6 9.54688C6 9.97337 6.11867 10.3722 6.32478 10.712C5.28545 10.9108 4.5 11.8246 4.5 12.9219C4.5 14.0191 5.28545 14.9329 6.32478 15.1317M8.25 7.29688C8.25 6.26134 9.08947 5.42188 10.125 5.42188C11.1605 5.42188 12 6.26134 12 7.29688V18.5469C12 19.5824 11.1605 20.4219 10.125 20.4219C9.08947 20.4219 8.25 19.5824 8.25 18.5469C7.00736 18.5469 6 17.5396 6 16.2969C6 15.8703 6.11867 15.4716 6.32478 15.1317M8.25 7.29688C8.25 7.91031 8.54459 8.45493 9 8.79701M6.32478 15.1317C6.59211 14.691 7.00655 14.3493 7.5 14.1749" stroke="#0052AD" stroke-width="1.125" stroke-linecap="round" stroke-linejoin="round"/>
<path d="M15.75 18.5469C16.9927 18.5469 18 17.5395 18 16.2969C18 15.8704 17.8813 15.4716 17.6752 15.1318C18.7145 14.9329 19.5 14.0191 19.5 12.9219C19.5 11.8246 18.7145 10.9108 17.6752 10.712M15.75 18.5469C15.75 19.5824 14.9105 20.4219 13.875 20.4219C12.8395 20.4219 12 19.5824 12 18.5469V7.29688C12 6.26134 12.8395 5.42188 13.875 5.42188C14.9105 5.42188 15.75 6.26134 15.75 7.29688C16.9927 7.29688 18 8.30423 18 9.54688C18 9.97337 17.8813 10.3721 17.6752 10.712M15.75 18.5469C15.75 17.9335 15.4554 17.3888 15 17.0467M17.6752 10.712C17.4079 11.1528 16.9934 11.4944 16.5 11.6689" stroke="#0052AD" stroke-width="1.125" stroke-linecap="round" stroke-linejoin="round"/>
</svg>
