<svg width="24" height="26" viewBox="0 0 24 26" fill="none" xmlns="http://www.w3.org/2000/svg">
<path d="M20.6687 1.9322C18.2236 0.715618 15.2315 0 11.9999 0C8.76841 0 5.77631 0.715618 3.33113 1.9322C2.13204 2.52881 1.53249 2.82712 0.951556 3.76504C0.370605 4.70297 0.370605 5.61113 0.370605 7.42745V11.9357C0.370605 19.2795 6.24001 23.3626 9.63919 25.1114C10.5872 25.5991 11.0612 25.843 11.9999 25.843C12.9387 25.843 13.4127 25.5991 14.3606 25.1114C17.7598 23.3626 23.6293 19.2795 23.6293 11.9357V7.42745C23.6293 5.61114 23.6293 4.70298 23.0483 3.76504C22.4674 2.82711 21.8678 2.52881 20.6687 1.9322Z" fill="#E1EFFE"/>
<path d="M6.75146 5.42188C8.76996 5.65707 13.4246 6.84367 15.4822 9.73102C15.734 10.0842 15.999 10.3342 16.4336 10.4442C16.9772 10.5792 17.427 10.9437 17.5904 11.4939C17.7643 12.0927 18.0854 12.7242 17.9834 13.3645C17.9444 13.6096 17.8244 13.8354 17.5844 14.2869L14.3242 20.4219" stroke="#0052AD" stroke-width="1.5" stroke-linecap="round" stroke-linejoin="round"/>
<path d="M6.00146 12.9219C6.75146 14.2167 9.12476 14.8688 12.0014 14.2167C11.5618 14.4727 10.811 14.9345 9.98793 15.8852C9.5687 16.3695 9.38978 17.0434 9.36059 17.7238C9.32158 18.6331 9.18668 19.6222 8.72021 20.4219" stroke="#0052AD" stroke-width="1.5" stroke-linecap="round" stroke-linejoin="round"/>
<path d="M6.75146 9.17188C6.75146 9.17188 8.22069 9.38877 9.37646 10.2969C10.1265 10.8862 11.564 11.279 12.0014 11.4219" stroke="#0052AD" stroke-width="1.5" stroke-linecap="round" stroke-linejoin="round"/>
</svg>
