<svg width="24" height="26" viewBox="0 0 24 26" fill="none" xmlns="http://www.w3.org/2000/svg">
<path d="M20.6687 1.9322C18.2236 0.715618 15.2315 0 11.9999 0C8.76841 0 5.77631 0.715618 3.33113 1.9322C2.13204 2.52881 1.53249 2.82712 0.951556 3.76504C0.370605 4.70297 0.370605 5.61113 0.370605 7.42745V11.9357C0.370605 19.2795 6.24001 23.3626 9.63919 25.1114C10.5872 25.5991 11.0612 25.843 11.9999 25.843C12.9387 25.843 13.4127 25.5991 14.3606 25.1114C17.7598 23.3626 23.6293 19.2795 23.6293 11.9357V7.42745C23.6293 5.61114 23.6293 4.70298 23.0483 3.76504C22.4674 2.82711 21.8678 2.52881 20.6687 1.9322Z" fill="#E1EFFE"/>
<path d="M9.75 19.9719C9.50147 19.9719 9.3 20.1733 9.3 20.4219C9.3 20.6704 9.50147 20.8719 9.75 20.8719V20.4219V19.9719ZM14.25 20.8719C14.4985 20.8719 14.7 20.6704 14.7 20.4219C14.7 20.1733 14.4985 19.9719 14.25 19.9719V20.4219V20.8719ZM18.3475 13.8731C18.4587 14.0954 18.729 14.1855 18.9512 14.0744C19.1735 13.9632 19.2636 13.6929 19.1525 13.4706L18.75 13.6719L18.3475 13.8731ZM16.875 9.92188L17.2775 9.72063C17.2013 9.56818 17.0454 9.47188 16.875 9.47188C16.7046 9.47188 16.5487 9.56818 16.4725 9.72063L16.875 9.92188ZM14.5975 13.4706C14.4864 13.6929 14.5765 13.9632 14.7988 14.0744C15.021 14.1855 15.2913 14.0954 15.4025 13.8731L15 13.6719L14.5975 13.4706ZM8.59751 13.8731C8.70865 14.0954 8.97896 14.1855 9.20125 14.0744C9.42354 13.9632 9.51364 13.6929 9.40249 13.4706L9 13.6719L8.59751 13.8731ZM7.125 9.92188L7.52749 9.72063C7.45127 9.56818 7.29545 9.47188 7.125 9.47188C6.95455 9.47188 6.79874 9.56818 6.72251 9.72063L7.125 9.92188ZM4.84751 13.4706C4.73636 13.6929 4.82646 13.9632 5.04876 14.0744C5.27105 14.1855 5.54135 14.0954 5.65249 13.8731L5.25 13.6719L4.84751 13.4706ZM6 9.47188C5.75147 9.47188 5.55 9.67335 5.55 9.92188C5.55 10.1704 5.75147 10.3719 6 10.3719V9.92188V9.47188ZM9.39308 8.79688L9.70873 9.1176L9.70873 9.1176L9.39308 8.79688ZM14.6069 8.79688L14.2913 9.1176L14.2913 9.1176L14.6069 8.79688ZM18 10.3719C18.2485 10.3719 18.45 10.1704 18.45 9.92188C18.45 9.67335 18.2485 9.47188 18 9.47188V9.92188V10.3719ZM19.2355 15.1231L19.6383 15.3236L19.6384 15.3235L19.2355 15.1231ZM19.3811 14.0236L19.0027 14.2672L19.0028 14.2672L19.3811 14.0236ZM14.3689 14.0236L14.7472 14.2672L14.7473 14.2672L14.3689 14.0236ZM14.5145 15.1231L14.1116 15.3235L14.1117 15.3236L14.5145 15.1231ZM9.48545 15.1231L9.88831 15.3235L9.88832 15.3235L9.48545 15.1231ZM9.63113 14.0236L9.25275 14.2672L9.25277 14.2672L9.63113 14.0236ZM4.61887 14.0236L4.99724 14.2672L4.99726 14.2672L4.61887 14.0236ZM4.76455 15.1231L4.36167 15.3235L4.36168 15.3236L4.76455 15.1231ZM12 7.67188H11.55V20.4219H12H12.45V7.67188H12ZM12 20.4219V19.9719H9.75V20.4219V20.8719H12V20.4219ZM12 20.4219V20.8719H14.25V20.4219V19.9719H12V20.4219ZM18.75 13.6719L19.1525 13.4706L17.2775 9.72063L16.875 9.92188L16.4725 10.1231L18.3475 13.8731L18.75 13.6719ZM16.875 9.92188L16.4725 9.72063L14.5975 13.4706L15 13.6719L15.4025 13.8731L17.2775 10.1231L16.875 9.92188ZM9 13.6719L9.40249 13.4706L7.52749 9.72063L7.125 9.92188L6.72251 10.1231L8.59751 13.8731L9 13.6719ZM7.125 9.92188L6.72251 9.72063L4.84751 13.4706L5.25 13.6719L5.65249 13.8731L7.52749 10.1231L7.125 9.92188ZM6 9.92188V10.3719H6.78615V9.92188V9.47188H6V9.92188ZM6.78615 9.92188V10.3719C7.86369 10.3719 8.89343 9.92 9.70873 9.1176L9.39308 8.79688L9.07742 8.47615C8.41282 9.13025 7.6038 9.47188 6.78615 9.47188V9.92188ZM9.39308 8.79688L9.70873 9.1176C11.0577 7.78997 12.9423 7.78997 14.2913 9.1176L14.6069 8.79688L14.9226 8.47615C13.2234 6.80378 10.7766 6.80378 9.07742 8.47615L9.39308 8.79688ZM14.6069 8.79688L14.2913 9.1176C15.1066 9.92 16.1363 10.3719 17.2139 10.3719V9.92188V9.47188C16.3962 9.47188 15.5872 9.13025 14.9226 8.47615L14.6069 8.79688ZM17.2139 9.92188V10.3719H18V9.92188V9.47188H17.2139V9.92188ZM16.875 16.6719V17.1219C18.0863 17.1219 19.1142 16.3767 19.6383 15.3236L19.2355 15.1231L18.8326 14.9225C18.4375 15.7165 17.6958 16.2219 16.875 16.2219V16.6719ZM19.2355 15.1231L19.6384 15.3235C19.752 15.0951 19.8794 14.8472 19.9275 14.6065C19.9857 14.3155 19.9315 14.0471 19.7595 13.78L19.3811 14.0236L19.0028 14.2672C19.0359 14.3186 19.0448 14.3484 19.0477 14.363C19.0504 14.3762 19.052 14.3948 19.045 14.43C19.0257 14.5265 18.967 14.6524 18.8326 14.9226L19.2355 15.1231ZM19.3811 14.0236L19.7595 13.7801C19.5676 13.482 19.3005 13.3378 18.9919 13.2749C18.7212 13.2197 18.3862 13.2219 18.0305 13.2219V13.6719V14.1219C18.4243 14.1219 18.6515 14.124 18.8121 14.1568C18.9348 14.1818 18.9682 14.2135 19.0027 14.2672L19.3811 14.0236ZM18.0305 13.6719V13.2219H15.7195V13.6719V14.1219H18.0305V13.6719ZM15.7195 13.6719V13.2219C15.3638 13.2219 15.0288 13.2197 14.7581 13.2749C14.4495 13.3378 14.1824 13.482 13.9905 13.7801L14.3689 14.0236L14.7473 14.2672C14.7818 14.2135 14.8152 14.1818 14.9379 14.1568C15.0985 14.124 15.3257 14.1219 15.7195 14.1219V13.6719ZM14.3689 14.0236L13.9905 13.78C13.8185 14.0471 13.7643 14.3155 13.8225 14.6065C13.8707 14.8472 13.998 15.0951 14.1116 15.3235L14.5145 15.1231L14.9174 14.9226C14.783 14.6524 14.7243 14.5265 14.705 14.43C14.698 14.3948 14.6996 14.3762 14.7023 14.363C14.7052 14.3484 14.7141 14.3186 14.7472 14.2672L14.3689 14.0236ZM14.5145 15.1231L14.1117 15.3236C14.6359 16.3767 15.6637 17.1219 16.875 17.1219V16.6719V16.2219C16.0542 16.2219 15.3126 15.7165 14.9174 14.9225L14.5145 15.1231ZM7.125 16.6719V17.1219C8.33629 17.1219 9.36417 16.3767 9.88831 15.3235L9.48545 15.1231L9.08258 14.9226C8.68746 15.7165 7.94578 16.2219 7.125 16.2219V16.6719ZM9.48545 15.1231L9.88832 15.3235C10.002 15.0952 10.1293 14.8472 10.1775 14.6065C10.2357 14.3155 10.1815 14.0471 10.0095 13.78L9.63113 14.0236L9.25277 14.2672C9.28586 14.3186 9.29476 14.3484 9.29774 14.363C9.3004 14.3762 9.30201 14.3948 9.29496 14.43C9.27567 14.5265 9.217 14.6524 9.08257 14.9226L9.48545 15.1231ZM9.63113 14.0236L10.0095 13.7801C9.81765 13.482 9.55052 13.3378 9.24188 13.2749C8.97118 13.2197 8.63621 13.2219 8.28056 13.2219V13.6719V14.1219C8.67435 14.1219 8.90147 14.124 9.06209 14.1568C9.18477 14.1818 9.2182 14.2135 9.25275 14.2672L9.63113 14.0236ZM8.28056 13.6719V13.2219H5.96944V13.6719V14.1219H8.28056V13.6719ZM5.96944 13.6719V13.2219C5.61379 13.2219 5.27883 13.2197 5.00812 13.2749C4.69949 13.3378 4.43236 13.482 4.24048 13.7801L4.61887 14.0236L4.99726 14.2672C5.0318 14.2135 5.06523 14.1818 5.18792 14.1568C5.34854 14.124 5.57565 14.1219 5.96944 14.1219V13.6719ZM4.61887 14.0236L4.2405 13.78C4.06854 14.0471 4.01431 14.3155 4.07252 14.6065C4.12065 14.8472 4.24803 15.0951 4.36167 15.3235L4.76455 15.1231L5.16743 14.9226C5.033 14.6524 4.97434 14.5265 4.95504 14.43C4.94799 14.3948 4.94961 14.3762 4.95227 14.363C4.95524 14.3484 4.96414 14.3186 4.99724 14.2672L4.61887 14.0236ZM4.76455 15.1231L4.36168 15.3236C4.88583 16.3767 5.91371 17.1219 7.125 17.1219V16.6719V16.2219C6.30421 16.2219 5.56254 15.7165 5.16741 14.9226L4.76455 15.1231ZM13.125 6.54688H12.675C12.675 6.91966 12.3728 7.22187 12 7.22187V7.67188V8.12188C12.8698 8.12188 13.575 7.41673 13.575 6.54688H13.125ZM12 7.67188V7.22187C11.6272 7.22187 11.325 6.91966 11.325 6.54688H10.875H10.425C10.425 7.41673 11.1302 8.12188 12 8.12188V7.67188ZM10.875 6.54688H11.325C11.325 6.17409 11.6272 5.87188 12 5.87188V5.42188V4.97187C11.1302 4.97187 10.425 5.67702 10.425 6.54688H10.875ZM12 5.42188V5.87188C12.3728 5.87188 12.675 6.17409 12.675 6.54688H13.125H13.575C13.575 5.67702 12.8698 4.97187 12 4.97187V5.42188Z" fill="#0052AD"/>
</svg>
