<svg width="80" height="78" viewBox="0 0 80 78" fill="none" xmlns="http://www.w3.org/2000/svg">
<g filter="url(#filter0_d_1131_9266)">
<path d="M60.1872 28.1151L44.6678 25.86L37.7271 11.7969C37.12 10.5667 35.36 10.5661 34.7525 11.7969L27.812 25.86L12.2925 28.1151C10.9353 28.3124 10.3902 29.9859 11.3734 30.9441L22.6033 41.8907L19.9521 57.3475C19.8998 57.6525 19.9339 57.9661 20.0505 58.2528C20.1671 58.5394 20.3616 58.7878 20.6119 58.9697C20.8623 59.1516 21.1586 59.2598 21.4673 59.2821C21.7759 59.3044 22.0847 59.2399 22.3586 59.0959L36.2398 51.7984C51.3521 59.7432 50.3141 59.2865 50.8926 59.2865C51.9148 59.2865 52.7019 58.365 52.5274 57.3475L49.8764 41.8907L61.1064 30.9441C62.0885 29.9866 61.5456 28.3126 60.1872 28.1151Z" fill="#F7AC16"/>
<path d="M36.2399 10.8721C35.9304 10.8721 35.6271 10.9587 35.3642 11.1221C35.1013 11.2854 34.8894 11.5191 34.7524 11.7966L27.8119 25.8598L12.2925 28.1149C10.9353 28.3122 10.3902 29.9856 11.3734 30.9439L22.6033 41.8905L19.9522 57.3472C19.8998 57.6523 19.9339 57.9658 20.0505 58.2525C20.1671 58.5392 20.3616 58.7875 20.6119 58.9694C20.8623 59.1513 21.1586 59.2596 21.4673 59.2819C21.7759 59.3042 22.0847 59.2397 22.3586 59.0956L36.2398 51.7981H36.2399V10.8721Z" fill="#F2D422"/>
<path d="M12.2925 28.1145C10.9353 28.3118 10.3902 29.9853 11.3734 30.9435L22.6033 41.8902L19.9521 57.3469C19.8998 57.6519 19.9339 57.9655 20.0505 58.2522C20.1671 58.5389 20.3616 58.7872 20.6119 58.9691C20.8623 59.151 21.1586 59.2592 21.4673 59.2815C21.7759 59.3038 22.0847 59.2393 22.3586 59.0953L36.2398 51.7978C51.3521 59.7426 50.3141 59.286 50.8926 59.286C51.2429 59.286 51.5842 59.1751 51.8676 58.9692L27.8119 25.8594L12.2925 28.1145Z" fill="#F7AC16"/>
<path d="M28.5658 39.981C16.5365 28.2552 17.0536 28.8836 16.8922 28.2755C16.8265 28.0312 16.813 27.747 16.8844 27.4473L12.2925 28.1145C10.9353 28.3118 10.3902 29.9852 11.3734 30.9435L22.6033 41.8901L19.9521 57.3469C19.8998 57.652 19.9339 57.9655 20.0505 58.2522C20.1671 58.5389 20.3616 58.7872 20.6119 58.9691C20.8623 59.151 21.1586 59.2593 21.4673 59.2816C21.7759 59.3039 22.0847 59.2394 22.3586 59.0953L26.44 56.9497C26.2319 56.7625 26.0746 56.5257 25.9827 56.2613C25.8909 55.9969 25.8675 55.7136 25.9147 55.4377L28.5658 39.981Z" fill="#F48B19"/>
<path d="M11.3734 30.9434L22.6033 41.89L19.9521 57.3468C19.8998 57.6518 19.9339 57.9654 20.0505 58.252C20.1671 58.5387 20.3616 58.787 20.6119 58.969C20.8623 59.1509 21.1586 59.2591 21.4673 59.2814C21.7759 59.3037 22.0847 59.2392 22.3586 59.0952L36.2398 51.7976C51.3521 59.7424 50.3141 59.2858 50.8926 59.2858C51.9148 59.2858 52.7019 58.3643 52.5274 57.3468L49.8764 41.89L10.9535 29.2432C10.7596 29.9383 10.9537 30.5345 11.3734 30.9434Z" fill="#F2D422"/>
<path d="M11.3734 30.9434L22.6033 41.89L19.9521 57.3468C19.8998 57.6518 19.9339 57.9654 20.0505 58.252C20.1671 58.5387 20.3616 58.7871 20.6119 58.969C20.8623 59.1509 21.1586 59.2591 21.4673 59.2814C21.7759 59.3037 22.0847 59.2392 22.3586 59.0952L26.44 56.9495C26.2319 56.7623 26.0746 56.5255 25.9827 56.2611C25.8909 55.9967 25.8675 55.7134 25.9147 55.4375L28.5658 39.9808L20.8486 32.4583L10.9535 29.2432C10.7596 29.9383 10.9537 30.5345 11.3734 30.9434Z" fill="#EFB616"/>
<path d="M19.9521 57.3476C19.8998 57.6527 19.9338 57.9662 20.0504 58.2529C20.167 58.5396 20.3615 58.7879 20.6119 58.9698C20.8623 59.1517 21.1585 59.26 21.4672 59.2823C21.7759 59.3046 22.0847 59.2401 22.3586 59.096L36.2397 51.7985C51.352 59.7433 50.314 59.2867 50.8925 59.2867C51.9148 59.2867 52.7019 58.3651 52.5274 57.3476L49.8763 41.8909L61.1064 30.9443C61.3279 30.7282 61.4846 30.4545 61.5588 30.1541C61.6329 29.8537 61.6216 29.5385 61.526 29.2441L22.6032 41.8909L19.9521 57.3476Z" fill="#F7AC16"/>
<path d="M19.9521 57.347C19.8998 57.6521 19.9338 57.9656 20.0504 58.2523C20.167 58.539 20.3615 58.7873 20.6119 58.9692C20.8623 59.1511 21.1585 59.2594 21.4672 59.2817C21.7759 59.304 22.0847 59.2395 22.3586 59.0954L26.4399 56.9498C26.2318 56.7626 26.0745 56.5258 25.9827 56.2614C25.8908 55.997 25.8674 55.7137 25.9146 55.4378L28.5658 39.9811L28.5441 39.96L22.6032 41.8903L19.9521 57.347Z" fill="#F48B19"/>
<path d="M22.3588 59.0952L36.2398 51.7977C51.3521 59.7425 50.3141 59.2859 50.8926 59.2859C51.9149 59.2859 52.702 58.3643 52.5275 57.3468L49.8764 41.8901L61.1065 30.9434C62.0885 29.9859 61.5455 28.3119 60.1872 28.1144L44.6677 25.8594L20.6121 58.9691C20.8625 59.1509 21.1587 59.2591 21.4674 59.2814C21.7761 59.3037 22.0848 59.2392 22.3588 59.0952Z" fill="#F2D422"/>
<path d="M61.5262 29.2432L36.2398 37.4592L20.6121 58.969C20.8624 59.1509 21.1587 59.2591 21.4674 59.2814C21.776 59.3037 22.0848 59.2392 22.3587 59.0952L36.2398 51.7976C51.3521 59.7424 50.3141 59.2858 50.8926 59.2858C51.9149 59.2858 52.702 58.3643 52.5275 57.3468L49.8764 41.89L61.1065 30.9434C61.328 30.7274 61.4848 30.4536 61.5589 30.1532C61.6331 29.8527 61.6218 29.5375 61.5262 29.2432Z" fill="#F7AC16"/>
<path d="M49.8765 41.8908L36.2398 37.46L20.6121 58.9698C20.8624 59.1517 21.1587 59.2599 21.4674 59.2822C21.776 59.3045 22.0848 59.24 22.3587 59.096L36.2398 51.7984C51.3521 59.7432 50.3141 59.2866 50.8926 59.2866C51.9149 59.2866 52.702 58.365 52.5275 57.3476L49.8765 41.8908Z" fill="#F2D422"/>
<path d="M20.6121 58.9698C20.8624 59.1517 21.1587 59.2599 21.4674 59.2822C21.776 59.3045 22.0848 59.24 22.3587 59.096L36.2398 51.7984C51.3521 59.7432 50.3141 59.2866 50.8926 59.2866C51.2429 59.2867 51.5843 59.1758 51.8676 58.9698L36.2398 37.46L20.6121 58.9698Z" fill="#F7AC16"/>
<path d="M36.2399 37.4602L36.2398 37.46L20.6121 58.9698C20.8624 59.1517 21.1587 59.2599 21.4674 59.2822C21.776 59.3045 22.0848 59.24 22.3587 59.096L36.2398 51.7984H36.2399V37.4602Z" fill="#F2D422"/>
<path d="M26.7605 50.5068L20.6121 58.9694C20.8624 59.1513 21.1587 59.2595 21.4674 59.2818C21.776 59.3041 22.0848 59.2396 22.3587 59.0955L26.44 56.9499C26.2319 56.7627 26.0746 56.5259 25.9828 56.2615C25.8909 55.9971 25.8675 55.7138 25.9147 55.4379L26.7605 50.5068Z" fill="#EFB616"/>
</g>
<defs>
<filter id="filter0_d_1131_9266" x="1.81198e-05" y="0.00014019" width="79.7275" height="77.4117" filterUnits="userSpaceOnUse" color-interpolation-filters="sRGB">
<feFlood flood-opacity="0" result="BackgroundImageFix"/>
<feColorMatrix in="SourceAlpha" type="matrix" values="0 0 0 0 0 0 0 0 0 0 0 0 0 0 0 0 0 0 127 0" result="hardAlpha"/>
<feOffset dx="3.62398" dy="3.62398"/>
<feGaussianBlur stdDeviation="7.24795"/>
<feComposite in2="hardAlpha" operator="out"/>
<feColorMatrix type="matrix" values="0 0 0 0 0.94902 0 0 0 0 0.831373 0 0 0 0 0.133333 0 0 0 0.3 0"/>
<feBlend mode="normal" in2="BackgroundImageFix" result="effect1_dropShadow_1131_9266"/>
<feBlend mode="normal" in="SourceGraphic" in2="effect1_dropShadow_1131_9266" result="shape"/>
</filter>
</defs>
</svg>
