<svg width="80" height="80" viewBox="0 0 80 80" fill="none" xmlns="http://www.w3.org/2000/svg">
<path d="M38.0225 58.6397C36.9782 57.9261 36.221 57.2995 35.3682 56.8469C34.0192 56.1333 32.6181 55.5241 31.2343 54.8975C30.9645 54.7757 30.6512 54.7235 30.3553 54.7148C30.2161 54.7148 30.0159 54.8714 29.955 55.0106C29.9028 55.1412 29.9463 55.4023 30.042 55.4893C30.3118 55.733 30.6164 55.9505 30.9384 56.1072C33.088 57.1515 35.1332 58.3525 37.0391 59.919C37.4394 59.7624 37.8224 59.6057 38.2662 59.4317C38.6404 59.6493 39.0408 59.8929 39.4237 60.1192C39.5716 59.98 39.7283 59.9016 39.7283 59.8233C39.7979 56.5336 39.7718 53.244 39.7631 49.9891C38.1792 49.6149 38.0225 49.5539 37.3089 48.2485C36.7867 47.2912 36.3951 46.2643 35.8903 45.159C35.6379 45.2896 35.3769 45.394 35.1593 45.5593C33.8539 46.5167 32.3831 47.091 30.8427 47.5175C30.2596 47.6741 29.9115 47.474 29.6939 46.9083C29.2501 45.7421 29.1456 44.5324 29.3197 43.3053C29.398 42.7744 29.4676 42.2436 29.5547 41.5734C29.0673 41.5734 28.7279 41.5473 28.3885 41.5734C26.8307 41.7214 25.3425 41.4429 23.9152 40.8163C23.2625 40.5291 23.1146 40.1549 23.393 39.4935C23.9065 38.2489 24.4983 37.0393 25.3773 35.9949C25.6036 35.7251 25.8385 35.4466 26.0213 35.2291C25.9169 34.6634 25.473 34.6634 25.1771 34.498C23.9326 33.8192 22.81 32.9837 21.8265 31.9655C21.3653 31.4868 21.3827 30.9821 21.8875 30.5208C22.8883 29.607 24.0371 28.9195 25.2903 28.3973C25.6732 28.2407 26.0735 28.1014 26.5696 27.91C26.3868 27.5793 26.265 27.3095 26.0996 27.0745C25.2729 25.917 24.7768 24.5942 24.3155 23.2714C24.0109 22.4011 24.3417 21.818 25.2468 21.6787C26.5783 21.4786 27.9185 21.3915 29.2501 21.757C29.5982 21.8528 29.9463 21.9224 30.2335 21.992C30.6077 21.6787 30.4511 21.3828 30.3814 21.0956C30.1029 19.825 30.129 18.5457 30.3205 17.2664C30.364 16.9618 30.4249 16.6659 30.512 16.37C30.7469 15.6563 31.2604 15.3518 31.9305 15.6825C33.1925 16.3004 34.4021 17.0053 35.6292 17.6841C35.9338 17.8582 36.2123 18.0932 36.5866 18.3543C36.8476 17.9191 37.0478 17.5536 37.2828 17.2142C37.9703 16.2046 38.6056 15.1603 39.3715 14.2117C40.1634 13.237 40.6595 13.2805 41.4079 14.2378C42.1999 15.256 42.8874 16.3352 43.3226 17.5536C43.4183 17.8234 43.5662 18.0845 43.749 18.4761C44.1928 18.1889 44.5323 17.9626 44.8717 17.745C46.1162 16.9444 47.4129 16.283 48.8576 15.9436C49.519 15.7869 49.9367 16.0654 50.0412 16.7355C50.2413 18.067 50.3284 19.4073 50.076 20.7475C50.0063 21.1044 49.928 21.4524 49.8236 21.9485C50.1717 21.9746 50.4502 22.0442 50.7113 22.0007C52.0515 21.7919 53.3918 21.7919 54.7233 22.0268C55.0192 22.0791 55.3238 22.14 55.611 22.2357C56.1419 22.4185 56.3507 22.8449 56.1506 23.4019C55.6719 24.7247 55.1497 26.0302 54.2707 27.1528C54.0532 27.4226 53.8617 27.7098 53.5832 28.1014C54.0184 28.319 54.3491 28.4496 54.645 28.6323C55.7763 29.346 56.9338 30.0335 58.0217 30.8167C58.6657 31.2867 58.6483 31.8089 58.0826 32.3571C57.1079 33.297 56.0548 34.1151 54.819 34.6895C54.497 34.8374 54.175 35.0115 53.7399 35.2291C54.3317 36.1081 54.9061 36.8739 55.3847 37.692C55.8373 38.4752 56.1854 39.3281 56.6118 40.2245C56.2898 40.503 56.0635 40.8163 55.7589 40.9381C54.4448 41.4777 53.0785 41.7562 51.6425 41.6082C51.1725 41.5647 50.6939 41.5473 50.0934 41.5125C50.0847 41.9477 50.0412 42.3045 50.076 42.6439C50.2239 44.0015 50.1108 45.3331 49.6669 46.6211C49.5538 46.9518 49.3449 47.2477 49.1448 47.6132C47.117 47.2912 45.4199 46.3774 43.6881 45.2461C43.018 46.2556 42.3391 47.152 42.3478 48.3791C42.3652 51.6775 42.374 54.9758 42.4001 58.2742C42.4001 58.4396 42.4871 58.5962 42.5654 58.8399C43.279 58.7877 43.4966 58.0305 44.2364 57.8565C44.5236 58.0392 44.9152 58.2916 45.3764 58.5788C45.6636 58.3699 45.9421 58.1437 46.238 57.9522C47.7523 56.9253 49.2753 55.8983 50.7896 54.8714C51.1899 54.6016 51.599 54.3318 51.9732 54.0185C52.0776 53.9315 52.1298 53.6269 52.0602 53.5399C51.9297 53.3745 51.6773 53.1744 51.5032 53.1918C51.1551 53.2353 50.7809 53.3571 50.4763 53.5399C48.8489 54.4972 47.2301 55.4806 45.6114 56.464C45.2111 56.7077 44.8195 56.9775 44.2712 57.3343C44.1754 56.8992 44.0449 56.6294 44.0623 56.3683C44.2015 54.7757 44.9152 53.4615 46.0466 52.3476C47.6827 50.7463 49.7017 49.9369 51.8949 49.5017C53.7138 49.1449 55.5414 49.1797 57.3603 49.5192C58.2479 49.6845 58.4916 50.0761 58.2828 50.9551C57.9085 52.5042 57.3951 54.0098 56.577 55.3849C55.6197 56.9949 54.3404 58.2742 52.6955 59.188C50.4763 60.4238 48.17 60.563 45.8029 59.6754C45.4635 59.5448 45.1415 59.3882 44.8282 59.2489C43.8621 59.7363 43.279 60.5369 42.7656 61.355C42.5219 61.7379 42.4871 62.2775 42.461 62.7475C42.4088 63.6003 42.4784 64.4619 42.4175 65.3061C42.3652 65.9936 41.8866 66.4114 41.2252 66.4897C40.5725 66.568 39.9633 66.1938 39.8588 65.5585C39.7718 65.0189 39.7283 64.4619 39.7718 63.9136C39.8762 62.7562 39.4063 61.9033 38.5186 61.2332C38.1792 60.9808 37.8398 60.7371 37.4655 60.4673C37.2132 60.5544 36.9782 60.6066 36.7693 60.711C34.3934 61.825 32.035 61.6944 29.6939 60.5892C28.6322 60.0844 27.7184 59.3795 26.9177 58.5179C25.2816 56.7425 24.1763 54.6277 23.2451 52.4259C22.9492 51.721 23.1668 51.2858 23.8369 51.1901C26.4477 50.8246 29.0586 50.5113 31.6608 51.2336C33.088 51.6252 34.437 52.1822 35.577 53.1656C36.9608 54.3579 37.9616 55.7852 38.1357 57.665C38.1531 57.8913 38.0835 58.1263 38.0312 58.6049L38.0225 58.6397ZM33.1054 23.6456C32.3831 24.9945 31.478 25.3165 30.2422 24.9945C29.5634 24.8117 28.8323 24.7857 28.023 24.6812C28.0491 25.0467 27.9969 25.2991 28.0926 25.4906C28.5103 26.2999 28.9368 27.1093 29.4241 27.8839C30.0768 28.9108 29.9289 29.4678 28.8062 30.0161C28.0926 30.3642 27.3789 30.7123 26.6914 31.0952C26.4564 31.2258 26.2911 31.4694 26.0474 31.7044C26.3172 31.9655 26.4739 32.157 26.6653 32.2788C27.1788 32.6008 27.701 32.9228 28.2405 33.2013C29.807 33.9933 29.8332 34.1325 28.667 35.5424C28.3798 35.8905 27.9011 36.1864 28.1448 36.7869C28.5712 36.9348 28.9977 37.0828 29.4676 37.2394C29.2327 37.7877 29.0499 38.2228 28.8932 38.5971C29.1978 39.1366 29.6417 39.0931 30.0594 39.1279C30.7034 39.1802 31.4519 38.745 31.9741 39.3368C32.4701 39.9025 32.0089 40.6335 32.0872 41.2862C32.1568 41.8693 31.9479 42.5047 32.4266 43.0181C33.3491 42.9659 33.7929 41.9303 34.7416 41.9999C34.9417 42.4698 35.1506 42.9398 35.403 43.5229C35.812 43.227 36.0905 43.0181 36.3864 42.8267C36.8825 42.4872 37.4917 42.4611 37.892 42.8092C38.1096 43.0007 38.2488 43.2879 38.3706 43.549C38.7536 44.3671 39.0843 45.2199 39.8762 45.7943C41.112 45.0633 41.3644 43.7143 42.0084 42.6874C42.635 42.4785 43.2094 42.2958 43.7316 42.1217C44.7672 42.818 45.7942 43.2705 47.0213 43.4097C47.5957 42.2784 46.8646 41.1644 47.0996 40.2332C47.7697 39.2759 48.5008 38.7624 49.6408 39.0148C50.0063 39.0931 50.4328 38.9104 50.9202 38.8233C50.7983 38.2925 50.7113 37.8921 50.6156 37.4918C50.9376 37.2481 51.2509 36.9958 51.5903 36.7347C51.4162 36.4388 51.3031 36.2212 51.1725 36.0297C51.0333 35.8296 50.8679 35.6468 50.7287 35.4466C50.1717 34.6199 50.3197 33.9672 51.1638 33.4885C51.8514 33.0969 52.5476 32.7139 53.2177 32.2875C53.444 32.1395 53.6006 31.8785 53.853 31.6C53.5049 31.365 53.2699 31.1822 53.0088 31.043C52.3126 30.6688 51.5903 30.3294 50.9027 29.9377C50.1456 29.5113 49.9889 28.7889 50.5372 28.1188C50.8505 27.7359 51.1116 27.3791 51.2335 26.8743C51.3379 26.4218 51.6947 26.0389 51.9123 25.6124C52.0167 25.421 52.0689 25.2034 52.1821 24.9162C50.7896 24.6029 49.5451 24.9945 48.231 25.1512C47.7697 24.6725 47.3172 24.1938 46.8559 23.7152C47.2301 22.4098 47.3781 21.1653 46.9952 19.825C45.5592 20.1209 44.6541 21.1827 43.5662 21.8354C42.9222 21.6526 42.3391 21.4873 41.8344 21.348C41.347 20.382 40.9206 19.5117 40.4593 18.6502C40.3288 18.3978 40.1721 18.0932 39.737 18.1715C38.7449 19.0766 38.3619 20.3994 37.6744 21.5743C37.1261 21.6787 36.5953 21.7832 36.1079 21.8702C35.3682 21.2871 34.7154 20.7388 34.0279 20.2428C33.8191 20.0861 33.497 20.0774 33.2012 19.9904C32.6703 21.2697 32.7051 22.462 33.088 23.6195L33.1054 23.6456Z" fill="#003A7B"/>
<path d="M33.0967 23.6456C32.7138 22.4881 32.679 21.2958 33.2099 20.0165C33.5058 20.1035 33.8191 20.1122 34.0366 20.2689C34.7242 20.7649 35.3769 21.3132 36.1166 21.8963C36.604 21.8006 37.1348 21.7048 37.6831 21.6004C38.3619 20.4255 38.7536 19.1027 39.7457 18.1976C40.1808 18.128 40.3288 18.4239 40.468 18.6763C40.9293 19.5291 41.3557 20.4081 41.8431 21.3741C42.3478 21.5134 42.9309 21.6788 43.5749 21.8615C44.6628 21.2088 45.5766 20.1557 47.0039 19.8511C47.3868 21.2001 47.2301 22.4359 46.8646 23.7413C47.3259 24.22 47.7784 24.6986 48.2397 25.1773C49.5538 25.0206 50.7896 24.6203 52.1908 24.9423C52.0863 25.2208 52.0254 25.4384 51.921 25.6385C51.6947 26.065 51.3466 26.4479 51.2422 26.9004C51.1203 27.4052 50.8592 27.762 50.5459 28.145C49.9976 28.8151 50.1543 29.5287 50.9114 29.9639C51.599 30.3555 52.3213 30.6949 53.0175 31.0691C53.2786 31.2084 53.5136 31.3911 53.8617 31.6261C53.6093 31.9046 53.4527 32.1657 53.2264 32.3136C52.5563 32.7401 51.8601 33.123 51.1725 33.5146C50.3284 33.9933 50.1717 34.646 50.7374 35.4728C50.8766 35.6729 51.042 35.8557 51.1812 36.0559C51.3205 36.256 51.4249 36.4649 51.599 36.7608C51.2596 37.0219 50.9463 37.2655 50.6243 37.5179C50.7113 37.9183 50.807 38.3186 50.9289 38.8495C50.4328 38.9278 50.0151 39.1192 49.6495 39.0409C48.5095 38.7885 47.7784 39.302 47.1083 40.2593C46.8733 41.1992 47.6044 42.3045 47.03 43.4359C45.7942 43.2966 44.7672 42.8441 43.7403 42.1478C43.2181 42.3219 42.6437 42.5047 42.0171 42.7135C41.3731 43.7405 41.1207 45.0894 39.8849 45.8204C39.093 45.2461 38.7623 44.3932 38.3793 43.5751C38.2575 43.3053 38.1096 43.0181 37.9007 42.8354C37.5004 42.4872 36.8912 42.5134 36.3951 42.8528C36.1079 43.0442 35.8207 43.2618 35.4117 43.549C35.1593 42.9659 34.9591 42.4959 34.7503 42.026C33.8016 41.9564 33.3578 42.992 32.4353 43.0442C31.9566 42.5395 32.1655 41.8954 32.0959 41.3124C32.0176 40.6596 32.4788 39.9373 31.9828 39.3629C31.4606 38.7624 30.7121 39.2063 30.0681 39.1541C29.6417 39.1193 29.1978 39.1628 28.9019 38.6232C29.0586 38.2403 29.2414 37.8138 29.4763 37.2655C29.0064 37.1002 28.5799 36.9609 28.1535 36.813C27.9011 36.2125 28.3885 35.9166 28.6757 35.5685C29.8419 34.1499 29.8157 34.0194 28.2492 33.2274C27.7097 32.9489 27.1875 32.6356 26.674 32.3049C26.4739 32.1831 26.3259 31.9829 26.0561 31.7305C26.2998 31.4956 26.4651 31.2432 26.7001 31.1213C27.3964 30.7384 28.11 30.3903 28.8149 30.0422C29.9463 29.4852 30.0855 28.9369 29.4328 27.91C28.9455 27.1354 28.519 26.3261 28.1013 25.5167C28.0056 25.3339 28.0578 25.0729 28.0317 24.7073C28.8497 24.8205 29.5721 24.8466 30.2509 25.0206C31.4867 25.3513 32.4005 25.0206 33.1141 23.6717L33.0967 23.6456ZM39.911 40.7989C44.2799 40.9642 48.727 37.2568 48.6835 31.9307C48.6487 26.474 43.8621 23.2365 39.8327 23.2365C35.0723 23.2365 31.1908 27.2312 31.1734 32.1048C31.156 36.9958 35.0026 40.8337 39.9023 40.7989H39.911Z" fill="white"/>
<path d="M39.911 40.7989C35.0113 40.8337 31.1647 36.9958 31.1821 32.1048C31.1995 27.2312 35.081 23.2453 39.8414 23.2365C43.8708 23.2365 48.6574 26.474 48.6922 31.9307C48.727 37.2568 44.2886 40.9642 39.9198 40.7989H39.911Z" fill="#003A7B"/>
</svg>
