<svg width="80" height="80" viewBox="0 0 80 80" fill="none" xmlns="http://www.w3.org/2000/svg">
<path d="M38.2948 58.3166C37.7347 57.6409 37.219 57.3742 36.561 57.4453C35.9209 57.8721 35.743 58.5567 35.4229 59.1613C35.1029 59.7659 34.8272 60.3972 34.4716 60.984C34.0892 61.6242 33.5913 61.8287 33.0845 61.6242C32.5777 61.4197 32.3821 60.8951 32.6577 60.1838C32.9423 59.4281 33.3157 58.699 33.6269 57.9521C33.8136 57.4986 33.9737 57.0363 34.1159 56.6451C33.778 55.9871 33.2801 55.7737 32.5955 55.6759C32.4088 55.9249 32.1421 56.1827 31.982 56.5028C31.5463 57.3297 31.1818 58.1921 30.7461 59.019C30.5772 59.3391 30.346 59.677 30.0615 59.8637C29.8481 60.006 29.4391 60.0238 29.2168 59.8993C28.9945 59.7748 28.7722 59.4192 28.7722 59.1702C28.7722 58.8145 28.9501 58.4589 29.0923 58.1121C29.5013 57.1341 29.9281 56.1649 30.346 55.1958C30.3727 55.1424 30.3638 55.0713 30.3727 54.9646C30.1415 54.2977 29.5191 54.1733 28.8167 54.0132C28.6122 54.2711 28.3455 54.52 28.1765 54.8312C27.8564 55.4358 27.5897 56.076 27.2963 56.6895C27.1362 57.0274 26.994 57.3742 26.7984 57.6942C26.416 58.3077 25.847 58.4945 25.3935 58.2011C25.0023 57.9432 24.8956 57.5253 25.1713 56.8585C25.5714 55.8804 26.0515 54.929 26.4516 53.951C26.7361 53.2397 26.496 52.7862 25.767 52.475C25.358 52.2972 24.9845 52.4039 24.7889 52.7507C24.3799 53.4442 24.042 54.1911 23.6597 54.9024C23.393 55.3914 23.1351 55.8982 22.8151 56.3516C22.5394 56.7429 21.997 56.8229 21.6414 56.6184C21.268 56.405 21.019 55.9249 21.1079 55.5159C21.1613 55.2758 21.2324 55.0268 21.3391 54.8046C22.1393 53.1152 22.904 51.3992 23.7575 49.7365C24.6022 48.1005 25.4113 47.816 27.1274 48.4917C28.9234 49.1941 30.7016 49.9588 32.4977 50.6968C33.1823 50.9813 33.8759 51.2391 34.6494 51.5326C34.925 51.1858 35.1829 50.928 35.3518 50.6168C35.7075 49.9588 36.0809 49.3364 36.6766 48.8296C37.0412 48.5184 37.2723 48.0472 37.5035 47.6115C40.4643 41.9833 43.3896 36.3284 46.3771 30.7091C49.1689 25.481 52.023 20.2885 54.8594 15.087C55.0372 14.7581 55.2328 14.4291 55.4818 14.1534C56.0597 13.5133 56.931 13.3354 57.7046 13.6555C58.5493 14.0112 59.0472 14.8381 58.8783 15.7717C58.7893 16.2518 58.5759 16.723 58.3359 17.1498C56.6999 20.164 55.0461 23.1782 53.3745 26.1745C49.0622 33.91 44.7677 41.6632 40.7755 49.5676C40.6066 49.8966 40.4376 50.2433 40.3843 50.599C40.3132 51.088 40.4377 51.6037 40.3487 52.0838C40.2598 52.5551 40.0109 52.9996 39.7975 53.542C40.1531 53.7554 40.4465 53.9599 40.7666 54.111C42.6872 55.0002 44.6255 55.8804 46.5549 56.7607C46.8394 56.894 47.1239 57.0096 47.4085 57.143C49.0445 57.9432 49.4001 58.7879 48.7333 60.4417C48.4576 61.1352 48.1286 61.8109 47.8085 62.4867C47.364 63.4469 46.9283 64.4161 46.4304 65.3586C46.2348 65.732 45.9325 66.0699 45.6035 66.3277C45.3012 66.5589 44.8922 66.5589 44.5543 66.3188C44.2164 66.0699 44.1009 65.7231 44.2253 65.3319C44.3587 64.9229 44.5454 64.5228 44.7233 64.1227C44.9989 63.4914 45.3012 62.8779 45.5413 62.2377C45.7813 61.6064 45.568 61.1796 44.9367 60.8862C44.4743 60.6728 44.0297 60.744 43.7897 61.1618C43.3896 61.8643 43.0695 62.6111 42.6872 63.3313C42.456 63.767 42.2159 64.2116 41.9136 64.5939C41.638 64.9585 41.0778 64.994 40.7311 64.7362C40.3932 64.4872 40.2598 64.1404 40.4021 63.7492C40.6155 63.1624 40.8822 62.6023 41.1312 62.0332C41.4246 61.3575 41.8692 60.7262 41.8958 59.9793C41.6291 59.3658 41.1312 59.1613 40.571 59.0368C40.002 59.1969 39.8419 59.7037 39.6285 60.1394C39.2729 60.8684 38.9706 61.6242 38.5883 62.3355C38.4193 62.6467 38.1615 62.9757 37.8592 63.1357C37.6369 63.2602 37.219 63.2246 37.0056 63.0824C36.7922 62.9401 36.5966 62.5667 36.6322 62.3177C36.6855 61.8998 36.8989 61.4908 37.0678 61.0907C37.4591 60.1749 37.868 59.268 38.3037 58.29L38.2948 58.3166ZM38.8728 55.7026C39.2284 56.0227 39.4418 56.3072 39.7174 56.4584C42.2959 57.8543 42.9984 58.1032 44.0742 58.0321C44.0653 57.9165 44.092 57.7298 44.0386 57.7031C42.5538 56.9741 41.0689 56.2627 39.5752 55.5603C39.4507 55.4981 39.2462 55.6226 38.8728 55.6937V55.7026ZM31.9642 52.7062C32.6666 53.4531 33.4491 53.8265 34.3738 53.9332C34.4182 53.9332 34.4982 53.8621 34.5071 53.8176C34.5338 53.7109 34.5694 53.5509 34.5071 53.4886C33.9648 52.8218 33.3068 52.6084 31.9642 52.7062Z" fill="#003A7B"/>
<path d="M38.8817 55.7026C39.2462 55.6226 39.4596 55.507 39.5841 55.5692C41.0778 56.2627 42.5716 56.9829 44.0475 57.712C44.1009 57.7387 44.0742 57.9254 44.0831 58.041C43.0072 58.1121 42.3048 57.8632 39.7263 56.4672C39.4507 56.3161 39.2373 56.0316 38.8817 55.7115V55.7026Z" fill="white"/>
<path d="M31.9642 52.7151C33.3068 52.6173 33.9648 52.8218 34.5071 53.4975C34.5605 53.5598 34.5249 53.7198 34.5071 53.8265C34.4983 53.871 34.4182 53.951 34.3738 53.9421C33.4491 53.8354 32.6755 53.462 31.9642 52.7151Z" fill="white"/>
</svg>
