<svg width="80" height="80" viewBox="0 0 80 80" fill="none" xmlns="http://www.w3.org/2000/svg">
<path d="M47.7031 46.4027C52.0941 43.4173 55.9839 39.8326 60.4838 36.8689C61.7586 38.3507 62.9462 39.7345 64.1666 41.1618C64.0685 42.0662 63.3821 42.6219 62.8591 43.2429C60.5492 45.9996 58.2066 48.7344 55.8531 51.4474C53.4451 54.215 51.0045 56.9607 48.553 59.6955C48.128 60.175 47.8338 60.6653 47.8447 61.3299C47.8447 61.7875 47.8447 62.256 47.7358 62.7027C47.4525 64.0102 46.6462 64.8928 45.3605 65.2306C44.7721 65.3831 44.1511 65.4376 43.5409 65.4376C34.7371 65.4594 25.9443 65.4594 17.1405 65.4594C16.5303 65.4594 15.9093 65.4158 15.3209 65.2633C13.12 64.6858 12.172 63.1822 12.6078 60.9594C13.0219 58.8565 13.4468 56.7537 13.9698 54.6835C14.2313 53.6484 13.9698 52.9402 13.2071 52.2537C11.0824 50.3361 9.44809 48.0371 8.1188 45.5092C2.68182 35.2672 6.90938 21.909 17.2821 16.7771C25.9007 12.5169 35.0749 14.6089 40.9041 20.7868C43.9658 24.0337 45.5239 27.9671 45.9925 32.3363C46.3302 35.5287 46.4828 38.743 46.7334 41.9463C46.7878 42.709 46.8314 43.4718 46.9622 44.2345C47.1474 45.3349 47.1692 46.3482 46.1777 47.1436C45.9706 47.307 45.8072 47.6993 45.8399 47.9499C46.0251 49.3119 46.2649 50.6629 46.5372 52.0031C46.5699 52.1557 46.875 52.3409 47.0602 52.3518C47.2563 52.3518 47.5832 52.2101 47.6268 52.0576C47.812 51.491 48.0299 50.8917 48.0191 50.3034C47.9973 49.083 47.8338 47.8736 47.7031 46.4027ZM42.3424 30.5494C42.2225 29.863 42.1898 29.3399 42.0373 28.8605C39.9562 22.2577 33.081 17.1585 25.4104 17.7251C17.9904 18.2699 11.8016 23.4018 9.79676 30.5712C7.91179 37.3374 9.60063 43.232 14.1333 48.4402C14.3185 48.6472 14.6018 48.7671 14.9831 49.0286C15.1357 48.5274 15.2773 48.2005 15.3536 47.8518C16.2579 43.5153 17.1514 39.1788 18.0449 34.8423C18.7095 31.6063 19.2434 31.116 22.5775 30.7673C28.5265 30.1462 34.4756 30.3533 40.4356 30.5494C41.024 30.5712 41.6124 30.5494 42.3533 30.5494H42.3424ZM42.4949 34.6789C35.3037 35.6922 28.1016 35.921 20.9104 34.4501C20.3874 35.1038 20.0388 35.6486 20.3874 36.4004C20.5073 36.4985 20.6162 36.6401 20.747 36.6728C21.3354 36.8144 21.9346 36.9452 22.5448 37.0324C28.483 37.8604 34.4212 37.904 40.3593 37.1086C41.2201 36.9997 42.2007 37.0323 42.9525 36.2805C42.9198 35.9646 42.9307 35.6595 42.8545 35.3762C42.8 35.1692 42.6475 34.9839 42.484 34.6789H42.4949Z" fill="#003A7B"/>
<path d="M60.9414 31.4646C61.0395 30.6801 61.0613 30.1463 61.192 29.6233C61.6496 27.6729 63.0225 26.823 64.9402 27.3242C65.4523 27.455 65.9644 27.6511 66.422 27.9017C70.2355 30.0591 72.8614 33.1862 74.049 37.4573C74.1144 37.6752 74.1471 37.904 74.1907 38.1328C74.5938 40.6498 73.2209 42.0989 70.6713 41.8374C69.135 41.674 67.6859 41.1727 66.422 40.2902C64.1884 38.7321 62.4233 36.76 61.5516 34.1232C61.2465 33.1971 61.1157 32.2056 60.9523 31.4646H60.9414ZM67.6641 32.2055C67.7404 31.6063 67.3699 31.0942 66.9341 31.1487C66.7053 31.1813 66.3893 31.4102 66.313 31.6281C66.1496 32.0421 66.5418 32.5215 67.043 32.4997C67.2827 32.4997 67.5225 32.2818 67.675 32.2055H67.6641ZM72.066 38.6667C72.1205 38.0566 71.7173 37.5336 71.3142 37.6098C71.0854 37.6534 70.7912 37.9367 70.7367 38.1546C70.6169 38.6013 71.0636 39.1244 71.4776 39.059C71.7173 39.0154 71.9353 38.7648 72.0769 38.6667H72.066ZM68.2416 35.8883C67.9256 36.237 67.6532 36.4004 67.5878 36.6292C67.468 37.0542 67.8493 37.5989 68.2634 37.5662C68.4922 37.5444 68.8953 37.2067 68.8626 37.0977C68.7646 36.7273 68.5249 36.3895 68.2416 35.8883ZM64.6678 29.4598C64.3518 29.8848 64.0903 30.0809 64.0467 30.3097C63.9704 30.7564 64.4281 31.214 64.853 31.1487C65.0164 31.1269 65.2779 30.8436 65.2561 30.7455C65.1472 30.3751 64.9402 30.0264 64.6678 29.4598ZM66.8796 34.1559C66.4329 33.8181 66.1932 33.5457 65.8881 33.4368C65.5721 33.3169 65.1799 33.7636 65.2017 34.1232C65.2344 34.5699 65.5503 34.8423 65.9099 34.8096C66.1932 34.7878 66.4438 34.461 66.8687 34.1559H66.8796ZM70.7803 36.2043C70.8675 36.0626 71.1071 35.8447 71.1289 35.605C71.1725 35.1692 70.6387 34.7878 70.2028 34.9186C70.0394 34.9731 69.8433 35.2019 69.8106 35.3653C69.7343 35.8665 70.1157 36.237 70.7803 36.1934V36.2043ZM70.2791 32.892C69.8106 32.6523 69.5273 32.5106 69.2331 32.3581C69.1132 32.5978 68.8626 32.8593 68.9171 33.0554C68.9716 33.2624 69.3094 33.5239 69.5164 33.5239C69.7125 33.5239 69.9086 33.2188 70.2682 32.9029L70.2791 32.892ZM69.0479 34.5481C68.721 34.2648 68.4922 34.036 68.2307 33.8835C68.1762 33.8508 67.8711 34.1123 67.8167 34.2866C67.6968 34.6789 68.0019 35.0384 68.405 34.9839C68.5793 34.9622 68.7319 34.7769 69.0479 34.5481Z" fill="#003A7B"/>
<path d="M42.3424 30.5494C41.6015 30.5494 41.0131 30.5712 40.4247 30.5494C34.4647 30.3424 28.5157 30.1462 22.5666 30.7673C19.2434 31.116 18.7095 31.6063 18.0339 34.8423C17.1405 39.1788 16.247 43.5153 15.3427 47.8518C15.2664 48.2005 15.1357 48.5274 14.9722 49.0286C14.5909 48.7671 14.2967 48.6472 14.1224 48.4402C9.58972 43.232 7.88999 37.3375 9.78585 30.5712C11.7907 23.4018 17.9795 18.2699 25.3995 17.7251C33.0701 17.1694 39.9562 22.2577 42.0264 28.8605C42.1789 29.3509 42.2116 29.8739 42.3315 30.5494L42.3424 30.5494Z" fill="white"/>
<path d="M42.4949 34.6789C42.6583 34.9839 42.8109 35.1692 42.8654 35.3762C42.9416 35.6595 42.9307 35.9646 42.9634 36.2805C42.2116 37.0215 41.231 36.9888 40.3702 37.1086C34.4321 37.8931 28.4939 37.8604 22.5557 37.0324C21.9564 36.9452 21.3571 36.8145 20.7579 36.6728C20.6271 36.6401 20.5182 36.4985 20.3983 36.4004C20.0496 35.6595 20.3983 35.1038 20.9213 34.4501C28.1016 35.921 35.3146 35.6922 42.5058 34.6789L42.4949 34.6789Z" fill="white"/>
<path d="M67.6641 32.2055C67.5116 32.2818 67.2719 32.4997 67.0322 32.4997C66.5418 32.5106 66.1496 32.0421 66.3021 31.6281C66.3893 31.4101 66.6944 31.1704 66.9232 31.1486C67.359 31.0942 67.7295 31.6063 67.6532 32.2055L67.6641 32.2055Z" fill="white"/>
<path d="M72.066 38.6667C71.9243 38.7648 71.7174 39.0154 71.4668 39.059C71.0527 39.1243 70.606 38.6013 70.7258 38.1546C70.7803 37.9258 71.0745 37.6534 71.3033 37.6098C71.7173 37.5227 72.1096 38.0456 72.0551 38.6667L72.066 38.6667Z" fill="white"/>
<path d="M68.2416 35.8883C68.514 36.4004 68.7646 36.7273 68.8626 37.0977C68.8844 37.2067 68.4813 37.5444 68.2634 37.5662C67.8493 37.5989 67.468 37.0542 67.5878 36.6292C67.6532 36.4004 67.9256 36.237 68.2416 35.8883Z" fill="white"/>
<path d="M64.6678 29.4598C64.9402 30.0264 65.1472 30.3751 65.2561 30.7455C65.2888 30.8436 65.0164 31.1269 64.853 31.1487C64.4281 31.2249 63.9704 30.7564 64.0467 30.3097C64.0903 30.07 64.3518 29.8739 64.6678 29.4598Z" fill="white"/>
<path d="M66.8687 34.1559C66.4438 34.461 66.1823 34.7878 65.9099 34.8096C65.5394 34.8423 65.2344 34.559 65.2017 34.1232C65.1799 33.7745 65.5721 33.3278 65.8881 33.4368C66.1932 33.5457 66.4329 33.829 66.8796 34.1559H66.8687Z" fill="white"/>
<path d="M70.7694 36.2043C70.1048 36.237 69.7234 35.8774 69.7997 35.3762C69.8215 35.2019 70.0285 34.9731 70.1919 34.9295C70.6386 34.7987 71.1616 35.1801 71.1181 35.6159C71.0963 35.8556 70.8566 36.0735 70.7694 36.2152V36.2043Z" fill="white"/>
<path d="M70.2682 32.892C69.9086 33.208 69.7125 33.513 69.5164 33.513C69.2985 33.513 68.9716 33.2515 68.9171 33.0445C68.8626 32.8593 69.1132 32.5869 69.2331 32.3472C69.5164 32.4997 69.8105 32.6414 70.2791 32.8811L70.2682 32.892Z" fill="white"/>
<path d="M69.037 34.5481C68.721 34.766 68.5685 34.9513 68.3941 34.9839C67.991 35.0384 67.6859 34.6789 67.8057 34.2866C67.8602 34.1123 68.1653 33.8508 68.2198 33.8835C68.4922 34.036 68.7101 34.2648 69.037 34.5481Z" fill="white"/>
</svg>
