<svg width="80" height="80" viewBox="0 0 80 80" fill="none" xmlns="http://www.w3.org/2000/svg">
<path d="M45.6721 30.5165C44.913 30.2252 44.2422 29.9339 43.5448 29.6956C43.0947 29.5367 42.7504 29.6779 42.6092 30.0222C42.4415 30.4282 42.5915 30.7548 42.9181 30.9932C43.1653 31.1697 43.4389 31.3286 43.7302 31.4434C46.1135 32.3614 47.5434 34.1974 48.3026 36.5189C48.9558 38.5226 49.7061 40.491 50.5093 42.4329C51.1184 43.8982 51.2419 45.4253 50.8712 46.9876C50.6505 47.888 50.4652 48.806 50.2798 49.7152C49.9179 51.4364 49.8914 53.1754 50.2092 54.8878C50.5181 56.5296 50.933 58.1538 51.3214 59.7779C51.5509 60.7401 51.904 61.6846 52.054 62.6555C52.3365 64.5004 51.2773 65.9921 49.503 66.407C47.7818 66.8042 46.0605 65.9038 45.5221 64.1914C45.1249 62.9556 44.86 61.6757 44.6041 60.3958C44.1274 58.0302 43.6772 55.6557 43.2712 53.2724C42.9799 51.5953 43.13 49.9447 43.8273 48.3558C44.048 47.8527 44.1804 47.2966 44.3304 46.7581C44.7983 45.0016 43.7567 42.9361 42.0001 42.4506C41.3469 42.2741 40.7114 42.0092 40.0935 41.7268C37.0747 40.3233 35.5652 37.3927 36.0772 34.1003C36.3244 32.5467 36.8099 31.0991 37.6661 29.775C38.3369 28.7335 39.0166 27.6919 39.6345 26.615C40.6408 24.8408 41.6559 23.0577 42.5474 21.2217C43.4742 19.3063 43.9421 17.2496 44.0745 15.1223C44.0921 14.8133 44.048 14.4779 44.1451 14.2043C44.2422 13.9395 44.4452 13.604 44.6747 13.5246C44.8954 13.4451 45.3014 13.5687 45.4868 13.7453C45.831 14.0895 46.1047 14.5132 46.3606 14.9369C47.464 16.7906 47.9407 18.8384 48.0996 20.9569C48.3291 23.9934 47.6759 26.871 46.3253 29.5985C46.1664 29.9163 45.9193 30.1811 45.6809 30.5165H45.6721ZM44.9307 36.5365C44.8865 35.133 43.6066 33.8619 42.3267 33.9502C40.9762 34.0385 39.8287 35.336 39.8816 36.7042C39.9346 38.0812 41.241 39.2817 42.5739 39.1758C43.8273 39.0787 44.966 37.7988 44.9307 36.5365Z" fill="#003A7B"/>
<path d="M31.9021 38.6638C32.0874 39.0257 32.2198 39.2287 32.2905 39.4494C32.4052 39.8025 32.4405 40.1821 32.5729 40.5263C32.8995 41.4178 33.4821 41.6562 34.3295 41.2678C34.8326 41.0383 35.3004 40.7382 35.8654 40.4292C36.8099 41.1089 37.569 41.9739 38.4164 42.733C38.0456 43.8629 37.3924 44.622 36.4744 45.2223C34.9474 46.2109 33.7116 47.5084 32.7759 49.0796C31.2665 51.6395 29.713 54.1728 28.2565 56.7591C27.6828 57.7742 27.2944 58.9041 26.8177 59.981C26.2793 61.2079 25.3966 61.9935 24.0284 62.1436C21.6363 62.4084 19.7915 60.3429 20.4005 58.0214C20.5859 57.3152 20.9301 56.6267 21.3009 55.9912C23.4105 52.4251 25.5555 48.8678 27.6916 45.3105C28.8038 43.4569 29.9072 41.5856 31.0282 39.7407C31.24 39.3965 31.549 39.1052 31.9109 38.6815L31.9021 38.6638Z" fill="#003A7B"/>
<path d="M47.5346 31.7876C48.2496 30.7019 49.3883 30.4724 50.3946 30.0399C50.73 29.8898 51.1095 29.8633 51.4714 29.7662C52.0364 29.6162 52.4601 29.3514 52.6013 28.6982C52.6719 28.3716 52.9014 28.0009 53.1662 27.7978C55.3995 26.0589 56.7323 23.7463 57.5709 21.0982C57.6856 20.7451 57.8004 20.392 57.9681 20.0654C58.2329 19.5799 58.9391 19.5887 59.1686 20.0919C59.3451 20.4803 59.5128 20.904 59.5482 21.3188C59.6364 22.484 59.8041 23.6756 59.6629 24.8231C58.9655 30.2429 56.3175 34.4357 51.5332 37.1809C51.2155 37.3575 50.8624 37.4722 50.4652 37.6399C49.7502 36.6866 49.8649 35.4685 49.3 34.5328C48.7704 33.6413 48.179 32.7763 47.5346 31.7788V31.7876Z" fill="#003A7B"/>
<path d="M38.6459 45.2046C38.9813 44.5691 39.2814 44.0041 39.5903 43.4304C40.4377 43.4304 41.1086 43.757 41.7706 44.013C42.2649 44.1983 42.4238 44.6573 42.3002 45.2311C42.1767 45.8137 41.8501 46.1138 41.3028 46.0961C40.376 46.0696 39.5374 45.7784 38.6459 45.2046Z" fill="#003A7B"/>
<path d="M34.9474 39.2199C34.5678 38.5049 34.3471 38.1519 34.1971 37.7811C34.1618 37.6929 34.3471 37.4457 34.4707 37.3927C34.5943 37.3398 34.8679 37.3927 34.9385 37.4898C35.2122 37.8959 35.274 38.3372 34.9385 39.2199H34.9474Z" fill="#003A7B"/>
<path d="M44.9307 36.5365C44.966 37.7988 43.8273 39.0875 42.5739 39.1758C41.241 39.2729 39.9346 38.0812 39.8816 36.7042C39.8287 35.336 40.9762 34.0385 42.3267 33.9502C43.6154 33.8619 44.8865 35.133 44.9307 36.5365ZM43.6419 36.6248C43.6861 36.0864 43.0859 35.4773 42.468 35.4332C41.8677 35.389 41.2498 35.901 41.1792 36.5012C41.1086 37.0661 41.6382 37.7105 42.2385 37.7988C42.8475 37.887 43.5978 37.2692 43.6508 36.6248H43.6419Z" fill="white"/>
<path d="M43.6419 36.6248C43.589 37.2692 42.8387 37.887 42.2296 37.7988C41.6294 37.7105 41.1086 37.0661 41.1704 36.5012C41.241 35.901 41.8677 35.389 42.4591 35.4331C43.077 35.4773 43.6773 36.0952 43.6331 36.6248L43.6419 36.6248Z" fill="#003A7B"/>
</svg>
