<svg width="80" height="80" viewBox="0 0 80 80" fill="none" xmlns="http://www.w3.org/2000/svg">
<path d="M36.7171 38.9689C35.9995 40.6731 35.3627 42.171 34.7438 43.6779C34.5285 44.1982 34.3222 44.7363 34.1877 45.2835C33.9814 46.0907 34.2056 46.7725 34.8783 47.2927C35.4883 47.7591 36.161 47.8488 36.8158 47.4452C37.4526 47.0505 38.1074 46.6469 38.6546 46.1535C39.5874 45.3104 40.4485 44.3865 41.3544 43.5075C41.7132 43.1577 42.0899 42.8437 42.5025 42.467C42.8793 42.6643 43.2201 42.8079 43.5161 43.0231C44.8526 43.9649 46.207 44.8978 47.5076 45.8845C48.9697 46.9877 49.2477 48.1 48.27 49.6427C47.3013 51.1855 46.2339 52.6745 45.0679 54.0738C41.6056 58.2357 37.5064 61.6352 32.609 64.0121C30.2141 65.1692 27.6936 65.9765 25.0566 66.3622C22.1324 66.7927 21.4508 66.3173 20.9305 63.456C19.9977 58.3433 20.4372 53.3024 21.8185 48.3152C22.9397 44.2699 24.8503 40.5924 27.1196 37.0762C27.2541 36.861 27.4245 36.6726 27.5591 36.4573C28.2318 35.3541 29.8733 35.0581 30.9227 35.5604C32.905 36.5201 34.8066 37.6144 36.7081 38.9689H36.7171Z" fill="#003A7B"/>
<path d="M45.8123 37.749C45.4446 37.6324 45.2473 37.6055 45.0948 37.5068C43.4623 36.4484 41.8208 35.3989 40.2063 34.3136C39.408 33.7754 39.3093 33.4256 39.713 32.5645C42.0271 27.6043 44.3144 22.6351 47.4 18.0964C48.0009 17.2174 48.6557 16.3653 49.3733 15.5849C50.3779 14.4906 51.6606 13.8359 53.1406 13.5847C56.0647 13.0824 58.7287 14.8584 59.3745 17.7377C59.7333 19.3253 59.6077 20.895 58.7914 22.3122C58.038 23.6128 57.2487 24.9134 56.2889 26.0705C54.0375 28.7793 51.6875 31.3985 49.3643 34.0355C48.5302 34.9774 47.6601 35.8833 46.799 36.7982C46.503 37.1121 46.1711 37.3992 45.8034 37.749H45.8123ZM51.1762 19.424C51.1672 20.8232 52.1629 21.9534 53.4276 21.9624C54.6923 21.9803 55.966 20.7515 56.0378 19.4419C56.1095 18.1861 54.9793 16.9393 53.7505 16.9124C52.4499 16.8855 51.1941 18.1054 51.1852 19.415L51.1762 19.424Z" fill="#003A7B"/>
<path d="M40.1435 36.1165C41.3185 36.9417 42.3859 37.6862 43.5341 38.4935C43.3726 38.8253 43.2919 39.1392 43.1035 39.3366C41.2199 41.2651 39.3183 43.1756 37.4167 45.0772C37.1566 45.3373 36.8337 45.5615 36.4929 45.6961C36.3224 45.7678 36.0534 45.6064 35.8381 45.5615C36.152 43.6779 38.6546 38.1795 40.1525 36.1165H40.1435Z" fill="#003A7B"/>
<path d="M51.1852 19.415C51.1941 18.1054 52.4499 16.8855 53.7505 16.9124C54.9883 16.9393 56.1095 18.1772 56.0378 19.4419C55.966 20.7425 54.6923 21.9803 53.4276 21.9624C52.1629 21.9444 51.1672 20.8143 51.1762 19.424L51.1852 19.415Z" fill="white"/>
</svg>
