<svg width="80" height="80" viewBox="0 0 80 80" fill="none" xmlns="http://www.w3.org/2000/svg">
<path d="M31.1043 22.4016C37.8853 22.4016 44.6663 22.4016 51.4575 22.4016C52.0989 22.4016 52.7404 22.3812 53.3818 22.4322C54.7971 22.5442 55.3673 23.2976 55.1636 24.7434C55.1433 24.8859 55.1025 25.0183 55.072 25.1608C54.6036 27.5434 54.1353 29.9259 53.6669 32.3084C53.5855 32.7258 53.4531 33.1433 53.3716 33.5608C53.0051 35.3527 51.9564 36.3098 50.1237 36.7883C44.0452 38.3869 38.0074 40.0974 31.9697 41.8486C29.8214 42.4697 27.8461 42.0625 25.9625 41.1359C24.8221 40.5759 23.7327 39.8327 22.7858 38.9876C18.1226 34.7825 13.5103 30.5164 8.88777 26.2605C8.47032 25.8736 8.0427 25.4765 7.7067 25.0285C6.9838 24.0816 7.46234 22.758 8.62306 22.5136C9.24414 22.3812 9.89577 22.4118 10.5372 22.4118C17.3895 22.4118 24.2418 22.4118 31.1043 22.4118V22.4016Z" fill="#003A7B"/>
<path d="M34.169 46.6646C31.5421 46.9599 29.3835 48.1308 27.2759 49.6173C27.3574 50.4318 27.4592 51.2056 27.5101 51.9794C28.0396 59.8092 20.2302 65.0528 13.1845 61.6012C9.73286 59.9008 7.90015 57.0194 7.68634 53.2522C7.47252 49.5664 9.02014 46.5628 12.1052 44.4857C16.0353 41.8283 21.0346 42.3068 24.5167 45.5955C24.8731 45.9315 25.2294 46.2777 25.6774 46.6951C26.1967 46.4406 26.7261 46.2471 27.1843 45.9519C28.8134 44.8828 30.585 44.1904 32.4686 43.6915C38.7405 42.0014 45.0023 40.2399 51.264 38.4989C51.4677 38.4378 51.6713 38.3665 51.8851 38.3258C53.0458 38.112 53.7382 37.44 54.1556 36.32C55.3367 33.1738 56.5993 30.0684 57.8312 26.9426C58.4931 25.283 59.1447 23.6234 59.837 21.974C60.5192 20.3551 61.741 19.3165 63.4515 18.9093C65.7424 18.3696 68.0537 17.8809 70.3547 17.3718C70.4973 17.3413 70.6398 17.3311 70.7824 17.3209C71.6885 17.2802 72.3605 17.7282 72.5743 18.5224C72.8085 19.3776 72.3707 20.182 71.4136 20.5281C70.9453 20.7012 70.4464 20.7827 69.9576 20.8845C68.3489 21.2307 66.7504 21.6176 65.1315 21.8823C63.6246 22.1267 62.7286 22.9412 62.1992 24.3463C60.7127 28.2866 59.1752 32.2168 57.6582 36.1469C57.4036 36.8087 57.1694 37.4909 56.8945 38.1425C56.7316 38.5396 56.5992 39.0283 56.2938 39.2523C55.1942 40.0567 55.0211 41.2072 54.8276 42.429C54.1556 46.7359 53.4124 51.0326 52.6997 55.3292C52.5978 55.9605 52.496 56.6019 52.3229 57.223C51.2437 60.8986 46.7739 61.9982 44.1267 59.2288C43.6888 58.7706 43.3121 58.231 42.9252 57.7219C40.2983 54.3314 37.6816 50.9409 35.0446 47.5606C34.79 47.2246 34.4642 46.9497 34.1791 46.6442L34.169 46.6646ZM37.9769 45.789C38.3027 46.2777 38.5267 46.634 38.7813 46.97C40.5936 49.3627 42.4263 51.7452 44.2488 54.1278C44.8597 54.9219 45.4605 55.7263 46.1019 56.4899C46.611 57.1008 47.2015 57.6608 48.1179 57.3757C48.9833 57.111 49.2888 56.3881 49.4619 55.5939C49.4924 55.4514 49.5128 55.3089 49.5331 55.1765C50.1542 51.1547 50.7855 47.1228 51.3964 43.101C51.4473 42.7752 51.3964 42.4392 51.3964 42.1032C49.7368 42.1337 39.8809 44.8319 37.9769 45.7991V45.789ZM21.7982 48.6398C20.4644 47.1839 19.0389 46.7766 17.5219 46.7766C14.4164 46.7766 11.8812 49.434 11.871 52.6005C11.8608 55.8485 14.4266 58.4856 17.6441 58.5467C20.8309 58.6077 23.4069 56.1743 23.5087 52.9874C23.5189 52.6005 23.3356 52.2136 23.2338 51.786C22.2767 51.786 21.6353 52.2951 20.9531 52.6311C20.1895 53.018 19.4666 53.4863 18.6928 53.8427C17.807 54.25 16.8601 53.9445 16.463 53.2013C16.0659 52.4682 16.3713 51.5416 17.2164 51.002C17.5728 50.7678 17.98 50.6151 18.3568 50.4216C19.4157 49.8718 20.4847 49.322 21.788 48.6398H21.7982Z" fill="#003A7B"/>
<path d="M37.9769 45.789C39.8809 44.8217 49.747 42.1236 51.3964 42.093C51.3964 42.429 51.4371 42.765 51.3964 43.0908C50.7855 47.1228 50.1542 51.1445 49.5331 55.1663C49.5128 55.3089 49.4924 55.4514 49.4619 55.5838C49.2888 56.3881 48.9833 57.1008 48.1179 57.3656C47.2015 57.6507 46.6212 57.1008 46.1019 56.4798C45.4605 55.7161 44.8597 54.9118 44.2488 54.1176C42.4263 51.7351 40.6038 49.3424 38.7813 46.9599C38.5267 46.6239 38.3027 46.2675 37.9769 45.7788L37.9769 45.789Z" fill="white"/>
<path d="M21.7982 48.6398C20.4949 49.322 19.4258 49.8718 18.3669 50.4216C17.9902 50.6151 17.583 50.778 17.2266 51.002C16.3815 51.5416 16.0862 52.4784 16.4731 53.2013C16.8702 53.9445 17.8171 54.2499 18.7029 53.8427C19.4768 53.4863 20.1997 53.0078 20.9633 52.6311C21.6455 52.2849 22.2869 51.786 23.244 51.786C23.3458 52.2136 23.5291 52.6005 23.5189 52.9874C23.4171 56.1743 20.8411 58.6077 17.6542 58.5466C14.4266 58.4856 11.8608 55.8485 11.8812 52.6005C11.8914 49.434 14.4266 46.7766 17.5321 46.7766C19.0491 46.7766 20.4746 47.194 21.8084 48.6398L21.7982 48.6398Z" fill="white"/>
</svg>
