<svg width="80" height="80" viewBox="0 0 80 80" fill="none" xmlns="http://www.w3.org/2000/svg">
<path d="M42.4959 33.8806C39.5548 27.8361 41.9707 21.4192 46.4874 17.972C48.4927 16.4442 50.7271 15.4033 53.1144 14.6872C55.3679 14.0092 57.6884 13.6463 60.0374 13.5222C62.4247 13.3885 63.1313 13.7991 63.2363 16.4251C63.3987 20.5025 62.969 24.4653 61.2788 28.2181C59.9419 31.1878 57.908 33.5082 54.9955 35.0361C52.8566 36.1533 50.5934 36.6021 48.1871 36.4111C46.9075 36.3061 45.7139 35.9623 44.5012 35.1697C44.9691 34.4631 45.351 33.8615 45.7712 33.2695C46.1627 32.7252 46.5447 32.1618 46.9935 31.6748C48.9319 29.5454 50.8895 27.4255 52.8375 25.3056C53.2481 24.8664 53.6587 24.4176 54.0024 23.9306C54.203 23.6441 54.1552 23.2526 53.8401 23.033C53.6491 22.8993 53.334 22.8038 53.1239 22.8611C52.8184 22.9566 52.5414 23.1858 52.2836 23.3863C48.7696 26.1364 45.924 29.5168 43.1834 33.0117C43.0593 33.1645 43.002 33.365 42.8779 33.6324C43.2503 34.1289 43.6418 34.6541 44.0906 35.2557C43.6131 36.096 43.0688 36.9363 42.6582 37.8339C42.2094 38.7984 41.7988 39.801 41.5028 40.8228C41.2259 41.7681 40.8917 42.7326 40.9394 43.6588C41.3882 44.289 41.9707 44.1554 42.4768 44.1554C45.6948 44.1744 48.9128 44.1649 52.1308 44.1744C52.7324 44.1744 53.3436 44.1649 53.9356 44.2222C55.0051 44.3272 55.5398 44.8811 55.5207 45.9124C55.4921 46.915 55.4157 47.9176 55.282 48.9203C55.177 49.7033 54.7568 50.0853 53.9451 50.1903C53.4104 50.2572 52.8757 50.2572 52.3409 50.2667C43.8901 50.2667 35.4392 50.2858 26.9979 50.2667C24.6775 50.2667 24.3623 49.9134 24.3146 47.5644C24.305 46.9628 24.286 46.3516 24.3337 45.7596C24.4101 44.8906 24.8493 44.3941 25.6992 44.2699C26.2244 44.184 26.7687 44.1936 27.3034 44.1936C30.3209 44.1745 33.3384 44.1744 36.3559 44.1554C36.8715 44.1554 37.4445 44.2509 37.836 43.783C37.3394 41.2238 35.9071 38.6838 34.341 37.6334C34.131 37.7193 33.8827 37.7957 33.6535 37.9199C29.4424 40.1257 23.9231 38.722 20.6955 35.017C19.2154 33.3172 18.2892 31.312 17.6398 29.1825C17.0096 27.1199 16.7613 24.981 16.7327 22.8324C16.7136 21.5338 17.0478 21.1327 18.3083 20.9704C21.9655 20.5025 25.5369 20.8176 28.9841 22.1831C30.9416 22.9566 32.6795 24.0929 34.0832 25.678C36.1649 28.0271 36.9957 30.7677 36.4609 33.8711C36.3845 34.3008 36.1458 34.7018 35.993 35.0742C35.1718 35.017 34.8089 34.4822 34.3983 34.0621C32.5554 32.1905 30.4928 30.5862 28.3825 29.0393C27.9623 28.7337 27.4658 28.4663 26.9692 28.3422C26.7496 28.2849 26.3581 28.5714 26.1862 28.8101C26.0716 28.9533 26.1767 29.3067 26.2626 29.5454C26.3294 29.7173 26.5109 29.8605 26.6637 29.9846C29.3278 32.1236 31.8679 34.3963 34.3315 36.9363C34.8662 36.6498 35.3628 36.3825 35.9071 36.096C37.3299 37.3565 37.9888 39.0753 39.0583 40.6986C39.8986 39.5432 40.0227 38.2254 40.6625 37.1655C41.2832 36.1342 41.837 35.0647 42.4863 33.9093L42.4959 33.8806Z" fill="#003A7B"/>
<path d="M26.8451 52.3293C27.4849 51.7659 28.1915 51.9664 28.8408 51.9664C34.9331 51.9569 41.0254 51.9664 47.1176 51.9664C48.5213 51.9664 49.925 51.9664 51.3383 51.9951C51.7966 51.9951 52.255 52.0715 52.8279 52.1288C52.847 52.5776 52.933 52.9691 52.8757 53.3224C52.2836 56.7505 51.7011 60.1881 51.0518 63.6067C50.6889 65.526 49.7245 66.3186 47.7287 66.4618C47.3277 66.4905 46.9266 66.4809 46.5256 66.4809C42.1044 66.4809 37.6928 66.5 33.2716 66.5C32.67 66.5 32.0684 66.5 31.4668 66.4332C30.235 66.2995 28.8504 65.2491 28.6116 63.7404C28.0578 60.2359 27.3989 56.7505 26.8069 53.2555C26.7496 52.9404 26.8355 52.6062 26.8546 52.3388L26.8451 52.3293Z" fill="#003A7B"/>
</svg>
