<svg width="80" height="80" viewBox="0 0 80 80" fill="none" xmlns="http://www.w3.org/2000/svg">
<path d="M49.2842 56.1364C44.6445 54.1922 40.1984 52.1783 35.7446 50.1799C35.3573 50.0095 35.001 49.7616 34.5672 49.5137C34.6911 49.1574 34.7763 48.8553 34.908 48.5687C35.1327 48.073 35.3883 47.5928 35.6284 47.1048C36.2171 45.9119 36.4959 44.6881 36.4262 43.3326C36.2403 39.9632 36.1861 36.5938 36.4804 33.2321C36.5734 32.1554 36.7205 31.071 36.9219 30.0098C37.0226 29.4909 37.255 28.9642 37.5338 28.5149C37.9676 27.8178 38.6647 27.4847 39.4858 27.5622C40.3223 27.6474 40.9033 28.1663 41.1511 28.9332C41.3293 29.4909 41.4067 30.1028 41.4222 30.6915C41.461 31.9928 41.4222 33.3018 41.43 34.6031C41.43 34.8354 41.5617 35.0601 41.7088 35.5636C42.0264 34.9517 42.2433 34.5953 42.4059 34.2081C43.3432 31.9463 44.2494 29.6768 45.1867 27.4227C45.543 26.5707 45.907 25.7187 46.3331 24.8976C46.5809 24.4251 46.8985 23.9526 47.2858 23.5963C47.8822 23.0464 48.6103 22.8682 49.3927 23.2633C50.1518 23.6428 50.5623 24.2857 50.508 25.099C50.4616 25.7342 50.2834 26.3848 50.0433 26.9812C49.2455 28.9487 48.3935 30.8851 47.5724 32.837C47.4252 33.1856 47.2781 33.5342 47.1851 33.906C47.1541 34.0299 47.278 34.301 47.3632 34.3165C47.5414 34.3475 47.8435 34.3242 47.9287 34.2081C48.2385 33.7665 48.5019 33.2863 48.7497 32.8061C49.7257 30.9238 50.6785 29.0339 51.6622 27.1516C52.0107 26.4777 52.3825 25.8039 52.8085 25.1842C53.5676 24.0766 54.6211 23.7435 55.6125 24.216C56.6505 24.7117 57.0223 25.8426 56.542 27.1671C56.3794 27.6241 56.1547 28.0656 55.9301 28.4994C54.8302 30.6218 53.7225 32.7441 52.6149 34.8665C52.3903 35.3002 52.1502 35.7262 51.9798 36.1832C51.9255 36.3226 52.0572 36.6402 52.1811 36.7022C52.3206 36.7719 52.6304 36.7022 52.7466 36.5783C53.0022 36.2994 53.1881 35.9664 53.3895 35.641C54.5978 33.6426 55.7984 31.6364 57.0223 29.6458C57.2779 29.2275 57.5412 28.8092 57.882 28.4684C58.4243 27.9262 59.1136 27.7713 59.8417 28.0424C60.5001 28.2903 60.9416 28.8015 61.0036 29.4909C61.0501 30.0176 60.9958 30.583 60.8332 31.0788C60.655 31.6364 60.3297 32.1632 60.0199 32.6744C58.9122 34.4792 57.7813 36.2762 56.6582 38.0732C56.4258 38.445 56.1547 38.7858 55.9611 39.1731C55.8836 39.328 55.8836 39.6224 55.9843 39.7463C56.2089 40.0251 56.4801 39.8625 56.6737 39.6611C57.2391 39.0724 57.7891 38.476 58.3468 37.8718C58.9045 37.2676 59.4157 36.6325 59.9966 36.067C60.8254 35.2615 61.8556 35.1763 62.6535 35.7805C63.4125 36.3536 63.6526 37.4923 63.1492 38.4373C62.9245 38.8633 62.5992 39.2428 62.2817 39.6146C59.6558 42.6664 57.0532 45.7338 54.3809 48.7391C52.7078 50.6214 51.2206 52.6121 50.0743 54.8506C49.8806 55.2301 49.625 55.5787 49.2842 56.1364Z" fill="#003A7B"/>
<path d="M33.994 30.1648C34.3348 29.4444 34.1334 28.7937 34.0327 28.1663C33.8159 26.7721 33.537 25.3856 33.2969 23.9914C33.204 23.4569 33.0878 22.9147 33.0723 22.3802C33.0568 21.9 33.0955 21.3965 33.2194 20.9318C33.4441 20.1185 34.056 19.6615 34.8693 19.553C35.6361 19.4523 36.279 19.7854 36.6741 20.4283C36.9529 20.8776 37.1698 21.4043 37.286 21.9232C37.6345 23.4027 37.9134 24.8976 38.2 26.2764C38.0993 26.501 38.076 26.6327 38.0063 26.6869C36.705 27.5777 36.1086 28.8635 35.8065 30.3584C35.3185 32.7751 35.2488 35.2228 35.2024 37.6627C35.1714 39.452 35.2411 41.249 35.3573 43.0383C35.4502 44.4403 35.1636 45.7261 34.5207 46.9654C34.0947 47.7864 33.7229 48.6307 33.3201 49.4673C32.9251 50.2883 32.3287 50.8693 31.4302 51.1404C30.4464 51.4269 29.4782 51.76 28.448 52.0931C28.2544 51.7213 28.0607 51.4579 27.9755 51.1559C27.4101 49.2504 26.4186 47.5773 25.2723 45.9739C23.1576 43.0073 21.0353 40.0484 18.9439 37.0663C18.2855 36.1368 17.6736 35.1685 17.1237 34.1693C16.8448 33.6581 16.6512 33.0539 16.597 32.4807C16.5118 31.5513 16.899 30.7689 17.7666 30.3197C18.6496 29.8704 19.4629 30.0796 20.1678 30.7225C20.4854 31.0168 20.7797 31.3421 21.0508 31.6752C21.9028 32.7364 22.7316 33.813 23.5837 34.8742C23.7154 35.0369 23.8935 35.1685 24.0562 35.308C24.0871 35.3312 24.1723 35.3234 24.2033 35.308C24.2885 35.2537 24.4357 35.1531 24.4202 35.1066C24.2885 34.5876 24.1491 34.0609 23.971 33.5497C23.0957 31.0323 22.1972 28.5227 21.3374 26.0053C21.1437 25.4398 21.0198 24.8511 20.9114 24.2702C20.8494 23.9526 20.8417 23.6196 20.8959 23.302C21.0353 22.419 21.531 21.8148 22.4218 21.5824C23.2506 21.3655 23.971 21.6444 24.4512 22.295C24.8695 22.8527 25.1948 23.5034 25.4349 24.154C26.1785 26.1369 26.8679 28.1431 27.5882 30.1415C27.7896 30.6992 28.0143 31.2569 28.2776 31.7914C28.3473 31.9231 28.6727 32.0392 28.8043 31.985C28.9515 31.9308 29.1142 31.6442 29.0909 31.4893C29.0135 31.009 28.8585 30.5443 28.7269 30.0718C28.1072 27.8178 27.4643 25.5715 26.8601 23.3175C26.6897 22.6901 26.5348 22.0394 26.5116 21.3965C26.4883 20.8156 26.5348 20.1882 26.7362 19.6537C27.0228 18.8869 27.6734 18.4686 28.51 18.4299C29.2768 18.3989 29.912 18.701 30.2915 19.3671C30.5317 19.7854 30.6788 20.2579 30.8105 20.7304C31.5463 23.4027 32.2589 26.0827 32.9871 28.755C33.1032 29.1733 33.2504 29.5838 33.4441 29.9634C33.5138 30.0873 33.7849 30.1028 33.9863 30.1802L33.994 30.1648Z" fill="#003A7B"/>
<path d="M33.6842 50.9622C34.3039 51.2101 34.7609 51.365 35.2024 51.5664C39.1682 53.3479 43.1341 55.1372 47.0999 56.9265C48.9666 57.763 49.0209 57.9102 48.0914 59.6762C47.0689 61.6204 46.2091 61.9999 44.1178 61.1324C40.5005 59.6297 36.9219 58.0496 33.3279 56.4849C33.0335 56.3533 32.7469 56.1829 32.4991 55.9737C31.9414 55.5167 31.7245 54.9048 31.9491 54.2232C32.3287 53.0923 32.8399 52.0234 33.6765 50.9622H33.6842Z" fill="#003A7B"/>
<path d="M31.2598 52.7515C31.1048 53.557 30.9809 54.014 30.9267 54.4865C30.8027 55.5555 31.1823 56.392 32.1273 56.942C32.5378 57.1743 32.9483 57.399 33.4131 57.6623C31.833 58.5686 30.4852 58.3284 29.7803 56.9807C29.362 56.1751 29.1374 55.2689 28.8663 54.3936C28.7346 53.9753 28.9592 53.6267 29.331 53.4641C29.8578 53.224 30.4232 53.0613 31.2598 52.7592V52.7515Z" fill="#003A7B"/>
</svg>
